<svg width="72" height="77" viewBox="0 0 72 77" fill="none" xmlns="http://www.w3.org/2000/svg">
<g clip-path="url(#clip0_2199_641)">
<path d="M45.947 33.2522C46.066 33.5062 46.138 33.7042 46.247 33.8822C47.309 35.6352 48.363 37.3912 49.447 39.1312C50.041 40.0812 50.679 41.0062 51.312 41.9312C52.445 43.5902 53.67 45.1802 54.935 46.7382C55.335 47.2262 55.735 47.7012 56.127 48.1942C56.2434 48.3292 56.3275 48.489 56.3727 48.6615C56.4179 48.834 56.423 49.0146 56.3877 49.1893C56.3524 49.3641 56.2775 49.5285 56.1689 49.6699C56.0603 49.8113 55.9207 49.926 55.761 50.0052C55.5043 50.1172 55.2243 50.1652 54.945 50.1452C54.119 50.1632 53.291 50.1532 52.463 50.1532C51.518 50.1532 50.573 50.1532 49.628 50.1532C49.473 50.1532 49.318 50.1782 49.115 50.1962C49.1444 50.31 49.1853 50.4205 49.237 50.5262C50.284 52.1602 51.325 53.7962 52.39 55.4172C53.455 57.0382 54.532 58.6662 55.634 60.2722C56.665 61.7722 57.734 63.2502 58.782 64.7412C59.0087 65.012 59.1423 65.3486 59.163 65.7012C59.18 65.9851 59.0892 66.2649 58.9089 66.4848C58.7285 66.7047 58.4717 66.8484 58.19 66.8872C57.7873 66.9707 57.3759 67.0043 56.965 66.9872C52.059 66.9872 47.154 66.9872 42.25 66.9872H41.585V67.5662C41.585 70.0352 41.585 72.5022 41.59 74.9662C41.6054 75.3031 41.5148 75.6364 41.331 75.9192C41.2185 76.0995 41.0602 76.2467 40.8722 76.3458C40.6842 76.4449 40.4733 76.4923 40.261 76.4832C37.337 76.4632 34.41 76.4472 31.486 76.4932C31.1416 76.4831 30.8137 76.3437 30.5675 76.1028C30.3212 75.8619 30.1747 75.5372 30.157 75.1932C30.157 75.0612 30.157 74.9262 30.157 74.7932V67.0182C29.918 67.0082 29.733 66.9902 29.547 66.9902C24.4803 66.9902 19.4136 66.9875 14.347 66.9822C13.98 66.9952 13.6136 66.9428 13.265 66.8272C13.0795 66.7569 12.9174 66.6361 12.797 66.4785C12.6767 66.3208 12.6029 66.1326 12.584 65.9352C12.5617 65.7382 12.5786 65.5388 12.6335 65.3483C12.6884 65.1578 12.7803 64.9801 12.904 64.8252C13.824 63.5502 14.756 62.2822 15.635 60.9792C17.192 58.6792 18.717 56.3532 20.244 54.0282C20.988 52.8952 21.707 51.7472 22.436 50.6032C22.5054 50.4735 22.5671 50.34 22.621 50.2032C22.362 50.1832 22.179 50.1552 21.996 50.1552C20.34 50.1502 18.686 50.1552 17.032 50.1502C16.8104 50.1522 16.589 50.1401 16.369 50.1142C16.1731 50.0911 15.9864 50.0186 15.8264 49.9033C15.6664 49.7881 15.5384 49.634 15.4546 49.4555C15.3707 49.277 15.3337 49.0802 15.3471 48.8834C15.3604 48.6867 15.4237 48.4966 15.531 48.3312C15.7045 48.0616 15.8956 47.8037 16.103 47.5592C17.419 45.9592 18.703 44.3382 19.903 42.6532C20.833 41.3532 21.755 40.0462 22.581 38.6742C23.203 37.6402 23.881 36.6362 24.507 35.6082C24.929 34.9172 25.307 34.2012 25.707 33.4942C25.7312 33.4243 25.7466 33.3518 25.753 33.2782C25.578 33.2682 25.423 33.2552 25.268 33.2552C23.468 33.2552 21.663 33.2302 19.862 33.2652C19.5695 33.2721 19.283 33.1816 19.0476 33.0078C18.8122 32.834 18.6414 32.5868 18.562 32.3052C18.513 32.1277 18.5103 31.9407 18.5543 31.7619C18.5982 31.5832 18.6873 31.4187 18.813 31.2842C19.519 30.4532 20.269 29.6562 20.945 28.8022C21.839 27.6712 22.713 26.5182 23.539 25.3342C24.456 24.0232 25.328 22.6792 26.181 21.3282C26.732 20.4572 27.233 19.5502 27.731 18.6452C28.453 17.3322 29.149 16.0082 29.756 14.6362C30.262 13.4902 30.81 12.3652 31.311 11.2192C31.563 10.6452 31.743 10.0402 31.964 9.45316C32.251 8.68816 32.553 7.92616 32.835 7.15916C32.99 6.73516 33.12 6.30316 33.262 5.87316C33.427 5.38016 33.602 4.88716 33.762 4.38916C33.912 3.91416 34.039 3.43416 34.179 2.95416C34.288 2.57516 34.408 2.19916 34.509 1.81816C34.6 1.47816 34.666 1.13216 34.761 0.792159C34.8417 0.552633 34.9978 0.345639 35.2058 0.202057C35.4139 0.0584746 35.6627 -0.0139991 35.9153 -0.00455192C36.1679 0.00489526 36.4107 0.0957569 36.6075 0.254477C36.8042 0.413198 36.9443 0.63127 37.007 0.876159C37.2203 1.67616 37.4473 2.47383 37.688 3.26916C38.013 4.34916 38.336 5.43116 38.694 6.50116C38.948 7.25816 39.261 7.99516 39.535 8.74216C39.804 9.46916 40.048 10.2032 40.32 10.9272C40.503 11.4072 40.706 11.8802 40.92 12.3452C41.42 13.4272 41.903 14.5172 42.442 15.5792C43.1506 16.9792 43.884 18.3698 44.642 19.7512C45.6038 21.4814 46.6563 23.1598 47.795 24.7792C48.707 26.0982 49.683 27.3652 50.668 28.6232C51.323 29.4592 52.055 30.2342 52.749 31.0392C52.868 31.1812 52.965 31.3392 53.074 31.4962C53.1559 31.6518 53.2033 31.8233 53.213 31.9989C53.2226 32.1746 53.1943 32.3502 53.13 32.5139C53.0656 32.6776 52.9668 32.8255 52.8401 32.9476C52.7134 33.0696 52.562 33.1629 52.396 33.2212C52.2541 33.2619 52.1054 33.2731 51.959 33.2542H45.953L45.947 33.2522ZM19.246 47.5832L19.284 47.6972C19.452 47.7102 19.622 47.7382 19.792 47.7382C21.342 47.7382 22.892 47.7382 24.446 47.7432C24.711 47.7462 24.975 47.7761 25.234 47.8322C25.3896 47.8681 25.5346 47.9401 25.6573 48.0424C25.7799 48.1447 25.8768 48.2745 25.94 48.4212C26.051 48.6458 26.0958 48.8973 26.0693 49.1464C26.0427 49.3956 25.9458 49.632 25.79 49.8282C24.934 51.2155 24.065 52.5952 23.183 53.9672C22.3063 55.3265 21.418 56.6782 20.518 58.0222C19.263 59.8972 17.993 61.7622 16.73 63.6342C16.562 63.8832 16.41 64.1452 16.24 64.4162C16.4756 64.5423 16.7458 64.5886 17.01 64.5482H54.73C54.8634 64.5532 54.9969 64.5505 55.13 64.5402C55.2463 64.518 55.361 64.4876 55.473 64.4492C55.4501 64.3518 55.4166 64.2572 55.373 64.1672C54.3363 62.6378 53.298 61.1092 52.258 59.5812C51.222 58.0472 50.175 56.5222 49.166 54.9722C48.188 53.4722 47.25 51.9462 46.305 50.4272C46.08 50.0866 45.8869 49.7261 45.728 49.3502C45.6657 49.1884 45.6409 49.0147 45.6555 48.842C45.6701 48.6693 45.7237 48.5022 45.8123 48.3532C45.9009 48.2043 46.0221 48.0774 46.1669 47.9821C46.3116 47.8868 46.4761 47.8256 46.648 47.8032C46.882 47.7882 47.115 47.7422 47.348 47.7422C48.885 47.7372 50.422 47.7422 51.959 47.7372C52.124 47.7372 52.289 47.7042 52.52 47.6792C52.398 47.4912 52.32 47.3692 52.243 47.2552C51.173 45.7992 50.078 44.3642 49.043 42.8882C47.4421 40.6135 45.9582 38.2588 44.597 35.8332C44.033 34.8272 43.489 33.8112 42.956 32.7892C42.783 32.5327 42.7122 32.2209 42.7573 31.9149C42.8024 31.6088 42.9603 31.3307 43.2 31.1352C43.4647 30.921 43.8001 30.814 44.14 30.8352C45.6733 30.8405 47.2096 30.8405 48.749 30.8352C48.904 30.8352 49.056 30.8172 49.295 30.8052C47.2888 28.3443 45.443 25.7569 43.769 23.0592C42.1311 20.3904 40.6528 17.6269 39.342 14.7832C38.0556 11.9137 36.9207 8.97862 35.942 5.99016C35.627 6.06916 35.696 6.31316 35.642 6.47316C35.347 7.26616 35.065 8.05816 34.786 8.85316C34.567 9.47016 34.386 10.1032 34.141 10.7102C33.6203 11.9928 33.08 13.2682 32.52 14.5362C31.788 16.1872 30.991 17.8112 30.109 19.3862C29.014 21.3422 27.899 23.2862 26.628 25.1452C25.357 27.0042 24.047 28.8162 22.619 30.5452C22.5655 30.6355 22.5212 30.7309 22.487 30.8302H23.028C24.55 30.8302 26.072 30.8222 27.593 30.8382C27.8563 30.8417 28.1159 30.9007 28.355 31.0112C28.5506 31.1085 28.7143 31.2597 28.8268 31.447C28.9393 31.6342 28.9959 31.8498 28.99 32.0682C28.9636 32.3459 28.875 32.6142 28.731 32.8532C28.551 33.2322 28.325 33.5872 28.131 33.9612C27.351 35.4802 26.52 36.9662 25.601 38.4042C24.966 39.4042 24.338 40.4042 23.693 41.3922C22.656 42.9752 21.587 44.5352 20.416 46.0212C20.016 46.5322 19.636 47.0552 19.245 47.5732M39.107 74.0252C39.201 73.4812 39.181 67.3742 39.094 67.0462C38.703 66.9522 32.981 66.9572 32.618 67.0512C32.529 67.5162 32.544 73.6952 32.641 74.0252H39.107Z" fill="#F5F5F5"/>
<path d="M10.3429 64.6682C10.1567 65.3645 10.1464 66.0961 10.3129 66.7972C10.2699 66.9972 10.1019 66.9902 9.93695 66.9902C9.56895 66.9902 9.19795 66.9902 8.82895 66.9902C6.47895 66.9902 4.12894 66.9952 1.78194 66.9822C1.41665 66.9666 1.05351 66.9181 0.696945 66.8372C0.437945 66.7892 0.0639449 66.2452 0.0159449 65.9432C-0.00465516 65.7103 0.0225999 65.4756 0.0960307 65.2536C0.169462 65.0316 0.287519 64.827 0.442947 64.6522C1.34695 63.3802 2.26195 62.1152 3.16195 60.8422C3.80495 59.9272 4.42694 58.9982 5.04494 58.0652C5.77694 56.9652 6.49095 55.8502 7.20995 54.7392C7.75095 53.9062 8.28695 53.0722 8.82595 52.2392C8.84824 52.1826 8.86531 52.124 8.87694 52.0642C8.68894 52.0462 8.52395 52.0132 8.35595 52.0132C6.96595 52.0132 5.57895 52.0132 4.18995 52.0082C3.95534 52.0103 3.72102 51.9909 3.48994 51.9502C3.28384 51.9319 3.08665 51.8576 2.91964 51.7354C2.75262 51.6133 2.62211 51.4479 2.54217 51.257C2.46222 51.0662 2.43588 50.8571 2.46597 50.6524C2.49607 50.4477 2.58146 50.255 2.71294 50.0952C3.05121 49.6211 3.41509 49.1658 3.80295 48.7312C4.92095 47.4232 5.94695 46.0462 6.94295 44.6462C7.80195 43.4372 8.62195 42.1972 9.41495 40.9462C10.1799 39.7342 10.8889 38.4842 11.6149 37.2462C11.6411 37.158 11.6532 37.0662 11.6509 36.9742H11.1509C9.61395 36.9742 8.07895 36.9642 6.54195 36.9792C6.32945 36.9828 6.11991 36.9292 5.93527 36.8239C5.75064 36.7187 5.5977 36.5657 5.49249 36.381C5.38728 36.1964 5.33367 35.9868 5.33726 35.7743C5.34086 35.5618 5.40154 35.3542 5.51295 35.1732C5.92495 34.6272 6.39495 34.1212 6.84395 33.6052C7.99195 32.2842 9.01595 30.8742 10.0349 29.4542C11.4146 27.4903 12.6746 25.4449 13.8079 23.3292C14.5419 21.9902 15.2149 20.6162 15.8559 19.2292C16.3619 18.1292 16.7779 16.9862 17.2329 15.8602C17.5179 15.1602 17.8099 14.4682 18.0689 13.7602C18.2849 13.1712 18.4599 12.5662 18.6479 11.9662C18.8179 11.4202 18.9959 10.8762 19.1479 10.3272C19.3179 9.72724 19.4579 9.10824 19.6229 8.50324C19.7479 8.05624 19.8229 7.57824 20.2909 7.32224C20.3289 7.30224 20.347 7.24624 20.382 7.22824C20.6429 7.13522 20.9264 7.12639 21.1926 7.20299C21.4589 7.27959 21.6943 7.43777 21.8659 7.65524C22.0103 7.9064 22.1213 8.17534 22.1959 8.45524C22.3739 9.05524 22.5109 9.67424 22.6839 10.2822C22.8899 11.0012 23.106 11.7172 23.339 12.4262C23.539 13.0462 23.7779 13.6562 23.9969 14.2682C24.1339 14.6542 24.2559 15.0432 24.4029 15.4242C24.6159 15.9682 24.8449 16.5042 25.0689 17.0452C25.1529 17.2452 25.26 17.4452 25.326 17.6452C25.3651 17.7485 25.3797 17.8594 25.3686 17.9693C25.3575 18.0791 25.321 18.1849 25.2619 18.2782C24.8249 18.9642 24.4129 19.6682 23.9839 20.3782C23.6539 20.2362 23.6329 19.8932 23.5169 19.6362C23.1409 18.8152 22.7899 17.9822 22.4529 17.1442C22.2239 16.5772 22.0309 15.9982 21.8229 15.4242C21.5609 14.6972 21.305 13.9682 21.035 13.2442C21.015 13.1882 20.9109 13.1632 20.8159 13.1042C18.3236 20.8655 14.4183 28.0993 9.29695 34.4412C9.44895 34.5912 9.61994 34.5412 9.76694 34.5412C10.9359 34.5462 12.1019 34.5332 13.2669 34.5512C13.5908 34.5485 13.9125 34.6037 14.2169 34.7142C14.4301 34.7996 14.6091 34.9528 14.7263 35.1503C14.8434 35.3477 14.8922 35.5783 14.8649 35.8062C14.8293 36.2434 14.6823 36.6641 14.4379 37.0282C13.9829 37.8772 13.5259 38.7282 13.0459 39.5612C12.5989 40.3462 12.1389 41.1262 11.6459 41.8832C10.7459 43.2832 9.83495 44.6702 8.89495 46.0422C8.33895 46.8552 7.71895 47.6302 7.12695 48.4202C6.86995 48.7632 6.60894 49.1032 6.29594 49.5202C6.48689 49.5536 6.67951 49.5767 6.87295 49.5892C8.09995 49.5942 9.32495 49.5892 10.5519 49.5942C10.8309 49.5942 11.1109 49.6372 11.3899 49.6522C11.4924 49.6589 11.5922 49.6873 11.6829 49.7353C11.7735 49.7834 11.853 49.8502 11.9159 49.9312C12.1213 50.1594 12.2469 50.448 12.2739 50.7537C12.301 51.0594 12.228 51.3656 12.0659 51.6262C10.7326 53.7122 9.39528 55.7946 8.05395 57.8732C7.25395 59.1106 6.43928 60.3376 5.60995 61.5542C5.02295 62.4232 4.40995 63.2762 3.81895 64.1382C3.76298 64.2496 3.71616 64.3653 3.67895 64.4842C3.93795 64.5072 4.14895 64.5422 4.35995 64.5422C6.15995 64.5472 7.96495 64.5422 9.76895 64.5472C9.96895 64.5472 10.1829 64.5092 10.3409 64.6662" fill="#F5F5F5"/>
<path d="M60.0189 36.9739C60.1189 37.1979 60.1769 37.3579 60.2599 37.4999C60.8389 38.4879 61.4079 39.4839 62.0129 40.4549C63.0999 42.1979 64.2359 43.9099 65.4449 45.5719C66.3369 46.7969 67.3049 47.9549 68.2449 49.1339C68.5748 49.5215 68.882 49.9279 69.1649 50.3509C69.2334 50.4962 69.27 50.6545 69.2721 50.815C69.2743 50.9756 69.242 51.1348 69.1775 51.2819C69.113 51.4289 69.0177 51.5605 68.898 51.6676C68.7784 51.7747 68.6372 51.855 68.4839 51.9029C68.1971 51.9679 67.904 52.0015 67.6099 52.0029C66.2199 52.0129 64.8309 52.0079 63.4439 52.0079C63.2689 52.0079 63.0959 52.0259 62.8369 52.0379C62.8996 52.1839 62.97 52.3265 63.0479 52.4649C63.6649 53.4329 64.2829 54.4009 64.9099 55.3649C65.9159 56.9019 66.9099 58.4489 67.9429 59.9649C69.0199 61.5379 70.1429 63.0749 71.2429 64.6319C71.5372 64.9422 71.7103 65.3478 71.7309 65.7749C71.7139 66.0361 71.6133 66.2848 71.444 66.4843C71.2748 66.6838 71.0458 66.8236 70.7909 66.8829C70.345 66.9767 69.889 67.0126 69.4339 66.9899C66.9519 66.9899 64.4699 66.9899 61.9879 66.9899C61.8545 66.9983 61.7207 66.9949 61.5879 66.9799C61.4099 66.9519 61.3589 66.8629 61.4129 66.6649C61.6098 66.045 61.5982 65.3777 61.3799 64.7649C61.3747 64.7318 61.3747 64.6981 61.3799 64.6649C61.5449 64.5019 61.7609 64.5509 61.9589 64.5509C63.7589 64.5459 65.5639 64.5509 67.3649 64.5459C67.5779 64.5459 67.7889 64.5049 68.0759 64.4769C67.9489 64.2639 67.8759 64.1239 67.7889 63.9969C66.7319 62.4419 65.6599 60.8969 64.6159 59.3379C63.6659 57.9249 62.7359 56.4979 61.8159 55.0669C61.0739 53.9136 60.3489 52.7516 59.6409 51.5809C59.4633 51.3012 59.3949 50.9658 59.4487 50.6388C59.5026 50.3117 59.6749 50.016 59.9329 49.8079C60.0401 49.7327 60.164 49.6846 60.2939 49.6679C60.6157 49.6264 60.9395 49.6027 61.2639 49.5969C62.4449 49.5889 63.6269 49.5969 64.8079 49.5919C65.0069 49.5804 65.2052 49.5584 65.4019 49.5259C65.1499 49.1779 64.9649 48.8909 64.7519 48.6259C63.6115 47.2125 62.548 45.7387 61.5659 44.2109C60.5779 42.6776 59.6149 41.1319 58.6769 39.5739C58.1769 38.7379 57.7399 37.8639 57.2819 37.0029C57.0729 36.6864 56.9288 36.3316 56.8579 35.9589C56.8014 35.6714 56.8611 35.3731 57.024 35.1295C57.1868 34.8859 57.4396 34.7167 57.7269 34.6589C57.9821 34.5942 58.2437 34.5583 58.5069 34.5519C59.6449 34.5389 60.7829 34.5469 61.9189 34.5469H62.4909C61.6269 33.3939 60.8239 32.3209 60.0189 31.2469C59.2035 30.1649 58.4487 29.0385 57.7579 27.8729C57.0699 26.7039 56.3709 25.5409 55.7259 24.3489C55.0469 23.1744 54.4313 21.9644 53.8819 20.7239C53.3689 19.4719 52.8069 18.2389 52.3089 16.9819C51.8109 15.7249 51.3709 14.4519 50.8829 13.1309C50.8299 13.1589 50.7079 13.1819 50.6829 13.2429C50.4829 13.7989 50.2989 14.3659 50.0989 14.9249C49.8299 15.6669 49.5629 16.4109 49.2729 17.1449C49.0059 17.8209 48.7139 18.4859 48.4239 19.1549C48.2439 19.5689 48.0479 19.9759 47.8239 20.4549C47.6819 20.2549 47.5829 20.1369 47.5059 20.0049C47.1679 19.4279 46.8529 18.8389 46.4949 18.2749C46.4199 18.1665 46.3744 18.0405 46.3628 17.9092C46.3512 17.7779 46.374 17.6458 46.4289 17.5259C46.7439 16.7639 47.0969 16.0139 47.3939 15.2419C47.7069 14.4239 47.9729 13.5859 48.2599 12.7549C48.4809 12.1099 48.7149 11.4669 48.9229 10.8169C49.0229 10.5169 49.0679 10.1919 49.1409 9.87995C49.1887 9.62223 49.2525 9.36773 49.3319 9.11795C49.4369 8.58521 49.6202 8.07097 49.8759 7.59195C50.0304 7.40209 50.2393 7.26403 50.4745 7.19628C50.7098 7.12854 50.9601 7.13435 51.1919 7.21295C51.3734 7.25072 51.5402 7.33977 51.6726 7.46951C51.8051 7.59926 51.8975 7.76426 51.9389 7.94495C52.1449 8.67395 52.3179 9.41295 52.5179 10.1449C52.6369 10.5789 52.7749 11.0089 52.9179 11.4379C53.1289 12.0759 53.3419 12.7129 53.5659 13.3479C53.7739 13.9419 53.9849 14.5339 54.2109 15.1239C54.4239 15.6779 54.6559 16.2239 54.8789 16.7779C55.1479 17.4389 55.3999 18.1069 55.6889 18.7569C56.4109 20.3629 57.1369 21.9679 58.0059 23.4999C58.6309 24.5999 59.2529 25.7049 59.9139 26.7849C60.8029 28.2379 61.7809 29.6359 62.8139 30.9969C63.7792 32.2749 64.8049 33.5029 65.8909 34.6809C66.0626 34.8384 66.196 35.0331 66.2806 35.2502C66.3652 35.4672 66.3988 35.7008 66.3789 35.9329C66.3664 36.2144 66.2444 36.4798 66.0388 36.6724C65.8333 36.8651 65.5606 36.9697 65.2789 36.9639C63.7109 36.9739 62.1459 36.9689 60.5789 36.9719L60.0189 36.9739Z" fill="#F5F5F5"/>
<path d="M39.588 28.8233C39.3777 28.8162 39.1724 28.757 38.9906 28.651C38.8088 28.5451 38.656 28.3958 38.546 28.2163C38.0718 27.4431 37.68 26.6223 37.377 25.7673C37.2452 25.3977 37.1373 25.0199 37.054 24.6363C37.0426 24.4109 37.0861 24.186 37.1809 23.9812C37.2756 23.7763 37.4188 23.5976 37.598 23.4603C37.7555 23.3529 37.9368 23.2856 38.1261 23.2642C38.3155 23.2428 38.5072 23.268 38.6846 23.3376C38.862 23.4072 39.0198 23.5191 39.1441 23.6635C39.2684 23.8079 39.3556 23.9805 39.398 24.1663C39.6775 25.1575 40.0896 26.1064 40.623 26.9873C40.7415 27.1687 40.8053 27.3803 40.8071 27.5969C40.8089 27.8135 40.7485 28.026 40.633 28.2093C40.5316 28.3984 40.38 28.5558 40.195 28.6643C40.0099 28.7728 39.7985 28.8281 39.584 28.8243" fill="#F5F5F5"/>
<path d="M29.7501 27.6019C29.6711 27.3349 29.8391 27.1119 29.9681 26.8879C30.3668 26.2495 30.6769 25.5598 30.8901 24.8379C30.972 24.533 31.0853 24.2375 31.2281 23.9559C31.3441 23.6921 31.5548 23.4812 31.8185 23.365C32.0823 23.2488 32.38 23.2355 32.6531 23.3279C32.8096 23.3827 32.9535 23.4682 33.0764 23.5796C33.1993 23.6909 33.2985 23.8258 33.3684 23.9762C33.4382 24.1266 33.4772 24.2894 33.483 24.4551C33.4887 24.6208 33.4612 24.786 33.4021 24.9409C33.2471 25.4259 33.1021 25.9139 32.9121 26.3839C32.6645 27.059 32.3307 27.6993 31.9191 28.2889C31.8089 28.4518 31.6612 28.5858 31.4883 28.6796C31.3155 28.7734 31.1227 28.8243 30.9261 28.8279C30.3591 28.8429 29.6401 28.1829 29.7501 27.6009" fill="#F5F5F5"/>
<path d="M28.4879 39.5144C28.6638 39.5064 28.8391 39.5384 29.0008 39.6081C29.1624 39.6778 29.3061 39.7834 29.4209 39.9168C29.5358 40.0503 29.6188 40.2081 29.6636 40.3783C29.7085 40.5485 29.7141 40.7267 29.6799 40.8994C29.5283 41.6284 29.2896 42.3364 28.9689 43.0084C28.7229 43.5292 28.4447 44.0342 28.1359 44.5204C28.0012 44.7322 27.7972 44.8907 27.5587 44.9689C27.3202 45.0471 27.0619 45.0402 26.8279 44.9494C26.6488 44.8958 26.4849 44.8006 26.3495 44.6716C26.2142 44.5426 26.1112 44.3834 26.049 44.2071C25.9868 44.0308 25.9672 43.8422 25.9917 43.6569C26.0161 43.4715 26.0841 43.2945 26.1899 43.1404C26.5621 42.4911 26.8799 41.8121 27.1399 41.1104C27.2213 40.8779 27.29 40.6413 27.3459 40.4014C27.4028 40.1433 27.5482 39.9133 27.757 39.7512C27.9658 39.5892 28.2248 39.5054 28.4889 39.5144" fill="#F5F5F5"/>
<path d="M49.0588 61.5432C49.0528 61.8691 48.9177 62.1793 48.6831 62.4056C48.4485 62.6319 48.1337 62.7559 47.8078 62.7502C47.5967 62.753 47.3887 62.6987 47.2058 62.5931C47.023 62.4875 46.872 62.3345 46.7688 62.1502C46.1712 61.1834 45.7194 60.1338 45.4278 59.0352C45.4015 58.9505 45.3681 58.8682 45.3279 58.7892C45.2789 58.6186 45.2677 58.4393 45.2952 58.2639C45.3226 58.0885 45.388 57.9212 45.4867 57.7736C45.5854 57.626 45.7151 57.5018 45.8668 57.4095C46.0185 57.3172 46.1884 57.2591 46.3648 57.2392C46.5213 57.2192 46.6801 57.2302 46.8323 57.2715C46.9844 57.3129 47.127 57.3839 47.2517 57.4804C47.3764 57.5769 47.4809 57.697 47.5592 57.8339C47.6375 57.9708 47.688 58.1218 47.7078 58.2782C47.9623 59.183 48.3303 60.0519 48.8028 60.8642C48.9058 61.0833 48.9917 61.31 49.0598 61.5422" fill="#F5F5F5"/>
<path d="M42.021 39.5123C42.3175 39.5095 42.6052 39.6123 42.8328 39.8023C43.0604 39.9923 43.2129 40.2571 43.263 40.5493C43.4423 41.2779 43.7139 41.9805 44.071 42.6403C44.19 42.8843 44.338 43.1153 44.457 43.3593C44.5686 43.6441 44.5688 43.9603 44.4576 44.2452C44.3464 44.53 44.1319 44.7625 43.857 44.8963C43.5946 45.0242 43.2939 45.0495 43.0138 44.9672C42.7337 44.8849 42.4945 44.7009 42.343 44.4513C41.9885 43.859 41.6754 43.2429 41.406 42.6073C41.2052 42.1372 41.0362 41.6541 40.9 41.1613C40.7969 40.9311 40.7723 40.6733 40.8302 40.4277C40.888 40.1822 41.025 39.9624 41.22 39.8023C41.322 39.6957 41.4473 39.6141 41.5861 39.5638C41.7248 39.5135 41.8733 39.4959 42.02 39.5123" fill="#F5F5F5"/>
<path d="M25.2579 58.472C25.1707 58.8779 25.0606 59.2785 24.9279 59.672C24.6425 60.4486 24.2964 61.2016 23.8929 61.924C23.6812 62.2996 23.3453 62.5899 22.9429 62.745C22.8607 62.7774 22.7719 62.7898 22.6839 62.781C22.379 62.7517 22.0936 62.6177 21.8764 62.4016C21.6592 62.1855 21.5237 61.9008 21.4929 61.596C21.5086 61.3495 21.5808 61.11 21.7039 60.896C21.9499 60.365 22.2479 59.854 22.4839 59.318C22.6481 58.9147 22.789 58.5024 22.9059 58.083C22.9628 57.8654 23.0835 57.6698 23.2524 57.5213C23.4213 57.3729 23.6308 57.2784 23.8539 57.25C24.1077 57.2102 24.3676 57.2493 24.5985 57.362C24.8293 57.4747 25.0201 57.6555 25.1449 57.88C25.205 58.0715 25.2442 58.269 25.2619 58.469" fill="#F5F5F5"/>
<path d="M37.009 34.779C37.009 35.252 37.022 35.722 37.009 36.194C36.9997 36.4194 36.9196 36.6362 36.7801 36.8135C36.6407 36.9909 36.4489 37.1198 36.232 37.182C36.091 37.2323 35.9411 37.2533 35.7917 37.2437C35.6423 37.234 35.4964 37.194 35.363 37.126C35.2369 37.0841 35.1219 37.0144 35.0265 36.9219C34.9311 36.8295 34.8578 36.7167 34.812 36.592C34.7241 36.3421 34.6762 36.0799 34.67 35.815C34.652 35.109 34.652 34.401 34.67 33.691C34.6567 33.3821 34.7328 33.0759 34.889 32.809C35.0215 32.5953 35.2203 32.4308 35.455 32.3405C35.6897 32.2503 35.9474 32.2392 36.189 32.309C36.413 32.3544 36.6152 32.4737 36.7631 32.6478C36.9111 32.8219 36.9963 33.0407 37.005 33.269C37.018 33.769 37.005 34.269 37.005 34.769L37.009 34.779Z" fill="#F5F5F5"/>
<path d="M37.0008 44.222C37.0008 44.722 37.0368 45.222 36.9928 45.722C36.9753 45.8968 36.9158 46.0648 36.8195 46.2117C36.7232 46.3586 36.5928 46.4801 36.4395 46.5659C36.2862 46.6517 36.1145 46.6992 35.9389 46.7044C35.7633 46.7097 35.589 46.6725 35.4308 46.596C35.215 46.5273 35.0271 46.3908 34.8949 46.2069C34.7627 46.023 34.6933 45.8014 34.6968 45.575C34.601 44.593 34.6171 43.6033 34.7448 42.625C34.7937 42.3487 34.9478 42.1021 35.1748 41.9372C35.4018 41.7723 35.684 41.702 35.9618 41.741C36.2264 41.743 36.4804 41.8455 36.6723 42.0276C36.8642 42.2097 36.9799 42.4579 36.9958 42.722C37.0288 43.222 37.0038 43.722 37.0038 44.222H37.0008Z" fill="#F5F5F5"/>
<path d="M36.9989 53.6813C36.9989 54.1813 36.9889 54.6813 36.9989 55.1813C36.9689 55.3587 36.8979 55.5267 36.7916 55.672C36.6854 55.8172 36.5467 55.9358 36.3867 56.0181C36.2267 56.1005 36.0497 56.1445 35.8698 56.1466C35.6898 56.1487 35.5118 56.1089 35.3499 56.0303C35.1695 55.9395 35.0152 55.8041 34.9018 55.637C34.7884 55.4698 34.7196 55.2765 34.7019 55.0753C34.5998 54.0916 34.6109 53.0994 34.7349 52.1183C34.7571 51.9465 34.8201 51.7825 34.9187 51.6401C35.0172 51.4976 35.1484 51.3808 35.3014 51.2995C35.4543 51.2181 35.6245 51.1746 35.7977 51.1724C35.9709 51.1703 36.142 51.2097 36.2969 51.2873C36.5059 51.348 36.6888 51.4766 36.8166 51.6528C36.9445 51.829 37.01 52.0427 37.0029 52.2603C37.0279 52.7333 37.0079 53.2053 37.0079 53.6783L36.9989 53.6813Z" fill="#F5F5F5"/>
</g>
<defs>
<clipPath id="clip0_2199_641">
<rect width="71.74" height="76.5" fill="white"/>
</clipPath>
</defs>
</svg>
