<svg width="84" height="78" viewBox="0 0 84 78" fill="none" xmlns="http://www.w3.org/2000/svg">
<g clip-path="url(#clip0_2200_655)">
<path d="M32.9169 55.3992C33.6095 54.085 34.7239 53.0419 36.081 52.4378C37.4381 51.8336 38.9589 51.7034 40.3989 52.0682C40.4765 51.9547 40.5457 51.8357 40.6059 51.7122C40.9059 50.9492 41.2059 50.1882 41.4869 49.4122C41.6459 48.9702 41.7539 48.5122 41.8869 48.0542C42.0199 47.5962 42.1769 47.1282 42.3099 46.6612C42.5389 45.8612 42.7649 45.0542 42.9779 44.2462C43.1559 43.5782 43.3219 42.9102 43.4779 42.2352C43.5699 41.8442 43.6269 41.4462 43.7099 41.0522C43.8099 40.5912 43.9169 40.1292 44.0029 39.6652C44.0439 39.4422 44.0439 39.2102 44.0699 38.9052C43.7009 39.0612 43.3919 39.1852 43.0899 39.3222C41.9259 39.8412 40.7709 40.3882 39.5899 40.8742C38.8549 41.1792 38.0819 41.3992 37.3219 41.6572C36.6859 41.8702 36.0529 42.1022 35.4069 42.2932C34.6209 42.5282 33.8259 42.7352 33.0339 42.9452C32.3949 43.1142 31.7579 43.2852 31.1119 43.4292C30.6789 43.5292 30.2339 43.5722 29.7979 43.6522C29.3049 43.7442 28.8149 43.8522 28.3219 43.9522C28.2809 43.9582 28.2359 43.9712 28.1949 43.9742C27.5359 44.0472 26.8779 44.1272 26.2159 44.1902C25.7899 44.2312 25.6939 44.3332 25.5919 44.7632C25.511 45.0061 25.4131 45.243 25.2989 45.4722C24.8991 46.4258 24.1647 47.2007 23.2339 47.6512C23.1959 47.6672 23.1699 47.7052 23.1189 47.7512C23.1575 47.8565 23.2078 47.9571 23.2689 48.0512C23.582 48.4563 23.8399 48.9012 24.0359 49.3742C24.0761 49.4481 24.1061 49.5272 24.1249 49.6092C24.2518 50.1538 24.2722 50.7178 24.1849 51.2702C24.0662 51.9605 23.8156 52.6216 23.4469 53.2172C22.9092 54.0733 22.2404 54.8396 21.4649 55.4882C20.8826 55.9754 20.1556 56.2567 19.3969 56.2882C18.7302 56.3155 18.067 56.1781 17.4659 55.8882C17.0399 55.6682 16.6319 55.4012 16.1969 55.1402C16.1166 55.2268 16.0443 55.3205 15.9809 55.4202C15.5025 56.2811 14.7317 56.9423 13.8079 57.2842C13.314 57.4457 12.7929 57.5072 12.2749 57.4652C12.0999 57.4652 11.9279 57.4202 11.7529 57.4272C11.0926 57.3861 10.4446 57.23 9.83793 56.9662C9.68793 56.9182 9.54492 56.8662 9.39892 56.8072C8.49714 56.4252 7.71552 55.8063 7.13693 55.0162C6.78387 54.4687 6.48957 53.8854 6.25892 53.2762C6.1068 53.2604 5.95378 53.2551 5.80093 53.2602C5.02002 53.2765 4.25265 53.0547 3.60093 52.6242C3.01016 52.2705 2.49032 51.81 2.06793 51.2662C1.55823 50.6457 1.0886 49.9934 0.661924 49.3132C0.229618 48.6463 0.000978164 47.8679 0.00393456 47.0732C0.00393456 46.8852 0.00993456 46.6982 0.00393456 46.5102C0.00415447 45.6579 0.289646 44.8303 0.814924 44.1592C1.26757 43.5659 1.84127 43.0757 2.49792 42.7212C2.75592 42.5522 2.82594 42.4412 2.68294 42.2022C2.37482 41.6812 2.16753 41.1068 2.07193 40.5092C1.95131 39.9123 1.97428 39.2954 2.13893 38.7092C2.26676 38.2419 2.43714 37.7873 2.64793 37.3512C2.97298 36.7791 3.39609 36.2687 3.89793 35.8432C4.35463 35.4069 4.8943 35.0669 5.48492 34.8432C6.25229 34.53 7.09215 34.4386 7.90893 34.5792C8.44643 34.673 8.95777 34.8803 9.40893 35.1872C9.51134 35.2536 9.61751 35.314 9.72693 35.3682C9.92693 35.0442 10.1089 34.7222 10.3219 34.4202C11.0642 33.3915 12.1034 32.6144 13.2999 32.1932C14.2786 31.8245 15.3329 31.7023 16.3699 31.8372C17.3064 31.9391 18.1974 32.2945 18.9469 32.8652C19.5371 33.2725 20.0179 33.8189 20.3469 34.4562C20.6817 35.1467 20.8671 35.9001 20.8909 36.6672C20.8909 36.8672 20.8909 37.0672 20.8909 37.3102C21.0395 37.3348 21.1895 37.3498 21.3399 37.3552C22.1786 37.3457 23 37.5931 23.6939 38.0642C24.5442 38.6885 25.1604 39.5801 25.4439 40.5962C25.4919 40.8192 25.5679 41.0382 25.6189 41.2612C25.6228 41.294 25.6333 41.3258 25.6498 41.3545C25.6663 41.3832 25.6885 41.4082 25.7149 41.4282C25.7414 41.4481 25.7716 41.4624 25.8037 41.4703C25.8359 41.4782 25.8693 41.4795 25.9019 41.4742C26.2609 41.4422 26.6179 41.3982 26.9739 41.3532C27.0727 41.3283 27.1729 41.3093 27.2739 41.2962C28.1518 41.2186 29.0226 41.0752 29.8789 40.8672C30.5729 40.7462 31.2529 40.5492 31.9369 40.3832C32.7159 40.1922 33.4989 40.0112 34.2689 39.7942C34.9589 39.6002 35.6429 39.3872 36.3149 39.1392C37.4439 38.7252 38.5549 38.2512 39.6869 37.8442C40.888 37.3754 42.0598 36.8348 43.1959 36.2252C43.7049 35.9702 44.2329 35.7512 44.7259 35.4682C45.9539 34.7622 47.1759 34.0432 48.3809 33.2952C49.0489 32.8812 49.6809 32.3952 50.3309 31.9532C52.1498 30.6308 53.8947 29.2097 55.5579 27.6962C55.6066 27.6668 55.6591 27.6443 55.7139 27.6292L55.6599 27.5292C55.5803 27.5113 55.4994 27.4996 55.4179 27.4942C54.8839 27.5292 54.3489 27.5672 53.8179 27.6052C53.7039 27.6152 53.5889 27.6432 53.4739 27.6462C51.7935 27.7266 50.1098 27.7053 48.4319 27.5822C48.0569 27.5472 47.6809 27.5122 47.3059 27.4992C46.3223 27.4623 45.3429 27.3517 44.3759 27.1682C43.8099 27.0682 43.2369 26.9992 42.6639 26.9232C42.558 26.9167 42.4518 26.9167 42.3459 26.9232C41.907 28.0128 41.0603 28.8881 39.9859 29.3632C39.4291 29.5728 38.8352 29.6659 38.2409 29.6369C37.6466 29.6078 37.0646 29.4571 36.5309 29.1942C36.4765 29.48 36.3989 29.7609 36.2989 30.0342C36.1434 30.4355 35.9349 30.8141 35.6789 31.1602C35.0209 31.9541 34.0887 32.4719 33.0669 32.6112C32.5556 32.7087 32.0353 32.7512 31.5149 32.7382C30.9367 32.7232 30.3609 32.6583 29.7939 32.5442C28.814 32.2982 27.9245 31.7779 27.2299 31.0442C26.9879 30.8092 26.7809 30.5382 26.5299 30.2442C25.9189 30.5416 25.2373 30.6638 24.5609 30.5972C24.1601 30.5761 23.7656 30.4879 23.3939 30.3362C22.3818 29.9674 21.4475 29.4129 20.6389 28.7012C20.0479 28.2763 19.5395 27.747 19.1389 27.1392C18.9921 26.8933 18.8656 26.6357 18.7609 26.3692C18.4419 25.703 18.304 24.9646 18.3609 24.2282C18.4721 23.3379 18.819 22.4934 19.3659 21.7822C19.5234 21.5764 19.6923 21.3798 19.8719 21.1932C19.902 21.1731 19.9269 21.1461 19.9443 21.1145C19.9618 21.0828 19.9715 21.0474 19.9725 21.0113C19.9735 20.9751 19.9657 20.9392 19.95 20.9067C19.9342 20.8741 19.9109 20.8458 19.8819 20.8242C19.8309 20.7732 19.7929 20.7092 19.7389 20.6652C19.2936 20.2564 18.9354 19.7618 18.6859 19.2112C18.4852 18.8124 18.3662 18.3776 18.3359 17.9322C18.2818 17.4851 18.2818 17.0332 18.3359 16.5862C18.4113 16.1205 18.5395 15.6649 18.7179 15.2282C19.0245 14.4048 19.523 13.6664 20.1719 13.0742C20.718 12.537 21.4132 12.1767 22.1669 12.0402C22.4089 12.0022 22.6509 11.9402 22.8919 11.9102C23.4864 11.8996 24.0783 11.9909 24.6419 12.1802C24.7098 11.5114 24.9064 10.8622 25.2209 10.2682C25.2769 10.1346 25.3473 10.0075 25.4309 9.88916C25.8799 9.15191 26.469 8.50981 27.1649 7.99916C27.663 7.69512 28.1771 7.41805 28.7049 7.16916C29.7266 6.70956 30.8697 6.59343 31.9629 6.83817C32.551 6.91923 33.116 7.12096 33.6225 7.43071C34.1289 7.74046 34.5659 8.15155 34.9059 8.63816C35.2569 9.21136 35.5408 9.82305 35.7519 10.4612C35.7709 10.5152 35.7969 10.5612 35.8279 10.6392C35.9619 10.6172 36.0859 10.5982 36.2099 10.5722C36.6401 10.4488 37.0795 10.3605 37.5239 10.3082C37.8968 10.317 38.266 10.3845 38.6179 10.5082C39.3727 10.7088 40.054 11.1218 40.5809 11.6982C40.9228 12.1153 41.2264 12.5625 41.4879 13.0342C42.0269 13.8731 42.3533 14.8307 42.4389 15.8242C42.5167 16.5265 42.4385 17.2374 42.2098 17.906C41.9811 18.5747 41.6076 19.1846 41.1159 19.6922C41.0399 19.7722 40.9759 19.8612 40.9249 19.9182C41.2719 20.2392 41.6089 20.5382 41.9329 20.8532C42.6676 21.5823 43.083 22.5731 43.0879 23.6082C43.0835 23.7384 43.0953 23.8688 43.1229 23.9962C43.1389 24.0401 43.1635 24.0804 43.1953 24.1148C43.2271 24.1491 43.2654 24.1768 43.3079 24.1962C43.4775 24.2749 43.6572 24.3294 43.8419 24.3582C44.4419 24.4382 45.0419 24.4952 45.6419 24.5682C45.9699 24.6092 46.2969 24.6832 46.6279 24.7052C47.7949 24.7852 48.9659 24.8612 50.1339 24.9052C50.8589 24.9342 51.5849 24.9242 52.3099 24.8952C53.2769 24.8502 54.2439 24.7772 55.2099 24.7042C55.7099 24.6662 56.2149 24.6122 56.7099 24.5392C57.2599 24.4532 57.8099 24.3322 58.3579 24.2302C58.7579 24.1572 59.1499 24.0802 59.5509 24.0302C59.8055 23.9803 60.0386 23.8536 60.2189 23.6672C61.3609 22.6872 62.5009 21.7042 63.6389 20.7182C64.1669 20.2572 64.6699 19.7672 65.2039 19.3122C65.9869 18.6442 66.7879 17.9952 67.5799 17.3332C67.9553 17.0212 68.3276 16.7052 68.6969 16.3852C68.7486 16.3229 68.7904 16.2531 68.8209 16.1782H68.4869C67.5739 16.1882 66.6579 16.2382 65.7479 16.1882C65.0104 16.1726 64.2766 16.0787 63.5589 15.9082C63.1589 15.7972 62.7379 15.7712 62.3309 15.6852C62.0656 15.6269 61.8041 15.5524 61.5479 15.4622C60.6649 15.1728 59.8021 14.8254 58.9649 14.4222C58.0765 13.9922 57.2261 13.4877 56.4229 12.9142C54.8778 11.7733 53.4904 10.433 52.2969 8.92816C51.6058 8.04671 50.9794 7.11627 50.4229 6.14417C49.9185 5.27571 49.4618 4.38037 49.0549 3.46216C48.9183 3.18093 48.8898 2.8593 48.9748 2.55841C49.0598 2.25752 49.2523 1.99835 49.5159 1.83016C49.8248 1.64619 50.147 1.48574 50.4799 1.35016C51.1189 1.10216 51.7679 0.873165 52.4209 0.663165C52.7579 0.555165 53.1149 0.510165 53.4639 0.431165C53.8519 0.342165 54.2429 0.243165 54.6319 0.148165C54.7016 0.128405 54.7729 0.114688 54.8449 0.107165C55.9449 0.0591646 57.0449 -0.0358354 58.1449 -0.0138354C58.9665 0.0145257 59.7839 0.11491 60.5879 0.286165C61.3549 0.442165 62.0959 0.731165 62.8529 0.929165C63.9065 1.26586 64.9116 1.73852 65.8429 2.33516C67.2372 3.16193 68.5151 4.17081 69.6429 5.33517C70.8195 6.51263 71.8707 7.80889 72.7799 9.20317C73.3019 9.98617 73.7799 10.8032 74.3009 11.6462C74.6889 11.3312 75.0869 11.0102 75.4879 10.6922C77.2213 9.30483 78.9583 7.91983 80.6989 6.53716C80.8838 6.41183 81.0788 6.30212 81.2819 6.20916C81.5966 6.07204 81.9521 6.06198 82.274 6.18109C82.596 6.3002 82.8593 6.53925 83.0089 6.84816C83.0855 7.08722 83.1062 7.34068 83.0692 7.58897C83.0323 7.83727 82.9388 8.07375 82.7959 8.28016C82.3775 8.68473 81.9252 9.05275 81.4439 9.38017C80.6106 10.0355 79.7826 10.6982 78.9599 11.3682C77.7699 12.3382 76.5799 13.3052 75.4059 14.2922C73.2869 16.0672 71.1779 17.8582 69.0629 19.6402C68.8339 19.8402 68.6019 20.0282 68.3689 20.2192C68.2099 20.3492 68.1909 20.4642 68.3629 20.6072C68.5993 20.7979 68.8257 21.0009 69.0409 21.2152C70.1465 22.2778 71.1333 23.4574 71.9839 24.7332C72.5569 25.6592 73.1039 26.6042 73.5909 27.5772C73.9842 28.4052 74.2859 29.2737 74.4909 30.1672C74.7566 31.1265 74.9334 32.1084 75.0189 33.1002C75.0729 34.0382 75.0129 34.9832 74.9899 35.9222C74.9899 36.1382 74.9259 36.3552 74.9229 36.5712C74.8615 37.345 74.7456 38.1136 74.5759 38.8712C74.471 39.4795 74.3209 40.0791 74.1269 40.6652C73.8204 41.6487 73.453 42.6122 73.0269 43.5502C72.6199 44.4502 72.1199 45.3062 71.6269 46.1682C71.4262 46.6025 71.0794 46.9525 70.6469 47.1572C70.4823 47.2342 70.3022 47.272 70.1205 47.2676C69.9388 47.2633 69.7607 47.2169 69.5999 47.1322C68.7943 46.6944 68.0362 46.1743 67.3379 45.5802C66.1952 44.6551 65.1705 43.5932 64.2869 42.4182C63.7012 41.6084 63.1831 40.7519 62.7379 39.8572C62.3459 39.089 62.0275 38.2854 61.7869 37.4572C61.6409 36.9672 61.4779 36.4802 61.3229 35.9902C61.3117 35.9635 61.3033 35.9356 61.2979 35.9072C61.2309 35.3502 61.1639 34.7942 61.0979 34.2372C61.0414 33.9246 61.002 33.6091 60.9799 33.2922C60.9799 32.6272 61.0089 31.9622 61.0309 31.2972C61.0309 31.1822 61.0719 31.0712 61.0819 30.9572C61.1579 30.2572 61.1819 29.5412 61.3139 28.8512C61.4365 27.9995 61.6432 27.1621 61.9309 26.3512C61.9921 26.1525 62.0369 25.9491 62.0649 25.7432C61.9602 25.793 61.8598 25.8515 61.7649 25.9182C60.3109 27.1752 58.8649 28.4412 57.4069 29.6942C56.2069 30.7182 55.0179 31.7492 53.7929 32.7352C52.2255 33.9899 50.5762 35.1388 48.8559 36.1742C48.3789 36.4632 47.9239 36.7912 47.4309 37.0552C47.3158 37.1131 47.2176 37.1998 47.1457 37.3068C47.0739 37.4139 47.0309 37.5376 47.0209 37.6662C46.8779 38.6842 46.7599 39.7022 46.6039 40.7172C46.5399 41.1272 46.4129 41.5282 46.3149 41.9352C46.2389 42.2562 46.1589 42.5782 46.0889 42.8992C46.0089 43.2782 45.9489 43.6632 45.8629 44.0412C45.7769 44.4042 45.6629 44.7572 45.5629 45.1162C45.4959 45.3642 45.4449 45.6162 45.3719 45.8642C45.0159 47.0442 44.6629 48.2312 44.2869 49.4082C43.9869 50.3462 43.6539 51.2792 43.3259 52.2082C43.1959 52.5712 43.0459 52.9272 42.8899 53.2772C42.851 53.3471 42.8373 53.4283 42.8512 53.5071C42.865 53.586 42.9055 53.6576 42.9659 53.7102C43.389 54.178 43.6924 54.7414 43.8499 55.3522C43.9578 55.8147 44.0208 56.2865 44.0379 56.7612C44.0569 56.9422 44.0379 57.1302 44.0379 57.3612C44.4229 57.3612 44.7669 57.3612 45.1069 57.3612C45.7575 57.4021 46.3786 57.647 46.8819 58.0612C47.6405 58.5907 48.1899 59.369 48.4349 60.2612C48.6263 60.8182 48.7856 61.3858 48.9119 61.9612C49.0285 62.6476 49.0177 63.3497 48.8799 64.0322C48.7476 64.6224 48.5413 65.1936 48.2659 65.7322C47.9303 66.413 47.4071 66.9838 46.7579 67.3772C46.5729 67.4922 46.3919 67.6192 46.2049 67.7432C46.4559 68.1312 46.6919 68.4562 46.8829 68.8062C47.3302 69.6747 47.4842 70.6648 47.3219 71.6282C47.2162 72.241 46.9664 72.8199 46.5929 73.3172C46.1034 74.0734 45.5279 74.7704 44.8779 75.3942C44.5434 75.6863 44.1598 75.9169 43.7449 76.0752C43.4535 76.1918 43.1549 76.2897 42.8509 76.3682C42.6969 76.4116 42.5364 76.4268 42.3769 76.4132C41.4437 76.3639 40.5438 76.0504 39.7819 75.5092C39.7369 75.4712 39.6989 75.4262 39.6549 75.3942C39.4069 75.2162 39.3399 75.2192 39.1809 75.4802C38.9082 75.9135 38.5764 76.3066 38.1949 76.6482C37.8007 76.9847 37.3333 77.2244 36.8299 77.3482C36.0253 77.5536 35.1812 77.5471 34.3799 77.3292C33.6413 77.1494 32.9204 76.9034 32.2259 76.5942C31.8638 76.4215 31.5318 76.1916 31.2429 75.9132C30.4138 75.2056 29.8036 74.2762 29.4839 73.2342C29.3424 73.2196 29.2002 73.2123 29.0579 73.2122C28.4955 73.224 27.9365 73.1231 27.4137 72.9154C26.8909 72.7078 26.415 72.3976 26.0139 72.0032C25.1038 71.1689 24.3354 70.1922 23.7389 69.1112C23.4541 68.5755 23.279 67.9884 23.2239 67.3842C23.1977 67.0669 23.1891 66.7484 23.1979 66.4302C23.188 65.9096 23.2906 65.3931 23.4987 64.9159C23.7069 64.4386 24.0157 64.012 24.4039 63.6652C24.782 63.2507 25.2285 62.9043 25.7239 62.6412C25.9939 62.5232 26.0039 62.4212 25.8699 62.1642C25.7779 61.9862 25.6699 61.8142 25.5929 61.6302C25.175 60.7473 25.088 59.7437 25.3479 58.8022C25.4814 58.3318 25.6581 57.8749 25.8759 57.4372C26.274 56.8142 26.757 56.2498 27.3109 55.7602C27.6986 55.3975 28.1521 55.1124 28.6469 54.9202C28.9665 54.7902 29.3034 54.7077 29.6469 54.6752C30.0476 54.6217 30.4529 54.6109 30.8559 54.6432C31.5103 54.7183 32.1373 54.9483 32.6849 55.3142C32.7589 55.3498 32.8367 55.3766 32.9169 55.3942M18.2009 37.0432C18.1119 36.5982 18.0319 36.1492 17.9239 35.7072C17.8954 35.5641 17.8205 35.4344 17.7109 35.3382C17.1817 34.8922 16.5244 34.626 15.8339 34.5782C15.4322 34.5919 15.0327 34.6441 14.6409 34.7342C14.2169 34.8104 13.8126 34.9711 13.4518 35.2066C13.0911 35.4421 12.7813 35.7477 12.5409 36.1052C12.0722 36.7844 11.7594 37.5589 11.6249 38.3732C11.5988 38.5802 11.5135 38.7752 11.3792 38.9349C11.2449 39.0945 11.0674 39.212 10.8679 39.2732C10.5419 39.4022 10.1798 39.4067 9.85057 39.2859C9.52138 39.1651 9.24814 38.9275 9.08293 38.6182C8.91081 38.3706 8.71597 38.1396 8.50093 37.9282C8.20199 37.6144 7.81678 37.3962 7.39393 37.3012C7.0874 37.246 6.77179 37.2719 6.47835 37.3763C6.18491 37.4807 5.92382 37.6599 5.72093 37.8962C5.57193 38.0522 5.42092 38.2082 5.27592 38.3702C5.03683 38.613 4.86707 38.9154 4.78425 39.246C4.70143 39.5766 4.70858 39.9233 4.80493 40.2502C4.98412 40.8622 5.32754 41.4135 5.79793 41.8442C6.09596 42.0862 6.33357 42.3944 6.49193 42.7442C6.58785 43.0603 6.56277 43.4008 6.42157 43.6995C6.28036 43.9982 6.03313 44.2337 5.72793 44.3602C4.93065 44.555 4.17084 44.8797 3.47893 45.3212C3.13795 45.544 2.88493 45.8783 2.76309 46.267C2.64125 46.6556 2.65816 47.0746 2.81093 47.4522C3.28153 48.5835 4.04716 49.5677 5.02792 50.3022C5.22881 50.4573 5.47491 50.5426 5.72874 50.5449C5.98257 50.5473 6.23021 50.4666 6.43393 50.3152C6.60868 50.173 6.77249 50.0179 6.92393 49.8512C7.12163 49.5938 7.39941 49.4097 7.71342 49.3279C8.02743 49.246 8.35977 49.2711 8.65793 49.3992C8.98154 49.5645 9.22913 49.848 9.34939 50.1909C9.46966 50.5339 9.45338 50.9099 9.30392 51.2412C9.16894 51.5418 9.08707 51.8636 9.06193 52.1922C9.03161 52.4552 9.06656 52.7216 9.16371 52.9679C9.26086 53.2142 9.41721 53.4327 9.61893 53.6042C10.2087 54.1606 10.9529 54.5256 11.7539 54.6512C12.0686 54.7052 12.3902 54.7052 12.7049 54.6512C12.937 54.646 13.1604 54.5617 13.3379 54.4122C13.6033 54.0964 13.8093 53.7353 13.9459 53.3462C14.0563 52.9132 14.1204 52.4697 14.1369 52.0232C14.1765 51.7236 14.3152 51.4459 14.5308 51.2343C14.7464 51.0226 15.0267 50.8892 15.3269 50.8552C15.6002 50.8399 15.8726 50.8975 16.1163 51.0221C16.36 51.1466 16.5663 51.3337 16.7139 51.5642C17.1236 52.1286 17.6012 52.6404 18.1359 53.0882C18.311 53.2366 18.5167 53.3444 18.7384 53.4039C18.96 53.4634 19.1921 53.473 19.4179 53.4322C19.7809 53.3752 19.9709 53.1082 20.2179 52.9012C20.8165 52.3801 21.2766 51.7187 21.5569 50.9762C21.6464 50.7156 21.6386 50.4314 21.5349 50.1762C21.3363 49.6462 20.9963 49.1807 20.5519 48.8302C20.1669 48.5632 19.7979 48.2702 19.4069 48.0092C19.1558 47.8497 18.967 47.6089 18.872 47.327C18.777 47.0451 18.7816 46.7391 18.8849 46.4602C18.9575 46.2272 19.098 46.0212 19.2885 45.8687C19.479 45.7161 19.7107 45.624 19.9539 45.6042C20.6479 45.555 21.3244 45.3645 21.9419 45.0442C22.2644 44.8892 22.5498 44.6669 22.7789 44.3922C23.0755 43.705 23.2179 42.9612 23.1959 42.2132C23.1946 42.1833 23.1871 42.154 23.1739 42.1272C23.1199 41.9492 23.0739 41.7682 23.0089 41.5932C22.916 41.3095 22.8023 41.0331 22.6689 40.7662C22.5219 40.5153 22.3046 40.3129 22.0439 40.1841C21.7832 40.0552 21.4905 40.0056 21.2019 40.0412C20.6214 40.1532 20.0648 40.3654 19.5569 40.6682C19.3241 40.8184 19.0509 40.8938 18.7739 40.8842C18.5515 40.8566 18.3388 40.7763 18.1536 40.6499C17.9684 40.5236 17.8161 40.3548 17.7093 40.1577C17.6025 39.9606 17.5443 39.7409 17.5395 39.5168C17.5348 39.2926 17.5836 39.0706 17.6819 38.8692C17.9964 38.3097 18.1752 37.6843 18.2039 37.0432M25.9599 66.7502C25.9175 67.3608 26.1136 67.9641 26.5069 68.4332C26.7419 68.7262 26.9489 69.0332 27.1809 69.3332C27.4811 69.7166 27.8475 70.0431 28.2629 70.2972C28.4412 70.4044 28.6426 70.4672 28.8502 70.4804C29.0578 70.4936 29.2655 70.4569 29.4559 70.3732C29.8367 70.174 30.1699 69.895 30.4329 69.5552C30.6494 69.3221 30.943 69.1755 31.2593 69.1423C31.5756 69.1092 31.8932 69.1918 32.1533 69.3748C32.4134 69.5579 32.5983 69.829 32.6738 70.138C32.7493 70.4469 32.7103 70.7728 32.5639 71.0552C32.4109 71.3912 32.2884 71.7402 32.1979 72.0982C32.1289 72.3625 32.1421 72.6416 32.2359 72.8982C32.4839 73.4033 32.8789 73.8216 33.3689 74.0982C33.9712 74.4002 34.6098 74.6237 35.2689 74.7632C35.397 74.7745 35.5261 74.7592 35.6479 74.7182C35.7566 74.6814 35.8684 74.6546 35.9819 74.6382C36.1132 74.6336 36.2416 74.5978 36.3562 74.5336C36.4708 74.4694 36.5685 74.3788 36.6409 74.2692C36.9566 73.8739 37.1511 73.3956 37.2009 72.8922C37.2299 72.5042 37.3089 72.1222 37.3729 71.7372C37.3881 71.6673 37.4174 71.6013 37.4589 71.5432C37.5626 71.3473 37.7141 71.1808 37.8993 71.0592C38.0846 70.9376 38.2976 70.8648 38.5186 70.8477C38.7395 70.8305 38.9612 70.8695 39.1631 70.961C39.3649 71.0526 39.5403 71.1936 39.6729 71.3712C39.9209 71.6832 40.1879 71.9852 40.4459 72.2942C40.8028 72.7379 41.2448 73.1057 41.7459 73.3762C41.9261 73.4834 42.1344 73.5341 42.3437 73.5216C42.553 73.5091 42.7538 73.434 42.9199 73.3062C43.5345 72.8583 44.041 72.2785 44.4019 71.6092C44.5551 71.3659 44.6651 71.0979 44.7269 70.8172C44.7743 70.6059 44.7565 70.3852 44.6759 70.1842C44.5365 69.8882 44.3568 69.6129 44.1419 69.3662C43.7316 68.9052 43.2358 68.5282 42.6819 68.2562C42.514 68.1832 42.3633 68.0755 42.2398 67.9403C42.1164 67.805 42.0229 67.6452 41.9655 67.4713C41.9081 67.2974 41.888 67.1133 41.9067 66.9311C41.9254 66.749 41.9824 66.5728 42.0739 66.4142C42.1427 66.2569 42.2449 66.1165 42.3734 66.0027C42.5018 65.8889 42.6535 65.8045 42.8179 65.7552C43.2145 65.6742 43.6151 65.6138 44.0179 65.5742C44.6803 65.4959 45.2941 65.1872 45.7519 64.7022C46.1951 64.1871 46.4201 63.5195 46.3789 62.8412C46.3496 62.138 46.1521 61.4522 45.8029 60.8412C45.7457 60.6761 45.6556 60.5242 45.5381 60.3949C45.4207 60.2655 45.2782 60.1613 45.1193 60.0885C44.9605 60.0157 44.7885 59.9759 44.6138 59.9713C44.4391 59.9668 44.2654 59.9977 44.1029 60.0622C43.6436 60.1826 43.2026 60.3646 42.7919 60.6032C42.5735 60.7432 42.3189 60.8163 42.0595 60.8134C41.8001 60.8106 41.5472 60.7319 41.3319 60.5872C41.0525 60.3894 40.8531 60.0983 40.7697 59.7663C40.6862 59.4344 40.7243 59.0835 40.8769 58.7772C41.2554 58.0893 41.4132 57.3017 41.3289 56.5212C41.3156 56.1024 41.162 55.7003 40.8929 55.3792C40.6722 55.1234 40.4013 54.9158 40.097 54.769C39.7927 54.6223 39.4615 54.5396 39.1239 54.5262C38.7343 54.4875 38.3409 54.5308 37.9689 54.6532C37.648 54.72 37.3314 54.8061 37.0209 54.9112C36.5006 55.1914 36.049 55.5836 35.6987 56.0595C35.3483 56.5354 35.1079 57.0831 34.9949 57.6632C34.9367 58.0452 34.8154 58.4149 34.6359 58.7572C34.5273 58.9473 34.3715 59.1062 34.1837 59.2187C33.9958 59.3311 33.7822 59.3934 33.5633 59.3994C33.3444 59.4054 33.1277 59.355 32.9339 59.2531C32.7401 59.1511 32.5759 59.001 32.4569 58.8172C32.077 58.2742 31.5938 57.8114 31.0349 57.4552C30.7997 57.3117 30.5295 57.2358 30.2539 57.2358C29.9784 57.2358 29.7082 57.3117 29.4729 57.4552C28.7873 57.8026 28.2629 58.4023 28.0099 59.1282C27.8504 59.5809 27.8719 60.0779 28.0699 60.5152C28.3193 61.0424 28.6696 61.5156 29.1009 61.9082C29.415 62.1656 29.6443 62.5116 29.7589 62.9012C29.8049 63.1959 29.7484 63.4975 29.5991 63.7557C29.4497 64.0139 29.2163 64.2131 28.9379 64.3202C28.431 64.4802 27.933 64.6672 27.4459 64.8802C27.0168 65.1067 26.6109 65.3746 26.2339 65.6802C25.8969 65.9412 25.9479 66.3452 25.9539 66.7492M28.8429 27.5022H28.8269C28.8269 27.6322 28.8169 27.7632 28.8109 27.8932C28.7634 28.267 28.8463 28.6459 29.0456 28.9657C29.2449 29.2856 29.5484 29.527 29.9049 29.6492C30.6352 29.9711 31.4383 30.092 32.2309 29.9992C32.5328 29.9676 32.8269 29.8837 33.0999 29.7512C33.3254 29.6566 33.5149 29.4927 33.6409 29.2832C33.7897 28.9937 33.8792 28.6774 33.9043 28.3529C33.9294 28.0283 33.8895 27.7021 33.7869 27.3932C33.6151 26.9859 33.6116 26.5271 33.7769 26.1172C33.8513 25.9317 33.967 25.7657 34.1151 25.6317C34.2633 25.4976 34.44 25.3991 34.6319 25.3436C34.8239 25.288 35.0259 25.277 35.2227 25.3112C35.4196 25.3455 35.606 25.4241 35.7679 25.5412C36.3076 25.8927 36.8661 26.2145 37.4409 26.5052C37.8271 26.6982 38.2504 26.8057 38.6819 26.8202C38.8532 26.8332 39.0231 26.7823 39.1589 26.6772C39.3691 26.467 39.5528 26.2319 39.7059 25.9772C39.9535 25.479 40.1457 24.9552 40.2789 24.4152C40.4188 24.0965 40.4476 23.7401 40.3605 23.4031C40.2734 23.0661 40.0757 22.7682 39.7989 22.5572C39.3063 22.0744 38.6699 21.7651 37.9859 21.6762C37.7137 21.6579 37.4493 21.5775 37.2129 21.4412C37.0164 21.3194 36.8542 21.1494 36.742 20.9473C36.6298 20.7452 36.5712 20.5177 36.5718 20.2865C36.5724 20.0553 36.6322 19.8281 36.7455 19.6266C36.8587 19.425 37.0217 19.2559 37.2189 19.1352C37.6639 18.8842 38.1509 18.6932 38.5809 18.4132C38.9346 18.2339 39.231 17.9592 39.4367 17.6203C39.6424 17.2814 39.7492 16.8916 39.7449 16.4952C39.7497 16.0804 39.6962 15.667 39.5859 15.2672C39.4078 14.8786 39.1893 14.5099 38.9339 14.1672C38.7799 13.9241 38.602 13.697 38.4029 13.4892C38.2895 13.3469 38.137 13.241 37.964 13.1844C37.7911 13.1279 37.6054 13.1233 37.4299 13.1712C36.8566 13.3129 36.333 13.6089 35.9159 14.0272C35.6586 14.3185 35.3489 14.5589 35.0029 14.7362C34.6756 14.8477 34.3175 14.8249 34.0069 14.6729C33.6964 14.5209 33.4587 14.252 33.3459 13.9252C33.2711 13.7625 33.231 13.5859 33.2283 13.4069C33.2255 13.2278 33.2601 13.0501 33.3299 12.8852C33.3546 12.8015 33.3644 12.7142 33.3589 12.6272C33.3664 11.9775 33.2262 11.3347 32.9489 10.7472C32.8237 10.4235 32.6042 10.1448 32.3189 9.94716C31.9726 9.7206 31.5735 9.58745 31.1606 9.56064C30.7476 9.53384 30.3347 9.61428 29.9619 9.79416C29.5519 9.95616 29.1729 10.2112 28.7789 10.4142C28.3398 10.6631 27.99 11.0437 27.7789 11.5022C27.5157 12.0476 27.3583 12.6381 27.3149 13.2422C27.2594 13.5695 27.2692 13.9046 27.3439 14.2282C27.3947 14.4525 27.3893 14.6859 27.3284 14.9076C27.2675 15.1294 27.1529 15.3328 26.9948 15.4997C26.8366 15.6667 26.6397 15.7921 26.4216 15.8649C26.2034 15.9377 25.9707 15.9557 25.7439 15.9172C25.3412 15.8105 24.9751 15.5962 24.6849 15.2972C24.193 14.9229 23.6017 14.7017 22.9849 14.6612C22.8575 14.6601 22.7315 14.6875 22.6159 14.7412C22.1263 14.9142 21.7248 15.2736 21.4989 15.7412C21.1364 16.3355 20.9881 17.0359 21.0789 17.7262C21.1025 17.8484 21.1443 17.9664 21.2029 18.0762C21.6159 18.8052 22.2628 19.3735 23.0389 19.6892C23.2647 19.7661 23.4612 19.911 23.6013 20.104C23.7415 20.297 23.8186 20.5287 23.8219 20.7672C23.8619 21.0163 23.8288 21.2718 23.7265 21.5025C23.6243 21.7332 23.4574 21.9294 23.2459 22.0672C22.5884 22.4453 22.0044 22.9389 21.5219 23.5242C21.3738 23.6813 21.2621 23.8691 21.1945 24.0742C21.1269 24.2793 21.1052 24.4968 21.1309 24.7112C21.1968 25.036 21.3208 25.3463 21.4969 25.6272C22.1566 26.6504 23.1558 27.4085 24.3189 27.7682C24.4699 27.855 24.6387 27.9062 24.8124 27.9179C24.9862 27.9295 25.1603 27.9012 25.3215 27.8352C25.4826 27.7692 25.6265 27.6672 25.7422 27.537C25.8579 27.4069 25.9423 27.252 25.9889 27.0842C26.0889 26.8772 26.1889 26.6742 26.2819 26.4642C26.3868 26.1517 26.6107 25.8932 26.9051 25.7449C27.1994 25.5966 27.5404 25.5705 27.8539 25.6722C28.1514 25.7448 28.4139 25.9197 28.5954 26.1663C28.777 26.4129 28.866 26.7155 28.8469 27.0212C28.8358 27.18 28.8358 27.3394 28.8469 27.4982M69.7819 44.0092C69.8559 43.9142 69.9227 43.814 69.9819 43.7092C70.3349 42.9422 70.7199 42.1882 71.0249 41.4032C71.3831 40.6325 71.6561 39.8251 71.8389 38.9952C71.8869 38.6952 71.9539 38.4032 72.0199 38.1112C72.195 37.4443 72.2995 36.7609 72.3319 36.0722C72.3379 35.7672 72.3419 35.4612 72.3479 35.1562C72.4365 33.6706 72.2622 32.1811 71.8329 30.7562C71.5793 29.9013 71.2645 29.0658 70.8909 28.2562C70.4414 27.3474 69.9169 26.4778 69.3229 25.6562C68.4899 24.5711 67.5706 23.5552 66.5739 22.6182C66.5157 22.5794 66.4541 22.5459 66.3899 22.5182C66.1609 22.9762 65.9189 23.4022 65.7309 23.8482C65.3969 24.6372 65.0529 25.4232 64.7859 26.2312C64.5279 27.0072 64.3439 27.8092 64.1559 28.6042C63.9574 29.2853 63.8432 29.9882 63.8159 30.6972C63.8107 30.7978 63.799 30.898 63.7809 30.9972C63.7429 31.3562 63.6889 31.7132 63.6699 32.0692C63.6509 32.4482 63.6639 32.8232 63.6699 33.2022C63.6746 33.3322 63.6872 33.4617 63.7079 33.5902C63.7459 33.8762 63.7969 34.1592 63.8349 34.4462C63.8599 34.6022 63.8569 34.7642 63.8919 34.9202C64.0638 35.7095 64.2849 36.4874 64.5539 37.2492C64.863 38.1395 65.2695 38.993 65.7659 39.7942C66.7853 41.4721 68.1552 42.9099 69.7819 44.0092M71.7319 12.9032C71.6768 12.758 71.614 12.6158 71.5439 12.4772C71.3309 12.1182 71.1019 11.7712 70.8919 11.4082C69.9035 9.71781 68.6693 8.18372 67.2299 6.85616C65.8886 5.55846 64.3278 4.50888 62.6199 3.75616C61.8074 3.42357 60.9663 3.16583 60.1069 2.98616C59.3157 2.82461 58.5134 2.72265 57.7069 2.68116C57.0126 2.66078 56.3178 2.69925 55.6299 2.79616C54.6717 2.89687 53.7282 3.10725 52.8179 3.42316C52.5919 3.49916 52.2829 3.48316 52.1339 3.79216C52.3689 4.23416 52.5829 4.70216 52.8559 5.13416C53.7024 6.51704 54.7024 7.79984 55.8369 8.95817C56.7343 9.87295 57.742 10.6724 58.8369 11.3382C59.4046 11.6696 59.9898 11.9701 60.5899 12.2382C61.3452 12.5959 62.1395 12.8644 62.9569 13.0382C63.4683 13.1825 63.9908 13.2845 64.5189 13.3432C64.6356 13.3511 64.7515 13.3672 64.8659 13.3912C65.1303 13.4455 65.3973 13.4859 65.6659 13.5122C66.1999 13.5342 66.7379 13.5312 67.2759 13.5252C67.7102 13.5268 68.1442 13.5044 68.5759 13.4582C69.1759 13.3852 69.7689 13.2672 70.3639 13.1582C70.7999 13.0822 71.2359 12.9962 71.7379 12.9002" fill="#F5F5F5"/>
<path d="M14.892 45.6731C14.892 46.5001 14.905 47.2831 14.892 48.0651C14.8987 48.3169 14.8342 48.5653 14.7059 48.782C14.5777 48.9987 14.3909 49.1749 14.167 49.2901C14.0146 49.3805 13.8454 49.439 13.6697 49.4619C13.494 49.4849 13.3155 49.4719 13.145 49.4237C12.9745 49.3755 12.8156 49.2932 12.6779 49.1817C12.5402 49.0702 12.4266 48.9319 12.344 48.7751C12.2042 48.5376 12.1368 48.2644 12.15 47.9891C12.166 47.3691 12.144 46.7421 12.16 46.1181C12.1725 46.0177 12.148 45.9162 12.0911 45.8325C12.0343 45.7488 11.9489 45.6886 11.851 45.6631C11.451 45.5291 11.04 45.3991 10.626 45.2911C10.3721 45.215 10.1443 45.07 9.96782 44.8724C9.79131 44.6747 9.67299 44.432 9.62599 44.1711C9.57776 43.8759 9.63226 43.5731 9.78041 43.3132C9.92855 43.0533 10.1614 42.8521 10.44 42.7431C10.8248 42.601 11.2484 42.6056 11.63 42.7561C12.12 42.9151 12.607 43.0901 13.103 43.2301C13.5205 43.2847 13.9444 43.2034 14.312 42.9981C14.862 42.8041 15.4 42.5751 15.95 42.3811C16.2026 42.3305 16.4643 42.3497 16.7069 42.4366C16.9495 42.5234 17.1639 42.6747 17.327 42.8741C17.5392 43.1216 17.6499 43.4402 17.6369 43.7659C17.6239 44.0916 17.4882 44.4003 17.257 44.6301C17.0492 44.8276 16.8002 44.9765 16.528 45.0661C16.003 45.2861 15.465 45.4661 14.896 45.6741" fill="#F5F5F5"/>
<path d="M38.294 65.6572V66.1212C38.294 66.8022 38.304 67.4832 38.294 68.1632C38.2998 68.3968 38.2391 68.6273 38.1191 68.8279C37.9991 69.0284 37.8246 69.1908 37.616 69.2962C37.4508 69.3931 37.2669 69.4534 37.0764 69.4732C36.886 69.4929 36.6936 69.4716 36.5121 69.4107C36.3306 69.3497 36.1643 69.2506 36.0243 69.1199C35.8844 68.9892 35.7742 68.8301 35.701 68.6532C35.5979 68.4032 35.5482 68.1345 35.555 67.8642C35.561 67.1832 35.555 66.5022 35.555 65.7712C35.173 65.6472 34.795 65.5322 34.426 65.3992C34.1446 65.3111 33.8737 65.1928 33.618 65.0462C33.3732 64.8955 33.1898 64.6628 33.1006 64.3895C33.0115 64.1163 33.0222 63.8202 33.131 63.5542C33.1755 63.3841 33.2537 63.2248 33.361 63.0856C33.4682 62.9464 33.6024 62.8301 33.7554 62.7438C33.9085 62.6574 34.0773 62.6026 34.252 62.5828C34.4266 62.5629 34.6034 62.5784 34.772 62.6282C35.141 62.7462 35.51 62.8602 35.882 62.9722C36.156 63.0552 36.426 63.1442 36.703 63.2072C37.0785 63.2321 37.4531 63.147 37.781 62.9622C38.35 62.7682 38.901 62.5132 39.473 62.3192C39.7875 62.2512 40.1157 62.2937 40.4026 62.4394C40.6894 62.5851 40.9173 62.8251 41.048 63.1192C41.1507 63.3468 41.185 63.5995 41.1467 63.8463C41.1083 64.0931 40.999 64.3234 40.832 64.5092C40.7333 64.6493 40.5995 64.7611 40.444 64.8332C39.76 65.1102 39.063 65.3612 38.297 65.6512" fill="#F5F5F5"/>
<path d="M29.3549 22.2243C29.3549 21.8613 29.3549 21.4993 29.3549 21.1363C29.3549 20.7733 29.2718 20.7033 28.9318 20.5953C28.4398 20.4523 27.9564 20.2814 27.4838 20.0833C27.2684 19.9836 27.0889 19.8199 26.9699 19.6144C26.8509 19.409 26.7981 19.1719 26.8189 18.9353C26.8062 18.6707 26.8783 18.4089 27.0247 18.188C27.1711 17.9671 27.3842 17.7988 27.6328 17.7073C28.0652 17.5792 28.528 17.6003 28.9469 17.7673C29.3889 17.9263 29.8308 18.0823 30.2858 18.2033C30.7271 18.2771 31.1803 18.1985 31.5709 17.9803C32.1119 17.7573 32.6559 17.5413 33.2089 17.3633C33.5213 17.3046 33.8443 17.3462 34.1317 17.4822C34.4191 17.6181 34.6561 17.8415 34.8089 18.1203C34.9338 18.4443 34.9348 18.803 34.8115 19.1277C34.6882 19.4523 34.4494 19.72 34.1409 19.8793C33.6859 20.0793 33.2148 20.2383 32.7508 20.4173C32.5788 20.4843 32.3978 20.5323 32.2318 20.6173C32.0318 20.7173 32.0318 20.9173 32.0248 21.1073C32.0248 21.6453 32.0248 22.1793 32.0248 22.7173C32.0248 22.9623 32.0119 23.2103 31.9869 23.4553C31.9626 23.6845 31.868 23.9005 31.7159 24.0737C31.5639 24.2468 31.3619 24.3686 31.1379 24.4223C30.8294 24.5474 30.4846 24.5487 30.1752 24.4259C29.8658 24.3032 29.6157 24.0659 29.4769 23.7633C29.4122 23.6369 29.3753 23.4982 29.3689 23.3563C29.3529 22.9813 29.3629 22.6023 29.3629 22.2273L29.3549 22.2243Z" fill="#F5F5F5"/>
</g>
<defs>
<clipPath id="clip0_2200_655">
<rect width="83.1" height="77.504" fill="white"/>
</clipPath>
</defs>
</svg>
