<svg width="81" height="76" viewBox="0 0 81 76" fill="none" xmlns="http://www.w3.org/2000/svg">
<g clip-path="url(#clip0_2200_661)">
<path d="M62.4669 47.1958C62.5349 47.7628 62.6129 48.2838 62.6519 48.8078C62.6979 49.4288 62.7299 50.0488 62.7229 50.6698C62.702 50.9162 62.6276 51.1551 62.5049 51.3698C62.4533 51.4659 62.4324 51.5756 62.4451 51.6839C62.4578 51.7923 62.5034 51.8942 62.5759 51.9758C62.9822 52.5897 63.2925 53.2622 63.4959 53.9698C63.605 54.2612 63.6091 54.5815 63.5076 54.8757C63.4062 55.1699 63.2054 55.4195 62.9399 55.5818C62.6759 55.7458 62.6579 55.8278 62.8399 56.1028C63.5821 57.2192 64.5545 58.1641 65.6919 58.8738C66.0518 59.047 66.3458 59.3323 66.5299 59.6868C66.6488 59.9604 66.663 60.2682 66.5697 60.5516C66.4764 60.8351 66.2821 61.0743 66.0239 61.2238C65.6938 61.4127 65.3329 61.5421 64.9579 61.6058C64.5049 61.6948 64.0739 61.8908 63.6209 61.9628C62.9002 62.0779 62.1738 62.154 61.4449 62.1908C60.5929 62.2268 59.7369 62.2048 58.8809 62.1908C57.9667 62.1679 57.0647 61.9767 56.2199 61.6268C55.7199 61.4268 55.2069 61.2488 54.6609 61.0458C54.6399 61.0748 54.5969 61.1278 54.5539 61.1888C54.362 61.5002 54.0577 61.7258 53.7039 61.8189C53.3502 61.912 52.9742 61.8654 52.6539 61.6888C52.1299 61.4538 51.5949 61.2428 51.0599 61.0328C50.8779 60.9578 50.7679 61.0648 50.6859 61.2148C50.4859 61.5788 50.3009 61.9458 50.0939 62.3028C49.5531 63.2312 48.9437 64.118 48.2709 64.9558C47.6202 65.7226 46.9296 66.4546 46.2019 67.1488C46.0728 67.2769 45.9264 67.3863 45.7669 67.4738C45.5551 67.6247 45.2929 67.6871 45.0358 67.6479C44.7787 67.6087 44.547 67.4709 44.3899 67.2638C43.9439 66.8638 43.5339 66.4218 43.1099 66.0008C43.0349 65.9298 42.9599 65.8548 42.8779 65.7908C42.6349 65.5978 42.5569 65.5978 42.3319 65.8048C41.9219 66.1788 41.5149 66.5578 41.1229 66.9428C40.2136 67.8128 39.2328 68.6049 38.1909 69.3108C37.2011 70.0136 36.1537 70.6314 35.0599 71.1578C34.4889 71.4218 33.9329 71.7248 33.3599 71.9928C33.0849 72.1208 32.7929 72.2068 32.5109 72.3138C32.0439 72.4848 31.5769 72.6668 31.1109 72.8308C30.8649 72.9168 30.6109 72.9838 30.3619 73.0488C30.0691 73.1445 29.7677 73.2115 29.4619 73.2488C28.9116 73.3317 28.3672 73.4496 27.8319 73.6018C27.4308 73.6529 27.0272 73.6827 26.6229 73.6908C25.9559 73.7338 25.2929 73.8188 24.6229 73.8118C23.6229 73.7938 22.6329 73.7338 21.6409 73.6438C21.2289 73.5729 20.8225 73.4727 20.4249 73.3438C20.3639 73.3258 20.3069 73.2978 20.2499 73.2868C19.7759 73.2088 19.2979 73.1618 18.8339 73.0548C18.1739 72.9018 17.5179 72.7198 17.2999 71.9738C16.9359 71.8138 16.6829 72.0848 16.3869 72.1488C16.0003 72.2363 15.6219 72.3567 15.2559 72.5088C14.8559 72.6728 14.4209 72.6088 14.0399 72.7338C13.5123 72.8552 12.9722 72.9139 12.4309 72.9088C12.2309 72.9228 12.0239 72.8978 11.8209 72.9088C11.6594 72.9076 11.5002 72.8711 11.3542 72.8021C11.2083 72.733 11.0792 72.6329 10.9759 72.5088C10.8268 72.3433 10.7303 72.1373 10.6986 71.9168C10.6669 71.6964 10.7015 71.4715 10.7979 71.2708C10.8619 71.1208 10.8979 70.9608 10.9589 70.7648C10.6065 70.7053 10.2449 70.7348 9.90689 70.8508C9.30689 71.0858 8.69389 71.2858 8.08089 71.4788C7.54721 71.6814 7.0277 71.9196 6.52588 72.1918C5.67103 72.6226 4.85383 73.1243 4.08289 73.6918C3.65489 73.9918 3.27389 74.3518 2.87789 74.6918C2.62489 74.9098 2.38888 75.1518 2.13588 75.3658C1.86747 75.5694 1.53285 75.6657 1.19728 75.6359C0.861713 75.6061 0.549273 75.4524 0.320894 75.2048C0.145762 74.931 0.0451043 74.6163 0.0288867 74.2918C-0.00311335 72.8918 -0.0101133 71.4918 0.0288867 70.0918C0.0774111 69.5009 0.165273 68.9139 0.291887 68.3348C0.391887 67.7108 0.501884 67.0828 0.616884 66.4588C0.667307 66.2011 0.731744 65.9464 0.809893 65.6958C0.973893 65.1568 1.16988 64.6258 1.32388 64.0798C1.64287 63.0451 2.05975 62.0433 2.56888 61.0878C2.76188 60.7058 3.05389 60.3778 3.26889 60.0068C3.69896 59.3566 4.17202 58.7359 4.68489 58.1488C4.92981 57.863 5.19196 57.5925 5.46988 57.3388C5.44198 57.2298 5.38576 57.1301 5.3069 57.0498C5.22805 56.9696 5.12938 56.9116 5.02089 56.8818C4.67741 56.7773 4.38353 56.5516 4.19388 56.2468C4.09303 56.0703 4.04 55.8705 4.04 55.6673C4.04 55.464 4.09303 55.2643 4.19388 55.0878C4.27831 54.9248 4.37881 54.7707 4.49388 54.6278C5.09388 53.8178 5.70988 53.0158 6.31288 52.2028C6.59488 51.8208 6.86188 51.4288 7.12288 51.0328C7.28288 50.7898 7.21189 50.6328 6.93689 50.4868C6.57672 50.3148 6.23093 50.1141 5.90288 49.8868C5.74424 49.7762 5.61468 49.629 5.52521 49.4575C5.43574 49.2861 5.38901 49.0956 5.38901 48.9023C5.38901 48.7089 5.43574 48.5184 5.52521 48.347C5.61468 48.1756 5.74424 48.0283 5.90288 47.9178C6.77688 47.1978 7.64389 46.4698 8.51389 45.7418C8.66389 45.6168 8.81389 45.4918 8.95989 45.3678L8.90689 45.2498C8.66811 45.2324 8.42829 45.2348 8.18988 45.2568C7.82305 45.322 7.4617 45.415 7.10889 45.5348C6.82615 45.6203 6.52275 45.6076 6.24817 45.4987C5.97359 45.3897 5.74401 45.1909 5.59688 44.9348C5.49139 44.7365 5.43622 44.5154 5.43622 44.2908C5.43622 44.0662 5.49139 43.845 5.59688 43.6468C5.87888 43.1048 6.18889 42.5768 6.50989 42.0598C6.70989 41.7348 6.96289 41.4358 7.19489 41.1258C7.95873 40.052 8.85365 39.0778 9.85889 38.2258C10.8623 37.3713 12.0113 36.7044 13.2509 36.2568C13.6509 36.1208 13.6719 36.0568 13.5509 35.6438C13.5222 35.4304 13.5506 35.2133 13.6334 35.0146C13.7162 34.8158 13.8502 34.6427 14.0219 34.5128C14.4088 34.2908 14.8077 34.0905 15.2169 33.9128C15.6739 33.6988 16.1339 33.5028 16.6259 33.2888C16.5949 33.1114 16.5522 32.9364 16.4979 32.7648C16.4356 32.616 16.4034 32.4564 16.4032 32.2952C16.4031 32.1339 16.435 31.9742 16.497 31.8254C16.5591 31.6765 16.6501 31.5415 16.7647 31.4281C16.8794 31.3147 17.0154 31.2252 17.1649 31.1648C17.422 31.0665 17.691 31.003 17.9649 30.9758C18.4649 30.9048 18.9489 30.7658 19.4449 30.6618C19.7909 30.5908 20.1449 30.5188 20.4899 30.4618C20.9609 30.3798 21.4349 30.2908 21.9099 30.2298C22.1419 30.2008 22.2559 30.1048 22.2339 29.8728C22.2244 29.6878 22.1983 29.5041 22.1559 29.3238C22.0779 29.0701 22.0798 28.7985 22.1614 28.5459C22.243 28.2933 22.4002 28.0719 22.6119 27.9118C22.8298 27.7305 23.1106 27.6431 23.3929 27.6688C24.2022 27.6934 25.0119 27.7148 25.8219 27.7328C25.9219 27.7328 26.0319 27.7188 26.2069 27.7038C26.1389 27.4328 26.0819 27.2038 26.0249 26.9658C25.902 26.5847 25.8077 26.1949 25.7429 25.7998C25.7335 25.512 25.8254 25.2301 26.0027 25.0033C26.18 24.7764 26.4314 24.6191 26.7129 24.5588C26.9659 24.4978 27.2129 24.4158 27.5129 24.3238C27.4519 24.0458 27.3989 23.7958 27.3419 23.5428C27.3349 23.4998 27.3099 23.4568 27.3029 23.4108C27.2279 22.7798 27.1389 22.1478 27.0779 21.5168C27.0227 21.0377 26.994 20.556 26.9919 20.0738C27.0099 19.2958 27.0449 18.5188 27.1199 17.7448C27.1589 17.3348 27.3339 16.9348 27.3879 16.5248C27.4848 15.9623 27.6465 15.413 27.8699 14.8878C28.6198 12.9195 29.8452 11.1674 31.4369 9.78777C31.5488 9.68726 31.6832 9.61522 31.8289 9.57777C31.9581 9.54547 32.0742 9.47388 32.1611 9.37287C32.2479 9.27186 32.3013 9.14639 32.3139 9.01377C32.4805 8.22831 32.7743 7.47538 33.1839 6.78477C33.2941 6.59638 33.4555 6.44311 33.6493 6.34275C33.8431 6.24239 34.0614 6.19905 34.2789 6.21777C34.9459 6.23177 34.9099 6.21077 35.0789 5.54677C35.2206 4.98686 35.2676 4.40718 35.2179 3.83177C35.1569 3.17177 35.0289 2.51577 34.9179 1.85577C34.7986 1.45079 34.8342 1.01591 35.0179 0.635766C35.1761 0.369769 35.4256 0.170306 35.7199 0.0744717C36.0142 -0.0213622 36.3333 -0.00704272 36.6179 0.114766C37.7302 0.688515 38.7787 1.37836 39.7459 2.17277C40.4216 2.71959 41.0625 3.30807 41.6649 3.93477C42.5793 4.90617 43.3188 6.02837 43.8509 7.25177C43.9509 7.49077 44.0579 7.72277 44.1609 7.96477C44.8239 7.62977 45.4659 7.29377 46.1189 6.97677C46.8194 6.58846 47.5563 6.2696 48.3189 6.02477C48.7329 5.91077 49.1249 5.71777 49.5349 5.58977C49.9269 5.46877 50.3269 5.37577 50.7259 5.28277C51.0719 5.20077 51.4179 5.13277 51.7639 5.06177C52.0169 5.00477 52.2709 4.94377 52.5269 4.89777C54.5501 4.64307 56.594 4.59515 58.6269 4.75477C59.1642 4.75966 59.6966 4.85848 60.1999 5.04677C60.5069 5.14766 60.8221 5.22161 61.1419 5.26777C61.5419 5.34577 61.9589 5.39577 62.3619 5.48177C62.5349 5.52638 62.6961 5.60819 62.8343 5.72149C62.9724 5.83478 63.0842 5.97684 63.1619 6.13777C63.3899 6.52977 63.4969 6.58677 63.8969 6.41277C64.5229 6.15062 65.1758 5.95813 65.8439 5.83877C66.2509 5.75677 66.6439 5.62477 67.0439 5.52177C67.1508 5.4997 67.2598 5.48998 67.3689 5.49277C67.8359 5.48577 68.3029 5.47477 68.7689 5.47877C68.954 5.48265 69.1357 5.52888 69.3002 5.6139C69.4646 5.69893 69.6074 5.8205 69.7175 5.96928C69.8277 6.11806 69.9023 6.2901 69.9357 6.47219C69.969 6.65429 69.9602 6.8416 69.9099 7.01977C69.8619 7.1351 69.8202 7.25294 69.7849 7.37277C69.7738 7.5249 69.7738 7.67763 69.7849 7.82977C70.0349 7.75177 70.2199 7.69077 70.4059 7.64077C71.1409 7.44077 71.8539 7.20177 72.5709 6.94077C73.3589 6.65177 74.0759 6.24077 74.8249 5.88177C75.2159 5.67851 75.5924 5.44863 75.9519 5.19377C76.7512 4.63032 77.5091 4.0104 78.2199 3.33877C78.4225 3.13179 78.6651 2.96815 78.9329 2.85777C79.2063 2.76156 79.5044 2.76156 79.7779 2.85777C80.0424 2.96698 80.2674 3.1542 80.4228 3.39449C80.5782 3.63478 80.6567 3.91673 80.6479 4.20277C80.6549 5.58977 80.6799 6.97777 80.6339 8.36177C80.5725 8.99266 80.4723 9.61918 80.3339 10.2378C80.3089 10.3908 80.3159 10.5478 80.2909 10.7018C80.2519 10.9268 80.1909 11.1478 80.1449 11.3728C80.1272 11.4312 80.1128 11.4907 80.1019 11.5508C80.0168 12.3016 79.8333 13.0379 79.5559 13.7408C79.3959 14.1898 79.2809 14.6578 79.1209 15.1068C78.7167 16.2157 78.189 17.2757 77.5479 18.2668C76.9373 19.2257 76.2126 20.1072 75.3899 20.8918C75.3039 20.9738 75.2219 21.0628 75.1119 21.1808C75.3899 21.3488 75.6469 21.4948 75.8929 21.6548C76.0713 21.7429 76.2267 21.8714 76.3466 22.0302C76.4666 22.1889 76.5478 22.3735 76.5838 22.5692C76.6198 22.7649 76.6097 22.9663 76.5541 23.1574C76.4986 23.3484 76.3992 23.5239 76.2639 23.6698C75.5829 24.6188 74.8909 25.5528 74.2029 26.4948C73.9929 26.7798 73.7749 27.0588 73.5719 27.3468C73.3799 27.6178 73.4079 27.7468 73.6859 27.9028C73.9249 28.0388 74.1709 28.1628 74.4169 28.2808C74.6325 28.355 74.8242 28.4857 74.9722 28.6592C75.1201 28.8327 75.2189 29.0426 75.2582 29.2672C75.2975 29.4918 75.2759 29.7228 75.1956 29.9363C75.1154 30.1497 74.9794 30.3377 74.8019 30.4808C73.7609 31.3868 72.6939 32.2608 71.6419 33.1518C70.6749 33.9718 69.7159 34.7998 68.7489 35.6238C68.5849 35.7628 68.4029 35.8808 68.2429 36.0238C67.9859 36.2588 67.9759 36.2838 68.1999 36.5378C68.4849 36.8588 68.7999 37.1478 69.0879 37.4688C69.394 37.7212 69.6504 38.0284 69.8439 38.3748C69.9683 38.6375 69.9935 38.9364 69.9148 39.2163C69.8362 39.4962 69.6589 39.7383 69.4159 39.8978C68.9159 40.2118 68.3849 40.4648 67.8609 40.7358C66.9909 41.1851 66.1172 41.6298 65.2399 42.0698C64.7979 42.2908 64.3399 42.4908 63.8949 42.7048C63.8143 42.7459 63.7379 42.7948 63.6669 42.8508C63.4349 43.0258 63.4239 43.1178 63.6599 43.3038C63.9349 43.5218 64.2339 43.7178 64.5199 43.9208L65.4939 44.6268C65.6291 44.7164 65.7391 44.8392 65.8133 44.9835C65.8875 45.1278 65.9235 45.2886 65.9179 45.4508C65.9457 45.6271 65.936 45.8074 65.8893 45.9797C65.8426 46.1521 65.76 46.3126 65.6469 46.4508C65.4654 46.6383 65.2297 46.7643 64.9729 46.8108C64.3949 46.9038 63.8279 47.0318 63.2499 47.1358C63.0249 47.1748 62.7899 47.1788 62.4799 47.2068M51.2609 33.4828C51.6249 33.5828 51.9319 33.6468 52.2239 33.7538C53.2511 34.1132 54.2365 34.5826 55.1629 35.1538C55.3349 35.2339 55.487 35.351 55.6085 35.4968C55.73 35.6426 55.8177 35.8134 55.8655 35.997C55.9133 36.1807 55.9199 36.3726 55.8848 36.5591C55.8498 36.7455 55.774 36.922 55.6629 37.0758C55.6019 37.1648 55.5519 37.2608 55.4989 37.3538C55.2809 37.7248 55.2889 37.7538 55.6339 37.9998C55.9089 38.1928 56.1899 38.3738 56.4649 38.5638C57.6446 39.3871 58.7088 40.3648 59.6289 41.4708C59.9109 41.8028 59.9789 41.8308 60.3779 41.6418C61.4269 41.1358 62.4779 40.6328 63.5169 40.1158C64.3979 39.6768 65.2649 39.2158 66.1379 38.7678C66.4589 38.6038 66.4909 38.4288 66.2379 38.1758C65.8812 37.8191 65.5246 37.4588 65.1679 37.0948C64.9682 36.8999 64.8475 36.6382 64.8289 36.3598C64.7988 36.1229 64.8326 35.8824 64.9266 35.663C65.0207 35.4436 65.1716 35.2533 65.3639 35.1118C66.3799 34.2738 67.3749 33.4118 68.3879 32.5658C69.1159 31.9558 69.8649 31.3748 70.5809 30.7508C70.9758 30.4708 71.3218 30.1275 71.6049 29.7348C71.3199 29.5778 71.0519 29.4528 70.8129 29.2888C70.6352 29.2049 70.4795 29.0809 70.3581 28.9265C70.2367 28.772 70.153 28.5915 70.1135 28.399C70.074 28.2066 70.0799 28.0076 70.1306 27.8179C70.1814 27.6281 70.2756 27.4528 70.4059 27.3058C70.8869 26.5958 71.4299 25.9288 71.9359 25.2408C72.3359 24.7018 72.7359 24.1568 73.1239 23.6108C73.3309 23.3188 73.2919 23.1968 72.9889 23.0438C72.6859 22.8908 72.4179 22.7438 72.1329 22.5838C71.9443 22.4871 71.7832 22.3443 71.6646 22.1687C71.546 21.9931 71.4737 21.7904 71.4544 21.5794C71.4352 21.3683 71.4696 21.1559 71.5545 20.9617C71.6393 20.7675 71.7719 20.598 71.9399 20.4688C72.2399 20.2508 72.5249 20.0198 72.8099 19.7838C73.8832 18.8952 74.8058 17.8389 75.5419 16.6558C76.3003 15.3882 76.8845 14.0243 77.2789 12.6008C77.4771 11.8543 77.6376 11.0984 77.7599 10.3358C77.8489 9.89377 77.8949 9.44377 77.9989 9.00577C78.1048 8.28692 78.1443 7.55985 78.1169 6.83377C77.9884 6.88255 77.8643 6.9421 77.7459 7.01177C76.9094 7.59729 76.0347 8.12647 75.1279 8.59577C74.726 8.81954 74.3101 9.01728 73.8829 9.18777C73.3369 9.40177 72.7739 9.57677 72.2139 9.76577C71.9999 9.83677 71.7899 9.92277 71.5719 9.97577C71.1979 10.0648 70.8159 10.1188 70.4489 10.2218C69.7699 10.4434 69.0628 10.567 68.3489 10.5888C68.1489 10.5888 67.9429 10.6498 67.7489 10.6348C67.4265 10.6366 67.106 10.5859 66.7999 10.4848C66.5632 10.3793 66.3711 10.194 66.2571 9.96139C66.1431 9.72874 66.1143 9.46344 66.1759 9.21177C66.2264 8.93802 66.2932 8.66754 66.3759 8.40177C66.2904 8.37603 66.2009 8.36654 66.1119 8.37377C65.8589 8.44177 65.6119 8.55177 65.3589 8.60877C64.5796 8.8269 63.8263 9.12866 63.1119 9.50877C62.5229 9.78377 61.9739 10.1468 61.3959 10.4538C61.1776 10.5914 60.9213 10.6566 60.6638 10.6399C60.4063 10.6232 60.1606 10.5255 59.9619 10.3608C59.7804 10.2096 59.6454 10.01 59.5729 9.78517C59.5003 9.56035 59.493 9.31955 59.5519 9.09076C59.6221 8.76297 59.7476 8.44951 59.9229 8.16377C60.1329 7.80677 59.9839 7.41077 59.5059 7.44677C59.3367 7.47749 59.1624 7.46406 58.9999 7.40777C58.6496 7.2809 58.2766 7.22878 57.9049 7.25477C57.332 7.29856 56.7557 7.25267 56.1969 7.11877C56.0752 7.09594 55.95 7.09969 55.8299 7.12977C55.5589 7.18249 55.2851 7.21955 55.0099 7.24077C54.0056 7.22042 53.0038 7.34641 52.0359 7.61477C51.4049 7.80777 50.7449 7.90677 50.0989 8.04977C50.0249 8.07262 49.9532 8.10242 49.8849 8.13877C49.3179 8.37377 48.7469 8.60977 48.1849 8.85177C47.7459 9.03377 47.3079 9.21877 46.8719 9.41177C46.5079 9.57177 46.4579 9.70377 46.5829 10.0828C46.6609 10.3148 46.7329 10.5468 46.8289 10.7708C47.0389 11.2628 47.0459 11.2598 47.5639 11.1308C47.6419 11.1098 47.7169 11.0948 47.7919 11.0808C48.1364 11.0296 48.4874 11.1129 48.7722 11.3134C49.057 11.5139 49.2538 11.8162 49.3219 12.1578C49.3829 12.6578 49.4679 13.1578 49.5469 13.6628C49.5539 13.7088 49.5759 13.7518 49.5859 13.7988C49.6859 14.2158 49.8039 14.6298 49.8779 15.0538C49.9709 15.5678 50.0239 16.0878 50.0989 16.6048C50.1449 16.9048 50.3419 17.0578 50.5769 16.9258C50.8635 16.8031 51.1776 16.7589 51.4869 16.7978C51.7787 16.8043 52.0571 16.9217 52.2657 17.1259C52.4742 17.3302 52.5973 17.6061 52.6099 17.8978C52.6239 18.7978 52.5989 19.6978 52.5889 20.6048V21.2578C52.7279 21.2578 52.8279 21.2868 52.8779 21.2508C53.2488 21.0506 53.6795 20.9909 54.0909 21.0828C54.2783 21.1353 54.4515 21.2292 54.5978 21.3577C54.744 21.4861 54.8596 21.6457 54.9359 21.8248C55.0398 22.2341 55.0021 22.6666 54.8289 23.0518C54.734 23.2403 54.6505 23.4343 54.5789 23.6328C54.4189 24.0218 54.2789 24.4208 54.0939 24.8028C53.8049 25.4128 53.5059 26.0158 53.1809 26.6028C52.6529 27.5768 52.1039 28.5398 51.5509 29.5028C51.3439 29.8628 51.1089 30.2088 50.8879 30.5588C51.0339 30.5651 51.1776 30.521 51.2949 30.4338C52.3289 29.6778 53.3739 28.9338 54.3869 28.1478C55.3999 27.3618 56.4129 26.5638 57.3759 25.7158C58.4239 24.7918 59.4159 23.8078 60.4289 22.8408C61.9942 21.3289 63.4742 19.7311 64.8619 18.0548C65.2399 17.5978 65.6219 17.1378 66.0319 16.7098C66.2092 16.5498 66.4302 16.4464 66.6665 16.4127C66.9029 16.379 67.144 16.4167 67.3589 16.5208C67.5367 16.6125 67.6909 16.7441 67.8096 16.9052C67.9282 17.0663 68.008 17.2526 68.0429 17.4497C68.0777 17.6467 68.0666 17.8491 68.0104 18.0411C67.9542 18.2331 67.8544 18.4096 67.7189 18.5568C67.6189 18.6748 67.5189 18.7848 67.4189 18.9068C66.5129 20.1068 65.4899 21.2068 64.4769 22.3128C62.6577 24.2865 60.7286 26.1562 58.6989 27.9128C57.6989 28.7868 56.6629 29.6208 55.6139 30.4378C54.7869 31.0838 53.9139 31.6788 53.0569 32.2848C52.4899 32.6848 51.9119 33.0548 51.2629 33.4848M14.2919 69.9108C14.4167 69.9736 14.5543 70.0069 14.6941 70.0081C14.8338 70.0094 14.972 69.9784 15.0979 69.9178L16.6139 69.3398C17.4706 69.0184 18.2887 68.6021 19.0529 68.0988C19.4005 67.868 19.8183 67.767 20.2329 67.8138C20.5431 67.8725 20.8174 68.0519 20.9954 68.3128C21.1733 68.5736 21.2404 68.8945 21.1819 69.2048C21.0523 69.5836 20.9024 69.9551 20.7329 70.3178C20.5899 70.6318 20.6399 70.8668 20.9109 70.9028C21.4336 71.0383 21.9709 71.1089 22.5109 71.1128C22.7729 71.121 23.0339 71.1484 23.2919 71.1948C23.8798 71.2523 24.4702 71.2797 25.0609 71.2768C25.8209 71.2558 26.5769 71.1628 27.3359 71.0988C27.4138 71.0946 27.4913 71.0849 27.5679 71.0698C28.3239 70.8948 29.0869 70.7238 29.8399 70.5348C30.1749 70.4488 30.4999 70.3278 30.8279 70.2138C31.2279 70.0678 31.6339 69.9138 32.0369 69.7568C32.4399 69.5998 32.8369 69.4318 33.2279 69.2568C33.5629 69.1038 33.8909 68.9398 34.2159 68.7648C34.6899 68.5078 35.1679 68.2478 35.6319 67.9648C35.9069 67.8048 36.1529 67.5938 36.4239 67.4258C37.3643 66.8417 38.247 66.1693 39.0599 65.4178C39.9799 64.5688 40.8259 63.6418 41.7169 62.7608C42.2549 62.2328 42.6229 62.1758 43.3169 62.6828C43.3763 62.7313 43.4324 62.7838 43.4849 62.8398C43.9849 63.3208 44.4849 63.7988 44.9649 64.2918C45.1149 64.4488 45.2399 64.4768 45.3999 64.3418C45.4848 64.278 45.5635 64.2064 45.6349 64.1278C45.9489 63.7568 46.2659 63.3928 46.5619 63.0078C46.8719 62.6078 47.1619 62.1878 47.4389 61.7628C47.5118 61.6471 47.5395 61.5086 47.5169 61.3738C47.4989 61.2848 47.3709 61.2058 47.2779 61.1388C46.8889 60.8498 46.4999 60.5608 46.1009 60.2828C45.6479 59.9688 45.1839 59.6588 44.7239 59.3518C44.4489 59.1698 44.3459 59.1838 44.1389 59.4338C44.0209 59.5768 43.9389 59.7438 43.8179 59.8868C43.7237 60.0241 43.6082 60.1456 43.4759 60.2468C43.1936 60.4284 42.8541 60.4991 42.5228 60.4452C42.1916 60.3912 41.892 60.2165 41.6819 59.9548C41.1609 59.3808 40.6619 58.7848 40.1409 58.2068C39.9897 58.0587 39.8301 57.9194 39.6629 57.7898C39.4739 58.0998 39.3239 58.3898 39.1389 58.6458C39.0171 58.8283 38.8486 58.9748 38.651 59.07C38.4533 59.1652 38.2337 59.2056 38.0151 59.187C37.7965 59.1684 37.5869 59.0915 37.4082 58.9643C37.2294 58.8371 37.0881 58.6642 36.9989 58.4638C36.6171 57.7074 36.2906 56.9243 36.0219 56.1208C35.8969 55.7928 35.8939 55.3858 35.5369 55.1468C35.4494 55.1493 35.3624 55.16 35.2769 55.1788C34.7129 55.3318 34.1499 55.4958 33.5899 55.6568C33.3969 55.7098 33.2009 55.7568 33.0119 55.8138C32.5199 55.9778 32.0379 56.1558 31.5459 56.3198C31.0319 56.4908 30.5119 56.6548 29.9979 56.8298C29.5309 56.9868 29.0709 57.1548 28.6069 57.3218C28.1429 57.4888 27.6869 57.6678 27.2269 57.8428L25.6079 58.4738C25.0439 58.6918 24.4699 58.8908 23.9139 59.1268C23.0649 59.4838 22.2269 59.8648 21.3819 60.2328C20.2979 60.7038 19.2029 61.1458 18.1329 61.6488C17.9365 61.7578 17.7122 61.8064 17.4883 61.7886C17.2644 61.7709 17.0506 61.6874 16.8739 61.5488C16.6876 61.4185 16.541 61.2392 16.4503 61.0308C16.3595 60.8224 16.3283 60.5929 16.3599 60.3678C16.4139 60.1109 16.5332 59.8722 16.7062 59.6748C16.8793 59.4774 17.1003 59.3279 17.3479 59.2408C18.1179 58.8838 18.8889 58.5278 19.6659 58.1848C20.5079 57.8108 21.3529 57.4428 22.2019 57.0898C22.7189 56.8758 23.2509 56.6978 23.7709 56.4898C24.4059 56.2328 25.0339 55.9548 25.6709 55.7018C26.2309 55.4808 26.8019 55.2848 27.3649 55.0848C28.0529 54.8388 28.7419 54.5928 29.4339 54.3608C29.7479 54.2608 29.8619 54.0858 29.7619 53.7758C29.6909 53.5438 29.6119 53.3158 29.5189 53.0338C29.3189 53.0518 29.1049 53.0548 28.8949 53.0948C28.3584 53.2314 27.8141 53.3349 27.2649 53.4048C26.3199 53.4658 25.3649 53.4258 24.4189 53.4508C23.1961 53.4608 21.981 53.2578 20.8279 52.8508C19.8488 52.5241 18.9114 52.0837 18.0349 51.5388C17.0334 50.8949 16.1137 50.132 15.2959 49.2668C15.1137 49.0261 14.9515 48.7709 14.8109 48.5038C14.726 48.3648 14.6051 48.2514 14.4609 48.1758C14.0469 48.0158 13.6119 47.9088 13.1949 47.7588C12.5099 47.5561 11.898 47.1599 11.4329 46.6178C10.5632 47.1652 9.78949 47.852 9.14289 48.6508C9.26089 48.9508 9.57489 48.9718 9.80289 49.1108C10.1029 49.2958 10.4309 49.4848 10.5229 49.8348C10.578 50.0465 10.5858 50.2678 10.5459 50.483C10.506 50.6981 10.4193 50.9019 10.2919 51.0798C10.1319 51.3148 9.94988 51.5398 9.77788 51.7718C9.04688 52.7558 8.32288 53.7438 7.57788 54.7178C7.5101 54.7907 7.46363 54.8808 7.44353 54.9783C7.42343 55.0758 7.43046 55.177 7.46388 55.2708C7.87388 55.4958 8.29489 55.6948 8.67989 55.9488C8.81902 56.0139 8.94128 56.1102 9.03719 56.2302C9.13309 56.3502 9.20005 56.4907 9.23288 56.6408C9.28053 56.9074 9.25076 57.1821 9.14708 57.4324C9.0434 57.6827 8.87016 57.8979 8.64789 58.0528C8.14165 58.4142 7.6559 58.8034 7.19289 59.2188C6.65293 59.7441 6.15444 60.3105 5.70189 60.9128C5.30221 61.4875 4.93658 62.0852 4.60689 62.7028C4.41347 63.0674 4.24638 63.4453 4.10689 63.8338C3.85389 64.4938 3.59688 65.1568 3.40088 65.8338C3.20488 66.5108 3.09089 67.2068 2.94089 67.8988C2.91589 68.0198 2.88389 68.1378 2.86589 68.2588C2.77289 68.7898 2.66588 69.3218 2.60588 69.8588C2.55988 70.3048 2.56988 70.7588 2.56688 71.2108C2.57533 71.3125 2.59445 71.413 2.62389 71.5108C2.73343 71.4859 2.83979 71.4487 2.94089 71.3998C3.25089 71.1998 3.54689 70.9788 3.86089 70.7898C4.42089 70.4548 4.97688 70.1088 5.56088 69.8158C6.10988 69.5448 6.69188 69.3268 7.26088 69.0988C7.64588 68.9488 8.03789 68.8168 8.43389 68.6918C8.95489 68.5278 9.47889 68.3568 10.0099 68.2278C10.2919 68.1598 10.5769 68.1528 10.8619 68.0568C11.7819 67.8175 12.7369 67.7426 13.6829 67.8358C13.8476 67.839 14.0069 67.8947 14.1378 67.9947C14.2687 68.0947 14.3644 68.2338 14.4109 68.3918C14.571 68.8942 14.5283 69.4394 14.2919 69.9108M38.8389 37.3738C38.8248 37.1619 38.7817 36.953 38.7109 36.7528C38.3426 35.9064 37.8911 35.0987 37.3629 34.3418C36.8763 33.6794 36.3001 33.0878 35.6509 32.5838C34.9339 32.0598 34.2029 31.5568 33.4679 31.0538C32.4909 30.3828 31.4139 29.8838 30.3789 29.3098C30.0119 29.1098 29.9079 29.1818 29.8189 29.5948C29.7639 29.8164 29.6427 30.016 29.4713 30.167C29.3 30.318 29.0867 30.4131 28.8599 30.4398C28.3459 30.4538 27.8329 30.4538 27.3189 30.4288C27.0299 30.4178 26.7449 30.3288 26.4559 30.3108C25.9707 30.2527 25.481 30.2429 24.9939 30.2818V31.2408C24.9987 31.483 24.9253 31.7203 24.7846 31.9175C24.644 32.1148 24.4435 32.2614 24.2129 32.3358C23.8303 32.4546 23.4377 32.5383 23.0399 32.5858C22.9399 32.6038 22.8219 32.5998 22.7189 32.6218C22.2089 32.7288 21.7059 32.8538 21.1959 32.9538C20.7289 33.0428 20.2579 33.1038 19.7339 33.1858C19.7339 33.3858 19.7199 33.5708 19.7339 33.7498C19.7628 33.9584 19.7354 34.1709 19.6545 34.3654C19.5736 34.5599 19.4422 34.7292 19.2739 34.8558C18.9948 35.0366 18.6954 35.184 18.3819 35.2948C17.8969 35.5018 17.4009 35.6838 16.9199 35.9008C16.8431 35.933 16.7817 35.9936 16.7485 36.07C16.7154 36.1464 16.713 36.2327 16.7419 36.3108C16.8043 36.6456 16.8294 36.9864 16.8169 37.3268C16.8011 37.5219 16.727 37.7078 16.6044 37.8605C16.4817 38.0131 16.3161 38.1253 16.1289 38.1828C15.815 38.3099 15.4828 38.3859 15.1449 38.4078C14.2701 38.5424 13.4338 38.8607 12.6909 39.3418C11.9192 39.7851 11.2212 40.3458 10.6219 41.0038C10.2092 41.3912 9.83758 41.8201 9.51288 42.2838C9.45888 42.3994 9.41603 42.52 9.38489 42.6438C10.0769 42.7648 10.7119 42.6798 11.3469 42.8288C11.9819 42.9778 12.6129 43.0568 13.2339 43.2498C13.8643 43.4412 14.4662 43.716 15.0239 44.0668C15.2233 44.1854 15.387 44.3557 15.4975 44.5598C15.6081 44.7638 15.6614 44.9939 15.6519 45.2258C15.6409 45.7318 15.6519 45.7538 16.1329 45.7968C16.7329 45.8508 17.3419 45.8828 17.9329 45.9748C18.2139 46.0268 18.4679 46.175 18.6515 46.394C18.8351 46.613 18.9367 46.889 18.9389 47.1748C18.9429 47.3369 18.9118 47.4979 18.8478 47.6468C18.7837 47.7958 18.6883 47.9292 18.5679 48.0378C18.2329 48.4088 18.2289 48.4378 18.6289 48.7658C18.9212 49.006 19.2326 49.222 19.5599 49.4118C19.9659 49.6667 20.3943 49.884 20.8399 50.0608C21.3139 50.2318 21.7989 50.3778 22.2839 50.5178C22.8647 50.6778 23.4594 50.783 24.0599 50.8318C25.5467 50.9876 27.0495 50.8679 28.4929 50.4788C29.0489 50.3178 29.6339 50.2358 30.1729 50.0298C30.4561 49.9226 30.7694 49.9266 31.0499 50.0408C31.2309 50.0999 31.3929 50.2061 31.5194 50.3484C31.6459 50.4907 31.7324 50.6641 31.7699 50.8508C31.8479 51.1148 31.9339 51.3788 32.0299 51.6888C32.2484 51.6893 32.4654 51.6531 32.6719 51.5818C33.4487 51.1554 34.2033 50.6898 34.9329 50.1868C35.9133 49.4598 36.7573 48.565 37.4259 47.5438C37.8158 46.9774 38.1446 46.3714 38.4069 45.7358C38.6567 45.2119 38.855 44.665 38.9989 44.1028C39.1059 43.5638 39.2339 43.0288 39.3309 42.4868C39.3989 42.1048 39.4089 41.7128 39.4699 41.3308C39.5565 40.8725 39.4767 40.3984 39.2449 39.9938L37.1019 39.7658C37.0229 39.7588 36.9489 39.7448 36.8699 39.7338C36.5998 39.6741 36.3257 39.6336 36.0499 39.6128C35.1619 39.5948 34.2739 39.6058 33.3859 39.6128C33.2151 39.6148 33.0446 39.6292 32.8759 39.6558C32.5759 39.6948 32.2699 39.7488 31.9629 39.7878C31.3629 39.8628 30.7679 39.9338 30.1729 40.0058C30.1415 40.0111 30.1105 40.0181 30.0799 40.0268C29.6559 40.1378 29.2279 40.2518 28.7999 40.3588C28.1899 40.5088 27.5699 40.6258 26.9669 40.8078C26.2469 41.0258 25.5439 41.3078 24.8269 41.5358C23.9288 41.8208 23.0604 42.1922 22.2339 42.6448C21.9948 42.8171 21.7045 42.9038 21.4101 42.891C21.1156 42.8781 20.834 42.7663 20.6109 42.5738C20.4637 42.4426 20.349 42.2791 20.2758 42.096C20.2026 41.9129 20.173 41.7153 20.1893 41.5188C20.2056 41.3224 20.2674 41.1324 20.3697 40.9638C20.472 40.7953 20.6121 40.6529 20.7789 40.5478C22.7633 39.4805 24.8823 38.685 27.0789 38.1828C27.3639 38.1218 27.6459 38.0508 27.9239 37.9728C28.3059 37.8728 28.6769 37.7268 29.0619 37.6478C29.5619 37.5478 30.0679 37.5018 30.5709 37.4298C30.6349 37.4188 30.6959 37.4048 30.7559 37.3938C31.0409 37.3438 31.3269 37.2828 31.6159 37.2438C31.8799 37.2078 32.1439 37.2008 32.4079 37.1728C32.7609 37.1368 33.1179 37.0618 33.4709 37.0548C34.3709 37.0368 35.2789 37.0438 36.1819 37.0548C36.447 37.0615 36.7115 37.0842 36.9739 37.1228C37.5799 37.2008 38.1869 37.2868 38.8359 37.3758M41.9989 33.9908C42.0989 33.9798 42.1589 33.9798 42.2199 33.9698C42.8295 33.8344 43.4227 33.6332 43.9889 33.3698C44.7588 33.0541 45.4784 32.6276 46.1249 32.1038C47.1588 31.2448 48.0361 30.2132 48.7179 29.0548C49.2639 28.1548 49.8909 27.3068 50.3509 26.3548C50.5939 25.8548 50.8649 25.3638 51.1509 24.8318C50.9979 24.7498 50.8839 24.6858 50.7659 24.6318C50.6479 24.5778 50.5449 24.5428 50.4409 24.4858C50.2074 24.3478 50.0212 24.1424 49.9066 23.8967C49.7921 23.6509 49.7545 23.3763 49.7989 23.1088C49.8269 22.1278 49.8739 21.1508 49.9059 20.1698C49.9014 20.0252 49.8894 19.881 49.8699 19.7378C49.732 19.7418 49.5947 19.7586 49.4599 19.7878C49.2679 19.8419 49.0652 19.846 48.8711 19.7998C48.677 19.7536 48.4979 19.6586 48.3509 19.5238C47.9771 19.1562 47.7566 18.6605 47.7339 18.1368C47.6979 17.9728 47.7019 17.7978 47.6659 17.6308C47.5659 17.1498 47.4449 16.6718 47.3559 16.1868C47.2629 15.6868 47.2059 15.1738 47.1279 14.6678C47.1043 14.5979 47.0731 14.5308 47.0349 14.4678C46.8069 14.4678 46.5749 14.4678 46.3469 14.4678C46.1482 14.4723 45.9526 14.4186 45.784 14.3134C45.6154 14.2083 45.4812 14.0562 45.3979 13.8758C45.0479 13.1658 44.7309 12.4388 44.3979 11.7218C44.3266 11.5933 44.2453 11.4706 44.1549 11.3548C44.0021 11.4633 43.8285 11.5389 43.645 11.5769C43.4616 11.615 43.2722 11.6146 43.0889 11.5758C42.8638 11.5371 42.6527 11.4406 42.4763 11.2955C42.2999 11.1505 42.1643 10.9621 42.0829 10.7488C41.9957 10.4179 41.9361 10.0805 41.9049 9.73977C41.8188 8.98899 41.5704 8.26593 41.1769 7.62077C40.6764 6.68444 40.0215 5.83924 39.2399 5.12077C38.8325 4.6782 38.3657 4.29421 37.8529 3.97977C37.7849 4.37977 37.6959 4.74977 37.6709 5.12477C37.6415 5.60428 37.5783 6.08113 37.4819 6.55177C37.2704 7.56747 36.9261 8.55092 36.4579 9.47677C36.354 9.71914 36.1747 9.92155 35.9466 10.054C35.7186 10.1864 35.4539 10.2417 35.1919 10.2118C35.0419 10.2048 34.8919 10.1908 34.6779 10.1758C34.6073 10.4165 34.5548 10.6622 34.5209 10.9108C34.4929 11.3598 34.5029 11.8108 34.5069 12.2658C34.5134 12.5151 34.4458 12.7608 34.3126 12.9717C34.1793 13.1826 33.9865 13.3492 33.7585 13.4504C33.5305 13.5516 33.2776 13.5829 33.0318 13.5402C32.786 13.4976 32.5584 13.3829 32.3779 13.2108C32.2779 13.1108 32.1499 13.0218 32.0039 12.9008C31.8529 13.0515 31.7123 13.2122 31.5829 13.3818C31.1602 13.9235 30.8102 14.5182 30.5419 15.1508C30.2807 15.7632 30.0533 16.3894 29.8609 17.0268C29.555 18.2633 29.442 19.5397 29.5259 20.8108C29.6058 22.1112 29.8649 23.3943 30.2959 24.6238C30.3974 24.8495 30.4472 25.095 30.4417 25.3424C30.4362 25.5898 30.3754 25.8328 30.2639 26.0538C30.2319 26.1108 30.2639 26.2038 30.2639 26.2928C33.0576 27.6235 35.6861 29.2764 38.0959 31.2178C38.1459 31.1428 38.1779 31.1178 38.1739 31.0928C38.0989 30.7328 38.0099 30.3758 37.9489 30.0118C37.8239 29.2338 37.6739 28.4528 37.6069 27.6688C37.4856 26.2567 37.4856 24.8368 37.6069 23.4248C37.6709 22.5868 37.7709 21.7558 37.8569 20.9248L37.8679 20.8788C38.0389 20.1118 38.2319 19.3488 38.3739 18.5788C38.561 17.698 38.8212 16.8343 39.1519 15.9968C39.2682 15.6805 39.5048 15.4229 39.81 15.2801C40.1152 15.1372 40.4645 15.1206 40.7819 15.2338C41.0636 15.3251 41.2993 15.5217 41.4396 15.7825C41.5799 16.0434 41.614 16.3483 41.5349 16.6338C41.3499 17.4578 41.0819 18.2598 40.8679 19.0768C40.7469 19.5508 40.6539 20.0358 40.5539 20.5178C40.5289 20.6178 40.5289 20.7318 40.5109 20.8388C40.4609 21.1388 40.4039 21.4448 40.3579 21.7478C40.3586 21.8876 40.3465 22.0271 40.3219 22.1648C40.1892 22.6291 40.1375 23.1129 40.1689 23.5948C40.1805 23.8902 40.1651 24.1861 40.1229 24.4788C39.998 25.2477 39.998 26.0318 40.1229 26.8008C40.1155 27.5458 40.1886 28.2894 40.3409 29.0188C40.4799 29.4538 40.4759 29.9358 40.5909 30.3808C40.7369 30.9268 40.9479 31.4548 41.1119 31.9968C41.3361 32.695 41.638 33.3659 42.0119 33.9968M60.2189 49.1298C60.0859 48.3025 59.8927 47.486 59.6409 46.6868C59.2988 45.7688 58.855 44.892 58.3179 44.0728C57.7484 43.2133 57.0671 42.4335 56.2919 41.7538C55.583 41.1264 54.8219 40.5607 54.0169 40.0628C53.5999 39.8168 53.1569 39.6208 52.7259 39.3958C52.4306 39.2436 52.2074 38.9809 52.1051 38.6648C52.0029 38.3488 52.0297 38.0051 52.1799 37.7088C52.2729 37.5198 52.3899 37.3418 52.4799 37.1488C52.5333 37.0244 52.5787 36.8969 52.6159 36.7668C52.3809 36.6558 52.1949 36.5488 51.9949 36.4668C51.4657 36.255 50.9157 36.0995 50.3539 36.0028C49.7759 35.9168 49.2059 35.7528 48.6279 35.7028C48.0563 35.6378 47.4777 35.6764 46.9199 35.8168C46.4099 35.9598 45.8639 35.8628 45.3259 36.0378C44.6424 36.2059 43.9814 36.455 43.3569 36.7798C43.4459 37.0548 43.5569 37.3258 43.6239 37.6068C43.9812 38.6992 44.4187 39.7638 44.9329 40.7918C45.1649 41.3378 45.5039 41.8298 45.7749 42.3578C46.3817 43.4893 47.1035 44.5553 47.9289 45.5388C48.9378 46.7959 50.1262 47.8977 51.4559 48.8088C51.8849 49.1214 52.3327 49.4072 52.7969 49.6648C53.3779 49.9648 54.0029 50.1858 54.5969 50.4648C54.7729 50.526 54.9335 50.6246 55.0677 50.7538C55.2019 50.8831 55.3065 51.0399 55.3743 51.2134C55.442 51.387 55.4714 51.5732 55.4603 51.7592C55.4491 51.9451 55.3978 52.1265 55.3099 52.2908C55.1802 52.5274 54.9759 52.7144 54.7289 52.823C54.4818 52.9315 54.2059 52.9553 53.9439 52.8908C53.5949 52.7698 53.2629 52.6018 52.9199 52.4668C52.1198 52.1419 51.3501 51.7467 50.6199 51.2858C49.8292 50.8181 49.0834 50.2785 48.3919 49.6738C47.6079 48.9704 46.865 48.2225 46.1669 47.4338C45.2362 46.3797 44.4309 45.2213 43.7669 43.9818C43.3749 43.2258 42.9469 42.4908 42.5509 41.7348C42.4525 41.4692 42.3179 41.2185 42.1509 40.9898C42.0689 41.6278 41.9579 42.2278 41.9259 42.8298C41.8552 43.6132 41.691 44.3854 41.4369 45.1298C41.1853 45.9065 40.8789 46.6644 40.5199 47.3978C40.2697 47.9351 39.975 48.4506 39.6389 48.9388C39.0478 49.8291 38.3614 50.6523 37.5919 51.3938C37.5305 51.44 37.484 51.5031 37.4581 51.5755C37.4321 51.6478 37.4279 51.7261 37.4459 51.8008C37.5169 52.1288 37.5989 52.4568 37.6919 52.7818C37.7919 53.1348 37.9239 53.4818 38.0059 53.8378C38.0949 54.2268 38.2159 54.2768 38.5769 54.0978C38.7799 53.9876 39.0077 53.931 39.2387 53.9334C39.4697 53.9359 39.6963 53.9973 39.8969 54.1118C40.36 54.4539 40.7651 54.8682 41.0969 55.3388C41.5779 55.8698 42.0559 56.4018 42.5199 56.9148C42.7729 56.6758 42.9799 56.4798 43.1909 56.2868C43.3486 56.0944 43.5728 55.9682 43.8191 55.9332C44.0654 55.8982 44.3158 55.957 44.5209 56.0978C45.0129 56.3758 45.4909 56.6858 45.9619 57.0038C46.5329 57.3888 47.0849 57.8038 47.6529 58.1988C47.8879 58.3628 48.1339 58.5128 48.3729 58.6658C48.9969 57.7658 49.3999 57.6528 50.4129 58.0448C50.9589 58.2518 51.5009 58.4728 52.0389 58.6908C52.1889 58.7518 52.3389 58.8188 52.4879 58.8908C52.6019 58.6908 52.6949 58.5518 52.7659 58.3988C52.8314 58.2407 52.9299 58.0984 53.0549 57.9815C53.18 57.8646 53.3285 57.7758 53.4907 57.7211C53.6528 57.6664 53.8248 57.6469 53.9951 57.6641C54.1653 57.6813 54.33 57.7347 54.4779 57.8208C54.8699 58.0558 55.2129 58.3738 55.6089 58.5988C56.645 59.1962 57.8015 59.5546 58.9939 59.6478C59.1789 59.6618 59.3649 59.6768 59.5499 59.6938C60.433 59.7592 61.3207 59.7149 62.1929 59.5618C62.1659 59.4368 62.1229 59.3158 62.0649 59.2018C61.9281 59.0174 61.7791 58.8423 61.6189 58.6778C61.125 58.1329 60.6964 57.5321 60.3419 56.8878C59.9118 56.1807 59.5817 55.4174 59.3609 54.6198C59.2604 54.3704 59.2428 54.0953 59.3109 53.8352C59.379 53.5751 59.5291 53.3439 59.7389 53.1758C59.8389 53.0868 59.9389 52.9938 60.0669 52.8758C60.0169 52.7347 59.9497 52.6004 59.8669 52.4758C59.5779 52.1408 59.2609 51.8298 58.9789 51.4918C58.7511 51.2652 58.5661 50.9992 58.4329 50.7068C58.3719 50.5195 58.3575 50.3201 58.391 50.126C58.4245 49.9319 58.5048 49.7489 58.625 49.5929C58.7451 49.4368 58.9016 49.3125 59.0807 49.2305C59.2598 49.1486 59.4562 49.1116 59.6529 49.1228C59.838 49.1358 60.0238 49.1358 60.2089 49.1228" fill="#F5F5F5"/>
</g>
<defs>
<clipPath id="clip0_2200_661">
<rect width="80.647" height="75.634" fill="white"/>
</clipPath>
</defs>
</svg>
