<svg width="88" height="75" viewBox="0 0 88 75" fill="none" xmlns="http://www.w3.org/2000/svg">
<g clip-path="url(#clip0_2200_663)">
<path d="M86.9401 29.4602L87.5151 29.4042L87.4901 29.1692C87.4501 28.7432 87.4101 28.3012 87.3901 27.8592C87.3555 27.3144 87.2789 26.7731 87.1611 26.2402C87.0281 25.6102 86.8771 24.9822 86.7281 24.3552L86.5891 23.7962C86.4561 23.2462 86.3051 22.7022 86.1561 22.1612L86.1001 21.9482C86.0445 21.7147 85.9723 21.4854 85.8841 21.2622L85.3651 20.0042C85.2751 19.7852 85.1831 19.5652 85.0931 19.3402C84.5691 18.0702 83.9549 16.8394 83.2551 15.6572C82.3319 14.0984 81.2831 12.6175 80.1191 11.2292C78.8497 9.7273 77.4419 8.34822 75.9141 7.11016C74.654 6.06707 73.3048 5.13651 71.8821 4.32916C71.2241 3.96116 70.5381 3.62916 69.8711 3.30616L69.5901 3.17016C69.3091 3.03716 69.0281 2.90416 68.7531 2.77016C68.1885 2.50345 67.6088 2.26972 67.0171 2.07016L66.4671 1.87016C66.0101 1.69716 65.5401 1.55816 65.0091 1.40316C64.6971 1.31016 64.3851 1.21816 64.0761 1.11916C63.7619 1.01457 63.4408 0.932032 63.1151 0.872156C62.8801 0.826156 62.6451 0.785156 62.4151 0.748156L62.3221 1.32016L62.2571 0.720156C62.0351 0.683156 61.8151 0.646156 61.5961 0.603156C60.535 0.361892 59.4543 0.216969 58.3671 0.170156C58.2801 0.170156 58.1911 0.158156 58.0491 0.145156L56.9651 0.0511562C56.5532 0.00860191 56.139 -0.00609833 55.7251 0.00715608C54.9491 0.0321561 54.1521 0.0941563 53.3951 0.155156L52.5421 0.220156C52.4031 0.229156 52.2521 0.251156 52.0631 0.282156L49.7091 0.690156C49.3411 0.752156 48.9711 0.814156 48.5971 0.909156C48.0971 1.04216 47.5971 1.20316 47.1171 1.35716L46.1341 1.65716C45.6211 1.81116 45.0901 1.97216 44.5861 2.17916C43.2534 2.71842 41.9535 3.33548 40.6931 4.02716C38.9841 4.96569 37.3693 6.06642 35.8711 7.31416C34.6116 8.3527 33.4366 9.48961 32.3571 10.7142C30.7744 12.5124 29.3923 14.4777 28.2351 16.5752C27.4658 17.9788 26.8127 19.443 26.2821 20.9532L26.1891 21.2252C25.8017 22.2091 25.5159 23.2301 25.3361 24.2722C25.3141 24.4362 25.2711 24.6002 25.2361 24.7632L25.7921 24.9022L25.1921 24.9392C25.1671 25.0322 25.1431 25.1312 25.1271 25.2082C25.0961 25.3622 25.0531 25.5142 25.0131 25.6622C24.9044 26.0405 24.8268 26.4271 24.7811 26.8182C24.7561 27.1272 24.7191 27.4302 24.6701 27.7482C24.5497 28.4675 24.5031 29.1973 24.5311 29.9262L24.5121 30.1112C24.5061 30.3832 24.4931 30.6522 24.4811 30.9272C24.4381 31.5867 24.4341 32.2482 24.4691 32.9082C24.4971 33.2362 24.5061 33.5632 24.5181 33.9522C24.5236 34.7133 24.6043 35.4719 24.7591 36.2172C24.8232 36.5235 24.8716 36.8329 24.9041 37.1442L24.9261 37.3202C24.9511 37.4992 24.9721 37.6752 25.0001 37.8452C25.0531 38.1542 25.1271 38.4572 25.2071 38.7662C25.2871 39.0752 25.3581 39.3992 25.4391 39.7152C25.1491 39.6872 24.8581 39.6562 24.5711 39.6382L23.4341 39.5642C22.6801 39.5242 21.9111 39.4812 21.1601 39.3822C20.8601 39.3452 20.5541 39.3202 20.2521 39.3022C19.9091 39.2742 19.5811 39.2532 19.2521 39.1972C18.6251 39.0972 17.9881 39.0492 17.3731 39.0022L17.0251 38.9802C16.6701 38.9522 16.3111 38.9062 15.9591 38.8592L14.8901 38.7082C14.6741 38.6742 14.4601 38.6402 14.2381 38.6082L13.2461 38.4972C12.8321 38.4482 12.4181 38.3972 12.0011 38.3462C11.6301 38.3002 11.2561 38.2462 10.8821 38.1882C10.3971 38.1142 9.9091 38.0402 9.4201 37.9812C8.3571 37.8482 7.3681 37.7402 6.3361 37.6472C5.68703 37.5714 5.03334 37.5423 4.3801 37.5602C3.81441 37.5896 3.2586 37.7203 2.7391 37.9462C2.13649 38.2362 1.61275 38.6674 1.21234 39.203C0.811937 39.7387 0.546686 40.3631 0.439104 41.0232C0.244014 41.7557 0.148488 42.5111 0.155103 43.2692C0.152523 43.3759 0.141151 43.4823 0.121103 43.5872C0.109103 43.6872 0.096103 43.7752 0.093103 43.8622C0.087103 44.0202 0.0741031 44.1832 0.0651031 44.3442L0.0531021 44.5022C-0.0196538 45.124 -0.0196538 45.7523 0.0531021 46.3742C0.10565 46.719 0.139033 47.0666 0.153101 47.4152C0.168096 48.0372 0.25535 48.6553 0.413103 49.2572C0.486722 49.5308 0.53954 49.8096 0.571104 50.0912C0.608104 50.3262 0.648103 50.5642 0.704103 50.7912C0.791103 51.1372 0.899102 51.4772 1.0041 51.8082L1.0531 51.9812C1.1301 52.2222 1.2011 52.4632 1.2661 52.7102C1.6147 53.9599 2.07177 55.1769 2.6321 56.3472C3.2609 57.7265 4.00627 59.0496 4.8601 60.3022C5.3451 61.0162 5.9321 61.8532 6.5931 62.6662C7.4331 63.6922 8.2151 64.5882 8.9881 65.4012C9.97142 66.4183 11.037 67.3524 12.1741 68.1942L12.4491 68.4012C12.9123 68.7665 13.394 69.108 13.8921 69.4242C14.5921 69.8532 15.3161 70.2612 16.0981 70.6972L16.7381 71.0522C18.377 71.9308 20.1087 72.6241 21.9011 73.1192C22.8645 73.4008 23.8461 73.6157 24.8391 73.7622C25.5161 73.8672 26.2171 73.9162 26.9031 73.9622L27.7401 74.0302C27.8331 74.0362 27.9221 74.0392 28.0181 74.0422L29.2181 74.1162C29.8181 74.1562 30.4261 74.1962 31.0661 74.1962C31.7211 74.1962 32.3791 74.1342 33.0281 74.0722L33.6371 74.0132C34.1621 73.9702 34.6911 73.9202 35.2191 73.8682L36.1371 73.7782C36.2171 73.7692 36.3011 73.7532 36.4491 73.7222L36.7491 73.6512C37.1491 73.5512 37.5431 73.4632 37.9421 73.3762C38.0471 73.3512 38.1491 73.3362 38.3621 73.2992C38.6391 73.2555 38.9128 73.1927 39.1811 73.1112C39.5981 72.9782 40.0061 72.8332 40.4171 72.6882L41.4301 72.3232C42.7586 71.8498 44.0385 71.2497 45.2521 70.5312C45.9071 70.1602 46.5401 69.7312 47.1521 69.3112L47.8601 68.8292C48.9157 68.1037 49.9124 67.2962 50.8411 66.4142C51.9193 65.4101 52.9105 64.3165 53.8041 63.1452L54.6601 63.2222C55.0311 63.2592 55.4171 63.2752 55.7941 63.2932L56.0571 63.3022C56.8881 63.2872 57.7321 63.2192 58.5441 63.1472L58.7601 63.1282C59.2391 63.0912 59.7181 63.0282 60.1871 62.9642L61.1081 62.8502C61.5311 62.8012 61.9611 62.7452 62.3781 62.6552C63.1501 62.4882 63.9071 62.2662 64.5441 62.0712L65.1161 61.9042C65.9041 61.6692 66.7161 61.4282 67.5111 61.1102C68.7454 60.6253 69.9478 60.0628 71.1111 59.4262C72.4467 58.691 73.731 57.8661 74.9551 56.9572C76.3397 55.9376 77.6283 54.7939 78.8051 53.5402C79.7631 52.4992 80.5721 51.5402 81.2831 50.6232C82.2334 49.3855 83.0758 48.0687 83.8011 46.6872C84.5971 45.2252 85.2678 43.6984 85.8061 42.1232L85.9061 41.8232C86.1794 41.0425 86.4131 40.2485 86.6061 39.4442C86.6741 39.0982 86.7541 38.7442 86.8381 38.3902C86.8751 38.2322 86.9151 38.0812 86.9551 37.9202C87.0581 37.559 87.1376 37.1916 87.1931 36.8202C87.2761 36.2112 87.3321 35.5932 87.3781 35.0122C87.4061 34.7592 87.4271 34.5052 87.4461 34.2362L87.6281 32.0732C87.6664 31.1983 87.6293 30.3217 87.5171 29.4532L86.9401 29.4602ZM4.6351 43.5802C4.69263 44.2393 4.80944 44.892 4.9841 45.5302C5.13451 46.1456 5.36728 46.738 5.6761 47.2912C5.96456 47.8229 6.37305 48.28 6.8691 48.6262C6.65886 49.3282 6.67074 50.0781 6.9031 50.7732C7.16767 51.671 7.56326 52.5248 8.0771 53.3072C8.66035 54.2809 9.45959 55.1075 10.4131 55.7232C10.7039 55.9068 11.0204 56.0463 11.3521 56.1372C11.3051 56.9672 11.5645 57.7857 12.0811 58.4372C12.6178 59.0928 13.2754 59.6394 14.0181 60.0472C14.8053 60.5377 15.6395 60.9488 16.5081 61.2742C17.6581 61.7701 18.8905 62.0468 20.1421 62.0902C20.6524 62.0705 21.1544 61.9552 21.6221 61.7502C21.8323 62.044 22.0664 62.3199 22.3221 62.5752C22.9501 63.1237 23.6966 63.5194 24.5031 63.7312C25.1459 63.9163 25.8018 64.0526 26.4651 64.1392C26.8511 64.1982 27.2341 64.2562 27.6141 64.3392C27.8095 64.3766 28.0083 64.393 28.2071 64.3882L29.0351 64.4102C30.0799 64.4617 31.1267 64.4577 32.1711 64.3982C33.1842 64.3441 34.1904 64.1982 35.1771 63.9622L35.5691 63.8622C35.9991 63.7512 36.4431 63.6332 36.8691 63.4852C37.8015 63.185 38.6043 62.5772 39.1461 61.7612C39.9236 62.0785 40.775 62.1697 41.6021 62.0242C42.5156 61.868 43.4098 61.6142 44.2691 61.2672C45.2494 60.882 46.1902 60.4027 47.0781 59.8362C47.9645 59.3575 48.6739 58.607 49.1021 57.6952C49.3425 57.2151 49.4512 56.6799 49.4171 56.1442C50.0275 55.9658 50.5852 55.6415 51.0421 55.1992C52.0289 54.3204 52.8206 53.2446 53.3661 52.0412C53.6154 51.5263 53.8202 50.991 53.9781 50.4412C54.104 49.9458 54.1346 49.431 54.0681 48.9242C54.9389 48.4181 55.6021 47.6199 55.9401 46.6712C56.2897 45.7734 56.4731 44.8195 56.4811 43.8562C56.5385 42.9065 56.3856 41.9559 56.0331 41.0722H56.0391C56.2831 41.0722 56.5241 41.0722 56.7591 41.0942C57.1051 41.1252 57.1891 41.1502 57.2661 41.6132C57.508 43.4722 57.571 45.3501 57.4541 47.2212C57.4329 47.9922 57.3229 48.7583 57.1261 49.5042C57.0875 49.6356 57.0565 49.7692 57.0331 49.9042L56.9991 50.0712C56.9741 50.2102 56.9461 50.3492 56.9091 50.4882C56.5078 51.8588 55.9067 53.1628 55.1251 54.3582C54.4026 55.4996 53.5649 56.5638 52.6251 57.5342C51.4625 58.7662 50.16 59.8583 48.7441 60.7882L48.5491 60.9152C47.9191 61.3292 47.1371 61.8422 46.3741 62.2622C45.5611 62.7132 44.7021 63.1152 43.8681 63.5072L43.5441 63.6582C42.9751 63.9302 42.3791 64.1772 41.7891 64.4002C41.4461 64.5332 41.0811 64.6412 40.7231 64.7432L39.8671 65.0062C39.4751 65.1232 39.0821 65.2442 38.6771 65.3552C38.3151 65.4552 37.9421 65.5402 37.5771 65.6272L37.3051 65.6892C36.9401 65.7722 36.5791 65.8562 36.2051 65.9302C35.7051 66.0302 35.2051 66.1302 34.7051 66.2202L34.3131 66.2882C33.8371 66.3162 33.3581 66.3592 32.8791 66.4052C32.0338 66.5003 31.1837 66.5447 30.3331 66.5382C30.0641 66.5292 29.7951 66.5262 29.5231 66.5262H29.1351C28.6991 66.5322 28.2951 66.5352 27.8711 66.5112C27.0347 66.4651 26.2038 66.3484 25.3871 66.1622C25.2201 66.1252 25.0531 66.0942 24.8651 66.0622C24.7041 66.0342 24.5411 66.0062 24.3771 65.9622L23.8251 65.8242C23.1671 65.6542 22.4871 65.4842 21.8351 65.2712C20.1223 64.7402 18.472 64.0254 16.9131 63.1392L16.0791 62.6572C15.4731 62.3142 14.8551 61.9572 14.2711 61.5822C13.5711 61.1222 12.8871 60.5722 12.2441 60.0492C11.2891 59.2772 10.5231 58.6252 9.8281 57.9942C9.36766 57.5627 8.93574 57.1017 8.5351 56.6142C7.9261 55.9002 7.2251 55.0692 6.6071 54.2352C5.84966 53.2328 5.20698 52.1487 4.6911 51.0032L4.3231 50.1872C4.1231 49.7392 3.9151 49.2872 3.7481 48.8272C3.59474 48.3605 3.46984 47.885 3.3741 47.4032L3.3001 47.0662C3.1891 46.5502 3.0781 45.9942 3.0001 45.4252C2.86655 44.5436 2.87803 43.646 3.0341 42.7682C3.07335 42.5485 3.10006 42.3268 3.1141 42.1042C3.14092 41.7216 3.25044 41.3493 3.4351 41.0132C3.51179 40.8374 3.6374 40.6873 3.79698 40.581C3.95655 40.4746 4.14335 40.4163 4.3351 40.4132C4.60788 40.3783 4.88385 40.3763 5.1571 40.4072C5.02595 40.6959 4.92541 40.9975 4.8571 41.3072L4.7951 41.5332C4.63074 42.2039 4.57637 42.8969 4.6341 43.5852M32.2881 48.0072C32.2471 48.015 32.2051 48.015 32.1641 48.0072L32.0031 47.4912L32.2881 48.0072ZM21.0851 41.2292C20.8071 41.1422 20.5291 41.0562 20.2511 40.9762C19.9231 40.8762 19.5961 40.7972 19.2621 40.7102C18.9621 40.6332 18.6621 40.5562 18.3721 40.4752C18.0571 40.3822 17.7351 40.2802 17.4171 40.1752L14.9171 39.4332L13.6811 39.0782C13.4151 39.0042 13.1461 38.9362 12.7481 38.8282L11.8981 38.5992C11.5551 38.4992 11.2121 38.3992 10.8661 38.2902L10.0561 38.0402L10.0001 38.0252L10.0191 37.9512C10.4671 37.9322 10.9121 37.9512 11.3451 37.9112C11.7161 37.8862 12.0901 37.8492 12.4571 37.8112L13.3011 37.7312C14.5121 37.6262 15.7301 37.5312 16.9411 37.4312L19.4411 37.2492C20.0741 37.1932 20.7111 37.1442 21.3411 37.0982C21.9411 37.0582 22.6231 37.0152 23.3251 36.9982L23.6341 36.9922C24.1693 36.9709 24.7035 37.0538 25.2071 37.2362C25.3615 37.2921 25.4998 37.3853 25.6097 37.5074C25.7195 37.6294 25.7977 37.7767 25.8371 37.9362C25.9191 38.2702 25.9832 38.6083 26.0291 38.9492C26.0441 39.0792 26.0631 39.2052 26.0851 39.3352C26.0458 40.1278 25.844 40.9038 25.4921 41.6152C25.2921 41.9772 24.7441 42.2392 24.4851 42.1062C24.0824 41.9245 23.6521 41.8116 23.2121 41.7722C22.489 41.6467 21.7771 41.4638 21.0831 41.2252M30.7331 25.9302C30.8161 25.9452 30.9031 25.9552 31.0111 25.9672L30.9651 26.0382C30.748 26.3273 30.6345 26.6811 30.6428 27.0426C30.6512 27.4041 30.7809 27.7523 31.0111 28.0312C31.0541 28.0902 31.0941 28.1482 31.1381 28.2102C31.0731 28.2292 31.0111 28.2472 30.9431 28.2632C30.5762 28.3448 30.2479 28.5485 30.0118 28.841C29.7756 29.1334 29.6457 29.4973 29.6431 29.8732C29.525 29.7914 29.3974 29.7242 29.2631 29.6732C28.984 29.5476 28.6751 29.503 28.3719 29.5445C28.0686 29.5861 27.7832 29.7121 27.5481 29.9082C27.4951 29.9512 27.4481 29.9912 27.3901 30.0322C27.3561 29.9322 27.3281 29.8322 27.3001 29.7322C27.2021 29.3987 27.0046 29.1032 26.7341 28.8852C26.4635 28.6671 26.1327 28.537 25.7861 28.5122L25.7181 28.5032L25.8421 28.2532C25.9963 27.9789 26.0661 27.6653 26.043 27.3516C26.0199 27.0378 25.9048 26.7378 25.7121 26.4892C25.6591 26.4152 25.6071 26.3382 25.5511 26.2602C25.6573 26.2212 25.7654 26.1878 25.8751 26.1602C26.1896 26.0812 26.4715 25.906 26.6815 25.6589C26.8915 25.4118 27.019 25.1053 27.0461 24.7822C27.0551 24.7232 27.0681 24.6652 27.0741 24.6032C27.2165 24.6942 27.3688 24.7687 27.5281 24.8252C27.7937 24.9297 28.0819 24.9631 28.3644 24.9218C28.6468 24.8806 28.9135 24.7663 29.1381 24.5902C29.1971 24.5442 29.2591 24.4972 29.3201 24.4542C29.3699 24.722 29.4783 24.9756 29.6375 25.1967C29.7967 25.4178 30.0028 25.601 30.2411 25.7332C30.3934 25.827 30.5604 25.8946 30.7351 25.9332M27.2191 33.8492C26.3881 33.8742 25.5501 33.9322 24.7191 33.9912L23.9251 34.0472C23.2391 34.0932 22.5501 34.1402 21.8641 34.2052C21.3851 34.2512 20.9031 34.3052 20.3841 34.3592C19.8651 34.4132 19.3491 34.4672 18.8271 34.5172L50.4251 36.2762C50.8251 36.0042 51.2441 35.7232 51.6791 35.4572L51.9661 35.5102C52.1271 35.5472 52.2871 35.5812 52.4821 35.6152C52.6031 36.0782 52.7481 36.5642 52.9241 37.0892C52.9898 37.2834 53.0974 37.4609 53.2392 37.609C53.3811 37.7572 53.5538 37.8723 53.745 37.9463C53.9363 38.0204 54.1415 38.0515 54.3461 38.0374C54.5507 38.0234 54.7497 37.9646 54.9291 37.8652C55.4071 37.6005 55.8701 37.3098 56.3161 36.9942C56.4539 37.0741 56.6001 37.1385 56.7521 37.1862C57.2401 37.3372 57.5151 37.7392 57.9261 38.3862L57.9851 38.4792C57.8596 38.4405 57.7317 38.4104 57.6021 38.3892C56.7005 38.2533 55.787 38.2141 54.8771 38.2722M61.0441 34.5522L61.0131 34.7002L60.9011 34.3142L61.0441 34.5522ZM38.8371 45.7462L41.8371 46.5932C42.2481 46.7102 42.6561 46.8252 43.0671 46.9482C43.2521 47.0042 43.4321 47.0622 43.6141 47.1242L44.1391 47.2912C44.3991 47.3742 44.6671 47.4492 44.9861 47.5352L45.6861 47.7172C46.0351 47.8072 46.3861 47.8962 46.7331 47.9982C46.9861 48.0662 47.2331 48.1462 47.4871 48.2242L48.5281 48.5422C49.0841 48.7122 49.6454 48.8748 50.2121 49.0302C50.3481 49.0702 50.4871 49.1012 50.6261 49.1352L50.7621 48.5762L50.8331 49.1882C50.9811 49.2222 51.1231 49.2592 51.2331 49.2932C51.3099 49.5622 51.2813 49.8504 51.1531 50.0992C50.7412 51.2439 50.0673 52.2764 49.1851 53.1142C49.0189 53.2903 48.8037 53.4125 48.5673 53.465C48.3309 53.5174 48.0841 53.4976 47.8591 53.4082C47.434 53.2406 47.0393 53.0041 46.6911 52.7082L46.4841 52.5572C45.4271 51.8092 44.3981 51.0182 43.3451 50.2032C42.7551 49.7492 42.1711 49.2822 41.5901 48.8162C41.0901 48.4162 40.5901 48.0222 40.0901 47.6362C39.6901 47.3212 39.2801 47.0152 38.7801 46.6442L38.6251 46.5142C38.3501 46.3142 38.0751 46.1032 37.7971 45.8872C37.4761 45.6462 37.1641 45.4022 36.8451 45.1492C37.0451 45.1952 37.2451 45.2602 37.5651 45.3652C37.6651 45.3992 37.7651 45.4302 37.8591 45.4582C38.1871 45.5582 38.5111 45.6502 38.8351 45.7422M35.8711 49.9142C35.6581 49.4412 35.4511 48.9722 35.2501 48.4932L34.7741 47.4022C34.7251 47.3022 34.6741 47.2022 34.6351 47.1022L34.6841 47.0682L35.5841 47.7482C36.2081 48.2212 36.8351 48.6932 37.4561 49.1692L39.0501 50.4142C39.6501 50.8842 40.2501 51.3532 40.8501 51.8142C41.3811 52.2252 41.9191 52.6302 42.4601 53.0342L44.0821 54.2702C44.5181 54.6042 44.9531 54.9342 45.3951 55.2622L45.6271 55.4322C45.8824 55.6019 46.1149 55.8035 46.3191 56.0322C46.4448 56.162 46.5332 56.3233 46.5751 56.4992C46.5811 56.5992 46.5531 56.7092 46.1891 57.0152C45.3457 57.6944 44.3955 58.229 43.3771 58.5972L43.1271 58.6972C42.7292 58.8627 42.3202 59 41.9031 59.1082C41.395 59.2845 40.847 59.3112 40.3241 59.1852C40.1751 59.1306 40.0438 59.0366 39.9441 58.9132C39.7076 58.5395 39.5067 58.1444 39.3441 57.7332L38.7321 56.3062C38.5591 55.8862 38.3801 55.4692 38.2041 55.0582C37.8861 54.3232 37.5581 53.5972 37.2211 52.8702C37.0211 52.4372 36.8211 52.0022 36.6211 51.5702L35.8711 49.9142ZM60.5001 37.1662C60.2651 36.7982 60.0271 36.4152 59.7831 36.0882C59.8661 35.7572 59.9281 35.4552 59.9931 35.1882C60.1781 35.1422 60.3641 35.0832 60.5461 35.0242L61.0531 34.8662L61.0441 34.8292C61.2171 34.8722 61.3961 34.9292 61.6371 34.9962L62.0541 35.1132C62.4541 35.2132 62.8421 35.3132 63.2541 35.3972C63.4861 35.4462 63.7181 35.4902 63.9341 35.5272L64.5181 35.6412C64.7031 35.6812 64.8891 35.7312 65.0741 35.7802L65.9141 36.0062C66.4211 36.1422 66.9311 36.2812 67.4371 36.4062C67.8231 36.4992 68.2031 36.5822 68.5901 36.6662C68.9361 36.7372 69.2901 36.8142 69.6411 36.9012C69.8571 36.9502 70.0641 37.0092 70.3411 37.0932L70.9101 37.2542C71.2281 37.3372 71.5501 37.4082 71.8681 37.4732L72.3781 37.5782C72.6281 37.6242 72.8721 37.6712 73.1261 37.7262C73.4011 37.7852 73.6701 37.8502 73.9421 37.9182L74.7421 38.1032C75.0481 38.1682 75.3571 38.2392 75.6571 38.3322C75.9261 38.4152 76.2041 38.4742 76.4761 38.5322C76.8434 38.5829 77.1997 38.6948 77.5301 38.8632C77.7322 38.9687 77.9062 39.121 78.0373 39.3075C78.1685 39.494 78.2531 39.7093 78.2841 39.9352C78.352 40.4506 78.326 40.974 78.2071 41.4802C78.0572 42.0954 77.8451 42.6938 77.5741 43.2662C76.9636 44.6444 76.1454 45.9209 75.1481 47.0512C74.3213 48.08 73.3435 48.9778 72.2481 49.7142C71.6831 50.0717 71.0704 50.3474 70.4281 50.5332C70.331 50.5499 70.2327 50.5593 70.1341 50.5612C69.9201 50.5676 69.7071 50.5288 69.5091 50.4473C69.3111 50.3657 69.1326 50.2434 68.9851 50.0882C68.719 49.796 68.4869 49.4746 68.2931 49.1302C68.2061 48.9822 68.1171 48.8362 68.0241 48.7012L61.9521 39.4012L60.5001 37.1662ZM75.5691 35.4142C75.2971 35.3582 75.0221 35.3002 74.7411 35.2292C74.4601 35.1582 74.1691 35.0902 73.8821 35.0132L73.2051 34.8372C72.9581 34.7692 72.7051 34.7012 72.4671 34.6522C72.2671 34.6092 72.0591 34.5692 71.8031 34.5252C71.6031 34.4882 71.4031 34.4512 71.2031 34.4052C71.0241 34.3622 70.8451 34.3122 70.6621 34.2632L70.5081 34.2202C70.3381 34.1712 70.1681 34.1202 69.9921 34.0782C69.6611 33.9912 69.3311 33.9112 69.0001 33.8402C68.8151 33.7972 68.6291 33.7602 68.4441 33.7232C68.2251 33.6802 68.0051 33.6362 67.7831 33.5812C67.5111 33.5192 67.2391 33.4512 66.8471 33.3522L66.2541 33.1942C65.9601 33.1202 65.6671 33.0432 65.3671 32.9752L64.4031 32.7622C64.0111 32.6792 63.6151 32.5922 63.2231 32.4992C62.7591 32.3942 62.3051 32.2672 61.8701 32.1412C61.7931 32.0332 61.7031 31.9062 61.5701 31.7122C61.4901 31.5882 61.4061 31.4652 61.3171 31.3382L61.4251 31.1382C61.5214 30.9209 61.6341 30.7113 61.7621 30.5112C61.8275 30.4296 61.9097 30.363 62.0031 30.3162C63.0101 29.7882 64.0211 29.2842 65.2321 28.6882C65.7571 28.4282 66.2861 28.1752 66.8141 27.9222C67.3421 27.6692 67.8741 27.4062 68.4021 27.1502C68.8254 26.9402 69.2468 26.7268 69.6661 26.5102C69.9781 26.3495 70.2931 26.1888 70.6111 26.0282L74.6961 23.9982C74.8571 23.9212 75.0081 23.8372 75.1691 23.7542C75.3301 23.6712 75.4901 23.5782 75.6511 23.5012C75.9756 23.3321 76.3362 23.2442 76.7021 23.2452C77.0973 23.2684 77.4744 23.4189 77.7771 23.6742C78.6276 24.3697 79.2561 25.2988 79.5851 26.3472L79.7331 26.7472C79.8661 27.1152 80.0051 27.4892 80.1041 27.8662C80.1835 28.2014 80.2433 28.541 80.2831 28.8832L80.3881 29.5722C80.4161 29.7392 80.4441 29.9032 80.4621 30.0542L80.5701 31.1352L80.5141 31.7812C80.4911 32.2515 80.4333 32.7194 80.3411 33.1812C80.2157 34.0714 79.8097 34.8985 79.1821 35.5422C79.017 35.7019 78.8162 35.8199 78.5964 35.8865C78.3766 35.9531 78.1441 35.9664 77.9181 35.9252C77.5033 35.869 77.0924 35.7865 76.6881 35.6782L75.5691 35.4142ZM75.2291 20.5142C74.7841 20.7892 74.2991 21.0272 73.8291 21.2622L65.5821 25.3782C65.0601 25.6312 64.5351 25.8882 64.0121 26.1472L62.7671 26.7802C62.0501 27.1482 61.2991 27.5252 60.6321 27.8552C60.5502 27.8535 60.4686 27.8452 60.3881 27.8302L60.1561 27.8052C60.0707 27.7949 59.9862 27.7785 59.9031 27.7562C59.7981 27.7282 59.6901 27.7072 59.5661 27.6852C59.5261 27.5642 59.4861 27.4352 59.4301 27.2852C59.3342 27.0296 59.2537 26.7684 59.1891 26.5032C59.209 26.3896 59.2381 26.2779 59.2761 26.1692C59.2959 26.1138 59.3112 26.0569 59.3221 25.9992L59.4731 25.4612C59.5381 25.2352 59.6061 25.0102 59.6551 24.7812C59.7421 24.4322 59.8191 24.0812 59.8961 23.7302L60.3691 21.7302C60.4121 21.5602 60.4621 21.3902 60.4961 21.2302L61.3831 17.6062C61.4201 17.4272 61.4511 17.2512 61.4831 17.0752C61.5231 16.8462 61.5661 16.6182 61.6161 16.3982C61.6661 16.1782 61.7161 15.9872 61.7771 15.7802L62.4101 13.1722C62.5611 12.5012 62.7101 11.8092 62.8891 11.1392C63.0248 10.6443 63.2014 10.1617 63.4171 9.69616C63.4721 9.58483 63.5659 9.49741 63.6807 9.45028C63.7956 9.40315 63.9238 9.39955 64.0411 9.44016C65.5881 9.79109 67.061 10.4123 68.3921 11.2752C69.3971 11.875 70.3655 12.5341 71.2921 13.2492C72.6614 14.2799 73.8793 15.4978 74.9101 16.8672C75.3385 17.4311 75.6759 18.0588 75.9101 18.7272C75.9314 18.8352 75.9428 18.945 75.9441 19.0552L75.9691 19.5772C75.9441 19.8862 75.7691 20.1772 75.2241 20.5102M60.3891 9.58316C60.3611 9.79916 60.3021 10.0122 60.2501 10.2382L60.2071 10.3962C60.1611 10.5632 60.1171 10.7272 60.0311 11.0052C59.9751 11.2052 59.9141 11.4052 59.8701 11.6142C59.8021 11.8772 59.7491 12.1452 59.6971 12.4272L59.5891 12.9522C59.5181 13.2952 59.4381 13.6442 59.3571 13.9752L59.1191 14.8532C59.0051 15.2732 58.8931 15.6932 58.7911 16.1232C58.7351 16.3452 58.6911 16.5682 58.6461 16.8032C58.6121 16.9982 58.5781 17.1952 58.5291 17.3932C58.4801 17.5912 58.4181 17.8132 58.3591 18.0232L58.1641 18.7232C58.0841 19.0382 58.0131 19.3602 57.9451 19.6812L57.8031 20.4072C57.7691 20.5832 57.7351 20.7622 57.6981 20.9202L57.3251 22.3192C57.2481 22.6092 57.1711 22.9002 57.1181 23.1722C57.0651 23.3852 57.0181 23.5982 56.9791 23.8122L56.9271 24.0532C56.8441 24.4732 56.7541 24.8902 56.6271 25.3972C56.5131 25.8512 56.4761 25.8642 56.3981 25.8972C56.1427 25.9972 55.9053 26.138 55.6951 26.3142C55.5268 26.2084 55.3448 26.1263 55.1541 26.0702C55.0001 26.0272 54.8541 25.9492 54.7181 25.5172C54.6281 25.2512 54.5511 24.9792 54.4711 24.7012L54.2611 24.0012C54.1931 23.7752 54.1131 23.5472 54.0201 23.2662C53.9031 22.9172 53.7881 22.5662 53.6831 22.2372L53.4671 21.4552C53.3871 21.1432 53.2971 20.8282 53.2011 20.5192C53.1141 20.2292 53.0161 19.9412 52.9141 19.6412C52.8341 19.4282 52.7601 19.2152 52.6921 19.0112L52.2251 17.4742C52.1251 17.1622 52.0331 16.8472 51.9351 16.5442C51.8761 16.3372 51.8051 16.1332 51.7351 15.9232L51.6731 15.7382C51.5831 15.4912 51.5031 15.2382 51.4171 14.9842C51.3461 14.7552 51.2751 14.5242 51.2071 14.2922L50.9071 13.3032C50.7531 12.7932 50.5981 12.2862 50.4371 11.7832L49.8611 10.0142C49.8438 9.89246 49.8063 9.77451 49.7501 9.66516C49.6571 9.48616 49.5551 9.28516 50.0221 8.72016C50.4018 8.3198 50.8817 8.02838 51.4121 7.87616C51.7681 7.75673 52.1303 7.65658 52.4971 7.57616C52.6971 7.53016 52.9081 7.47616 53.1121 7.42816C53.5181 7.34126 53.9331 7.30398 54.3481 7.31716C54.6631 7.31716 54.9851 7.31716 55.3581 7.28316H55.6181H55.7941C56.6266 7.28172 57.4546 7.40578 58.2501 7.65116C58.809 7.79098 59.3357 8.0375 59.8011 8.37716C60.001 8.50388 60.1617 8.68367 60.2654 8.89645C60.3691 9.10923 60.4115 9.34663 60.3881 9.58216M49.8251 19.1982C49.9981 19.7362 50.1741 20.2732 50.3411 20.8172C50.4031 21.0172 50.4581 21.2172 50.5111 21.4292L50.6111 21.7692C50.6731 21.9912 50.7381 22.2142 50.8061 22.4332C50.9061 22.7452 51.0061 23.0482 51.1121 23.3482L51.3651 24.0962C51.4581 24.3902 51.5471 24.6832 51.6341 24.9802L52.2091 26.7572C52.2762 26.9965 52.2696 27.2506 52.1901 27.4862L52.1501 27.6532C52.103 27.8174 52.0659 27.9844 52.0391 28.1532L51.4271 28.3292C51.2795 28.3681 51.1367 28.4231 51.0011 28.4932C50.7601 28.4502 50.5251 28.3882 50.2901 28.3292L48.1091 27.7602C47.7601 27.6702 47.4091 27.5872 47.0651 27.5132L46.2651 27.3432C45.8111 27.2502 45.3471 27.1512 44.8901 27.0432C44.5161 26.9562 44.1451 26.8552 43.7781 26.7562C43.4471 26.6632 43.1201 26.5742 42.7891 26.4962C42.5731 26.4402 42.3531 26.3962 42.0811 26.3482C41.9081 26.3142 41.7321 26.2832 41.5561 26.2432C41.3061 26.1842 41.0561 26.1192 40.8081 26.0512L40.2801 25.9092C39.9621 25.8292 39.6561 25.7552 39.3341 25.6802L38.7691 25.5532C38.5191 25.5002 38.2691 25.4452 38.0211 25.3862L36.1981 24.9602C35.9111 24.8952 35.6171 24.8302 35.3271 24.7532L35.0891 24.6912C34.7655 24.6175 34.4499 24.512 34.1471 24.3762C34.0157 24.3149 33.906 24.2152 33.8326 24.0901C33.7592 23.9651 33.7256 23.8207 33.7361 23.6762L33.7301 23.1292C33.7415 22.5961 33.8786 22.0733 34.1301 21.6032L34.2071 21.4182C34.7826 20.1303 35.5065 18.9141 36.3641 17.7942C36.6448 17.4121 36.9452 17.0449 37.2641 16.6942L37.3941 16.5462C37.5701 16.3462 37.7461 16.1382 37.9221 15.9252C38.622 15.0772 39.3877 14.2857 40.2121 13.5582C41.5137 12.3198 42.9734 11.2589 44.5531 10.4032C45.071 10.1391 45.6249 9.95273 46.1971 9.85016C46.2531 9.83918 46.3101 9.83415 46.3671 9.83516C46.5521 9.83516 46.8271 9.89416 47.0311 10.3792C47.1356 10.6445 47.2201 10.9173 47.2841 11.1952C47.3401 11.4112 47.3981 11.6282 47.4631 11.8322C47.5461 12.1012 47.6391 12.3732 47.7351 12.6452C47.8311 12.9172 47.9141 13.1612 47.9981 13.4112L48.6981 15.7412C48.8491 16.2412 49.0131 16.7332 49.2231 17.3662L49.8251 19.1982ZM34.0201 27.3062C34.2611 27.3552 34.5021 27.4232 34.7461 27.4912L36.7361 27.9912C37.0671 28.0712 37.4001 28.1492 37.7311 28.2232L39.1741 28.5322C39.7051 28.6532 40.2371 28.7792 40.7591 28.9122L41.7321 29.1622C42.1491 29.2702 42.5691 29.3812 42.9861 29.4832C43.2081 29.5392 43.4371 29.5882 43.7461 29.6502C43.8971 29.6812 44.0461 29.7122 44.2061 29.7502C44.4411 29.8062 44.6791 29.8672 44.9141 29.9292L45.7391 30.1422C46.0051 30.2132 46.2671 30.2782 46.5241 30.3302C46.7591 30.3832 47.0001 30.4302 47.2321 30.4692L47.8011 30.5772C48.1131 30.6422 48.4251 30.7192 48.7371 30.7962L48.9251 30.8422C49.3251 30.9422 49.7351 31.0422 50.1421 31.1542C50.3421 31.4202 50.5421 31.6952 50.7171 31.9792C50.6369 32.1843 50.5364 32.381 50.4171 32.5662C50.292 32.8097 50.116 33.0235 49.9011 33.1932C48.9341 33.8172 47.9701 34.4812 47.0341 35.1272L46.5611 35.4552C45.1124 36.4612 43.6671 37.4712 42.2251 38.4852L41.6071 38.9182C41.1851 39.2658 40.6538 39.4528 40.1071 39.4462C39.4607 39.4386 38.8146 39.4747 38.1731 39.5542L37.9601 39.5732C37.7221 39.5952 37.4751 39.6162 37.2401 39.6322C36.0101 39.7062 34.7801 39.7772 33.4271 39.8452C33.0065 38.96 32.6794 38.0333 32.4511 37.0802L31.8701 34.6612L31.5761 31.6852L31.6381 31.0552C31.6797 30.485 31.7518 29.9176 31.8541 29.3552C31.9418 28.6876 32.2306 28.0626 32.6821 27.5632C32.8586 27.4013 33.0764 27.2914 33.3115 27.2455C33.5465 27.1997 33.7897 27.2196 34.0141 27.3032M31.9871 48.0852C32.2621 48.7462 32.5491 49.4072 32.8431 50.0562C33.3931 51.2955 33.9504 52.5325 34.5151 53.7672L36.2821 57.6882C36.5011 58.1792 36.7241 58.6832 36.9251 59.1882C37.0172 59.4737 37.0027 59.7829 36.8846 60.0586C36.7664 60.3343 36.5524 60.5579 36.2821 60.6882C35.9186 60.8663 35.5376 61.0061 35.1451 61.1052C34.8171 61.2052 34.4901 61.2722 34.1501 61.3462L33.7331 61.4462C33.2761 61.4742 32.8281 61.5142 32.3461 61.5542C31.2954 61.68 30.2358 61.7151 29.1791 61.6592L28.6971 61.6222C28.201 61.5943 27.7069 61.5386 27.2171 61.4552C26.3886 61.3119 25.5709 61.1115 24.7701 60.8552C24.5824 60.8002 24.4089 60.7051 24.2616 60.5765C24.1143 60.4479 23.9968 60.2887 23.9171 60.1102C23.8471 59.8838 23.8176 59.6468 23.8301 59.4102C23.872 59.0458 23.9899 58.6942 24.1761 58.3782C24.2291 58.2672 24.2841 58.1562 24.3271 58.0472C24.7381 57.0612 25.2011 56.0142 25.7271 54.8472C25.9001 54.4582 26.0821 54.0712 26.2621 53.6852L26.5181 53.1352C26.7931 52.5572 27.0591 51.9822 27.3181 51.4052C27.5441 50.9202 27.7541 50.4322 27.9641 49.9442L28.8141 48.0072C29.2083 48.1006 29.6098 48.1605 30.0141 48.1862C30.6732 48.2586 31.3397 48.2248 31.9881 48.0862M59.2441 52.8572C59.3741 52.4182 59.4911 51.9702 59.6021 51.5252L59.8431 50.5672C59.8801 50.4282 59.9141 50.2922 59.9541 50.1672C60.3182 48.8484 60.4899 47.484 60.4641 46.1162C60.504 45.0382 60.4316 43.9591 60.2481 42.8962C60.1891 42.5902 60.1481 42.2722 60.1121 41.9572L60.0841 41.7252L60.0781 41.6852L63.9191 47.5932C64.2158 48.0378 64.5081 48.4838 64.7961 48.9312L65.1581 49.4932C65.5971 50.1672 66.0481 50.8622 66.4401 51.5722C66.5738 51.812 66.6265 52.0886 66.5905 52.3608C66.5545 52.633 66.4316 52.8863 66.2401 53.0832C65.8092 53.6431 65.257 54.0981 64.6251 54.4142C63.5916 54.9608 62.4947 55.3779 61.3591 55.6562C60.7381 55.8172 60.0981 55.9222 59.3851 56.0332L59.0301 56.0892C58.6751 56.1482 58.3301 56.1892 57.9791 56.2102L58.2791 55.5102C58.4031 55.2102 58.5261 54.9232 58.6281 54.6322C58.8131 54.1472 59.0391 53.5102 59.2371 52.8552M25.5371 48.3992L24.8731 49.8792C24.4684 50.7878 24.0648 51.6962 23.6621 52.6042L21.5331 57.3782L21.0481 58.5272C20.9635 58.7634 20.803 58.965 20.5917 59.1003C20.3803 59.2357 20.1301 59.2971 19.8801 59.2752L18.6801 59.0282C17.5022 58.7183 16.3795 58.2275 15.3521 57.5732C14.9973 57.3482 14.666 57.0883 14.3631 56.7972C14.2021 56.6492 14.0791 56.4512 14.3781 56.1082C14.631 55.8199 14.9256 55.5712 15.2521 55.3702C15.7188 55.0613 16.1685 54.7275 16.5991 54.3702L25.8071 47.3002C25.9211 47.2132 26.0331 47.1272 26.1501 47.0372C25.9501 47.4912 25.7501 47.9422 25.5321 48.4002M21.8981 61.1552L21.8831 61.1772V61.1712L21.8981 61.1552ZM33.9981 42.6552C34.2451 42.6332 34.4921 42.6152 34.7401 42.5962C34.7091 42.6732 34.6721 42.7572 34.6351 42.8492C34.3824 43.4836 33.9717 44.043 33.4421 44.4742C32.8791 44.965 32.1696 45.2561 31.4241 45.3022L31.1091 45.3142C30.6177 45.3399 30.125 45.3295 29.6351 45.2832C28.8032 45.1663 28.0422 44.7508 27.4941 44.1142C27.1133 43.7032 26.8153 43.2228 26.6161 42.6992L26.5941 42.6402L26.8381 42.6492C28.1231 42.6922 29.3591 42.7392 30.5891 42.7882C31.7278 42.8159 32.8671 42.7715 34.0001 42.6552M18.9881 48.9882C18.2741 49.5442 17.5541 50.1032 16.8341 50.6472L16.1341 51.1692C15.2441 51.8432 14.2341 52.6032 13.2341 53.2522C12.9892 53.4522 12.6753 53.5475 12.3605 53.5174C12.0457 53.4872 11.7556 53.3341 11.5531 53.0912C10.7135 52.3053 10.0673 51.3356 9.6651 50.2582C9.4701 49.7142 9.5141 49.5102 9.7451 49.2662C9.998 49.2148 10.247 49.1456 10.4901 49.0592L11.5001 48.7592C11.9291 48.6352 12.3591 48.5122 12.7851 48.3822C13.0451 48.3022 13.3011 48.2182 13.6531 48.1072C13.9531 48.0072 14.2591 47.9072 14.5741 47.8202C14.8891 47.7332 15.1921 47.6532 15.5101 47.5732L16.3291 47.3602C16.7291 47.2492 17.1291 47.1312 17.5221 47.0142L20.7791 46.0352C21.1221 45.9242 21.4651 45.8132 21.8081 45.7142C22.1661 45.6142 22.5341 45.5192 22.9571 45.4142L23.8041 45.2012C23.8781 45.1822 23.9621 45.1642 24.0421 45.1422L18.9881 48.9882ZM9.4001 61.4142C10.1001 62.0072 10.8401 62.5482 11.5851 63.0892L12.3171 63.6272C13.7403 64.6406 15.2486 65.529 16.8251 66.2822C17.4581 66.6002 18.1251 66.8722 18.7721 67.1322L19.1611 67.2902C19.9061 67.5902 20.5821 67.8462 21.2281 68.0662C21.4866 68.1483 21.7497 68.2151 22.0161 68.2662L24.1701 68.8102V69.0572L24.4941 68.8962L25.2761 69.0232C25.7521 69.0942 26.2401 69.1682 26.7341 69.2082C27.0211 69.2302 27.3061 69.2612 27.6791 69.3012C28.4851 69.4082 29.2988 69.4444 30.1111 69.4092L31.1771 69.3352C31.6961 69.3042 32.2091 69.2672 32.7221 69.2242L33.0901 69.1962C33.8561 69.1282 34.6471 69.0572 35.4261 68.9362C36.0161 68.8362 36.6001 68.7042 37.1691 68.5682L38.5871 68.2682C38.8131 68.2282 39.0411 68.1882 39.2791 68.1352C39.5631 68.0702 39.8631 67.9902 40.1601 67.8912C40.5831 67.7552 41.0101 67.6072 41.4331 67.4622L42.1531 67.2152C42.4591 67.1152 42.7651 67.0152 43.0651 66.8912L43.3831 66.7612C44.2391 66.4122 45.1191 66.0502 45.9721 65.6552C47.1727 65.0976 48.3332 64.4574 49.4451 63.7392C49.5281 63.6832 49.6121 63.6282 49.7011 63.5722C49.3801 63.8932 49.0301 64.2272 48.6381 64.5892C46.9438 66.1808 45.0292 67.5202 42.9531 68.5662C42.0851 68.9892 41.1021 69.4712 40.1471 69.8422C39.6143 70.0361 39.0707 70.1991 38.5191 70.3302C38.2751 70.3922 38.0281 70.4572 37.7931 70.5252L36.3721 70.9082L35.5471 70.9912C35.0651 71.0402 34.5611 71.0912 34.0761 71.1792C33.1756 71.316 32.2645 71.3709 31.3541 71.3432L30.5101 71.3492C29.6511 71.3582 28.7701 71.3612 27.8961 71.3092C27.2766 71.2645 26.6598 71.1881 26.0481 71.0802L25.4151 70.9802C24.9081 70.9062 24.3741 70.8252 23.8791 70.7082C23.2521 70.5542 22.6151 70.3622 21.9051 70.1492C21.4862 70.0315 21.0737 69.8923 20.6691 69.7322L20.1691 69.5322C19.4691 69.2482 18.7381 68.9542 18.0741 68.6082C16.1755 67.6317 14.3946 66.4417 12.7661 65.0612C11.7935 64.217 10.8694 63.3185 9.9981 62.3702C9.5041 61.8352 9.0151 61.2552 8.5241 60.6182C8.8081 60.8902 9.0991 61.1592 9.4051 61.4182M23.1401 42.3632H23.3531L20.7081 43.1292C20.2911 43.2432 19.8711 43.3582 19.4541 43.4782C19.1601 43.5652 18.8701 43.6572 18.5021 43.7782C18.2391 43.8612 17.9741 43.9452 17.7021 44.0222C17.4301 44.0992 17.1461 44.1802 16.8021 44.2722C16.4961 44.3492 16.2021 44.4262 15.9021 44.5132C15.5901 44.6032 15.2841 44.6982 14.9021 44.8132C14.6551 44.8932 14.4021 44.9712 14.1391 45.0482L11.5251 45.7962C11.1731 45.9042 10.8251 46.0092 10.4711 46.1082C10.2081 46.1822 9.9431 46.2472 9.6951 46.3082L9.4601 46.3672C9.37154 46.3616 9.28276 46.3738 9.19897 46.403C9.11517 46.4322 9.03805 46.4778 8.9721 46.5372C8.84762 46.4986 8.72571 46.4521 8.6071 46.3982C8.38011 46.308 8.19716 46.133 8.0971 45.9102C7.73694 45.2155 7.5364 44.4492 7.5101 43.6672C7.5041 43.4072 7.5101 43.1482 7.5101 42.8852L7.5221 42.1772C7.53745 41.904 7.64454 41.644 7.82602 41.4393C8.0075 41.2346 8.25277 41.0971 8.5221 41.0492C8.70489 41.0287 8.88647 40.9987 9.0661 40.9592C9.25664 40.9146 9.45144 40.8908 9.6471 40.8882H9.6961C9.8631 40.9072 10.0301 40.9282 10.2711 40.9652L10.5371 41.0022C10.6195 41.0215 10.703 41.0358 10.7871 41.0452L11.7871 41.1452C12.2781 41.1912 12.7701 41.2452 13.2611 41.3032C13.8451 41.3712 14.4201 41.4612 14.9971 41.5472L15.8501 41.6772C15.9401 41.6922 16.0261 41.7022 16.1161 41.7112L17.0611 41.7882C17.7251 41.8412 18.3931 41.8932 19.0541 41.9582C19.5171 42.0072 19.9781 42.0662 20.4351 42.1252L20.6081 42.1442C21.1081 42.2092 21.5971 42.2712 22.0881 42.3202C22.4221 42.3512 22.7591 42.3602 23.1391 42.3662M80.6041 46.6522C80.3806 47.0623 80.1276 47.4557 79.8471 47.8292L79.4331 48.3792C78.8611 49.1332 78.2741 49.9152 77.6441 50.6252C76.2399 52.2503 74.6501 53.7052 72.9071 54.9602C71.2587 56.1777 69.4728 57.1971 67.5861 57.9972L67.3941 58.0742C66.4731 58.4482 65.5221 58.8372 64.5791 59.1682C64.1346 59.311 63.6817 59.4265 63.2231 59.5142L62.1851 59.7492C61.5211 59.9002 60.8381 60.0552 60.1581 60.1752C59.5551 60.2862 58.9448 60.353 58.3321 60.3752C57.4731 60.4032 56.5741 60.4092 55.7401 60.4032L56.5901 59.0132C56.6647 59.0271 56.7403 59.0344 56.8161 59.0352C57.1871 59.0292 57.5611 59.0042 57.9251 58.9762L58.7381 58.9232C59.6375 58.8934 60.5298 58.7533 61.3951 58.5062C61.6051 58.4472 61.8181 58.4012 62.1401 58.3332C62.5753 58.2502 63.0046 58.1386 63.4251 57.9992C64.378 57.6827 65.2963 57.2706 66.1661 56.7692C66.9953 56.2996 67.7375 55.6907 68.3601 54.9692C68.7625 54.4808 69.0649 53.9182 69.2501 53.3132L69.5961 53.3872C69.7873 53.4336 69.9859 53.4411 70.1801 53.4092C71.5366 53.2321 72.8296 52.7272 73.9471 51.9382C75.1827 51.0771 76.2967 50.0536 77.2591 48.8952C77.9786 48.0441 78.6274 47.1358 79.1991 46.1792C79.7012 45.334 80.1359 44.4506 80.4991 43.5372C80.7698 42.8516 80.9656 42.1388 81.0831 41.4112C81.2434 40.5827 81.2054 39.7281 80.9721 38.9172C80.8767 38.6104 80.7545 38.3126 80.6071 38.0272C81.3427 37.5394 81.9254 36.8537 82.2881 36.0492C82.6555 35.2826 82.9214 34.4714 83.0791 33.6362C83.3192 32.2203 83.364 30.7782 83.2121 29.3502C83.1461 28.6863 83.0169 28.0304 82.8261 27.3912L82.6531 26.6912C82.3963 25.6553 81.9947 24.6608 81.4601 23.7372C80.8667 22.5864 79.958 21.6284 78.8401 20.9752C78.7531 20.9292 78.6671 20.8852 78.5681 20.8392L78.6171 20.7252C78.9121 19.9179 78.9318 19.0358 78.6731 18.2162C78.168 16.5932 77.2824 15.1145 76.0901 13.9032C74.8912 12.5861 73.555 11.401 72.1041 10.3682C70.9733 9.52082 69.7684 8.77715 68.5041 8.14616C67.6465 7.71148 66.7507 7.35665 65.8281 7.08616C65.4102 6.97549 64.9847 6.89594 64.5551 6.84816C64.3601 6.82616 64.1661 6.79916 63.9651 6.76116C63.4374 6.70658 62.9048 6.79501 62.4231 7.01716C61.9544 6.41035 61.353 5.91881 60.6651 5.58016C59.9383 5.21042 59.1645 4.94128 58.3651 4.78016C57.1981 4.51895 56.0049 4.39345 54.8091 4.40616C54.5576 4.42025 54.3075 4.45368 54.0611 4.50616C53.9228 4.53539 53.7823 4.55311 53.6411 4.55916C52.7129 4.5985 51.7951 4.77127 50.9161 5.07216C50.3746 5.25174 49.8529 5.4863 49.3591 5.77216L49.0591 5.93316C48.4673 6.2338 47.957 6.67333 47.5721 7.21416C46.4509 6.93436 45.2685 7.03424 44.2101 7.49816C43.033 7.97646 41.9219 8.60357 40.9041 9.36416C39.9955 10.0264 39.1273 10.7423 38.3041 11.5082L38.0101 11.7712C37.085 12.624 36.2165 13.5363 35.4101 14.5022C34.0237 16.0548 32.8516 17.7862 31.9251 19.6502C31.4508 20.6063 31.1028 21.6202 30.8901 22.6662C30.7281 23.5042 30.833 24.3719 31.1901 25.1472C30.4784 25.6717 29.9315 26.3889 29.6141 27.2142C29.1849 28.2348 28.9522 29.3272 28.9281 30.4342C28.9244 30.5683 28.9111 30.702 28.8881 30.8342C28.8465 31.0987 28.8301 31.3665 28.8391 31.6342C28.8581 31.9342 28.8761 32.2342 28.8881 32.5612C28.9016 33.3773 28.9843 34.1909 29.1351 34.9932C29.1781 35.1812 29.2061 35.3732 29.2351 35.5682L29.2571 35.7222C29.2932 36.0296 29.3449 36.335 29.4121 36.6372C29.5421 37.1842 29.7061 37.7282 29.8691 38.2532L29.9831 38.6332C30.1411 39.1682 30.2831 39.6192 30.4311 40.0452C30.2021 40.0452 29.9741 40.0392 29.7481 40.0302C29.2811 40.0082 28.8121 39.9502 28.4221 39.8972C28.3221 39.5352 28.2401 39.1682 28.1501 38.7822L28.0501 38.3372C27.9821 38.0532 27.9171 37.7722 27.8551 37.4842L27.5401 35.8932L27.4971 35.7392C27.2384 33.7583 27.1691 31.7572 27.2901 29.7632C27.3671 28.5582 27.5531 27.3632 27.7011 26.4512C27.8383 25.7257 28.0126 25.0078 28.2231 24.3002L28.3931 23.7002C28.5903 22.928 28.8287 22.1669 29.1071 21.4202C29.5521 20.2612 30.0991 19.1372 30.5721 18.1912C31.1484 17.068 31.8128 15.9923 32.5591 14.9742C33.5449 13.5877 34.6522 12.2919 35.8681 11.1022C37.3073 9.69607 38.8884 8.44303 40.5861 7.36316C41.7537 6.62062 42.9694 5.95649 44.2251 5.37516C44.818 5.11219 45.4245 4.88119 46.0421 4.68316L46.7001 4.45716C47.3831 4.22216 48.0901 3.97216 48.7951 3.78316C49.5671 3.58316 50.3681 3.43116 51.1251 3.29516C51.7061 3.19016 52.2841 3.11016 52.8681 3.02616L53.5251 2.93416C53.8685 2.89288 54.2146 2.8795 54.5601 2.89416H55.0981C56.0531 2.88816 57.0421 2.87916 58.0061 2.91316C58.6364 2.95724 59.2637 3.03669 59.8851 3.15116L60.4471 3.23816C60.9661 3.31516 61.4791 3.39916 62.0821 3.51316C62.3792 3.56165 62.6726 3.63082 62.9601 3.72016C63.3431 3.84716 63.7291 3.95816 64.1341 4.07216C64.5541 4.19316 64.9931 4.31616 65.4131 4.47216L65.8211 4.62016C66.4141 4.83616 67.0211 5.05616 67.5981 5.32016C68.4261 5.69716 69.3101 6.11116 70.1631 6.59316C70.8831 7.00116 71.5871 7.46416 72.2831 7.92516L72.6831 8.19416C73.0011 8.40416 73.3071 8.63916 73.6901 8.93616L73.8321 9.04716C74.7823 9.81256 75.6872 10.6326 76.5421 11.5032C77.5627 12.5187 78.4969 13.6175 79.3351 14.7882C80.2263 15.9986 81.0061 17.2872 81.6651 18.6382L81.8911 19.1112C82.2512 19.8101 82.573 20.5282 82.8551 21.2622C83.3059 22.3899 83.6644 23.5524 83.9271 24.7382C84.0411 25.3072 84.1711 25.8782 84.2981 26.4472L84.5111 27.3992C84.5361 27.8902 84.5911 28.3822 84.6501 28.8542C84.7378 29.4755 84.7783 30.1027 84.7711 30.7302C84.7591 31.0732 84.7591 31.4192 84.7591 31.7652V32.0142C84.7591 32.4962 84.7651 32.9932 84.7341 33.4752C84.6851 34.2352 84.5761 35.0142 84.4651 35.8292L84.4001 36.3022C84.3201 36.8922 84.2211 37.4112 84.1061 37.9022C83.9671 38.4952 83.7971 39.0952 83.6301 39.6762L83.5841 39.8302C83.4601 40.2502 83.3091 40.7452 83.1301 41.2362L82.9451 41.7242C82.7231 42.3362 82.4881 42.9722 82.2131 43.5592C81.7401 44.5592 81.2031 45.5492 80.6801 46.5072L80.6041 46.6522ZM53.6341 63.1272H53.6031H53.6371H53.6341Z" fill="#F5F5F5"/>
</g>
<defs>
<clipPath id="clip0_2200_663">
<rect width="87.65" height="74.207" fill="white"/>
</clipPath>
</defs>
</svg>
