<svg width="128" height="49" viewBox="0 0 128 49" fill="none" xmlns="http://www.w3.org/2000/svg">
<path d="M100.317 39.3612C98.0849 38.6872 97.5192 38.2029 97.5192 37.2972C97.5192 36.4553 98.2353 35.8232 99.4559 35.8232C100.066 35.8017 100.667 35.9733 101.174 36.3137C101.681 36.654 102.067 37.1457 102.278 37.7186L104.721 36.3084C104.268 35.2992 103.526 34.4467 102.589 33.8583C101.652 33.2699 100.562 32.972 99.4559 33.0021C96.929 33.0021 94.6129 34.6028 94.6129 37.382C94.6129 40.1795 96.7988 41.1298 99.0554 41.7829C101.241 42.4149 102.235 42.8319 102.235 43.9309C102.235 44.7518 101.623 45.4887 99.8747 45.4887C99.1392 45.5453 98.4058 45.3543 97.7914 44.9461C97.177 44.5378 96.7168 43.9358 96.484 43.2358L94 44.6871C94.8 46.877 96.7795 48.33 99.7916 48.33C102.93 48.33 105.14 46.6454 105.14 43.8871C105.14 40.8763 102.655 40.0973 100.317 39.3604" fill="#737374"/>
<path d="M27.7871 25.0374L44.1977 34.511C44.3837 34.6184 44.5889 34.688 44.8018 34.716C45.0147 34.744 45.231 34.7298 45.4383 34.6743C45.6457 34.6187 45.8401 34.5228 46.0104 34.3922C46.1808 34.2615 46.3237 34.0985 46.431 33.9126C46.5383 33.7267 46.608 33.5214 46.636 33.3086C46.664 33.0958 46.6499 32.8795 46.5943 32.6722C46.5387 32.4648 46.4428 32.2704 46.3121 32.1001C46.1814 31.9298 46.0184 31.7869 45.8325 31.6796L29.4218 22.2013C29.0469 21.9958 28.6064 21.9453 28.1947 22.0606C27.7829 22.1758 27.4327 22.4477 27.219 22.818C27.0053 23.1883 26.9451 23.6275 27.0512 24.0416C27.1574 24.4558 27.4216 24.8118 27.7871 25.0336" fill="#2B2929"/>
<path d="M90.2948 38.0484L68.4652 25.4402C68.3953 25.4006 68.3226 25.3661 68.2477 25.3371C67.9877 25.1292 67.6704 25.0056 67.3383 24.9829C67.0061 24.9601 66.6749 25.0393 66.389 25.2097L45.605 37.592L24.9586 25.6707V1.67484C24.9638 1.4568 24.9253 1.23992 24.8455 1.03696C24.7656 0.833995 24.646 0.649054 24.4937 0.493003C24.3413 0.336953 24.1593 0.212945 23.9583 0.12828C23.7573 0.0436159 23.5414 0 23.3233 0C23.1052 0 22.8894 0.0436159 22.6884 0.12828C22.4874 0.212945 22.3054 0.336953 22.153 0.493003C22.0006 0.649054 21.881 0.833995 21.8012 1.03696C21.7213 1.23992 21.6829 1.4568 21.6881 1.67484V25.6865L0.829749 38.1107C0.640232 38.218 0.474053 38.3621 0.34096 38.5345C0.207868 38.7069 0.110543 38.9041 0.0546949 39.1147C-0.00115371 39.3252 -0.0144013 39.5447 0.0157293 39.7605C0.0458598 39.9762 0.118762 40.1837 0.230159 40.3708C0.341555 40.558 0.489204 40.721 0.664442 40.8504C0.839681 40.9797 1.03898 41.0727 1.25065 41.124C1.46232 41.1753 1.6821 41.1838 1.89709 41.149C2.11209 41.1142 2.31796 41.0368 2.50265 40.9214L23.3349 28.5121L44.4377 40.6955C44.696 40.9439 45.0287 41.1005 45.3847 41.1413C45.7407 41.1821 46.1002 41.1049 46.408 40.9214L67.2403 28.5112L88.6581 40.8777C89.0331 41.0832 89.4736 41.1337 89.8853 41.0184C90.2971 40.9031 90.6473 40.6312 90.861 40.2608C91.0747 39.8904 91.1349 39.4511 91.0288 39.0369C90.9226 38.6227 90.6584 38.2665 90.2929 38.0447" fill="#2B2929"/>
<path d="M124.791 27.5042L108.41 37.0282C108.224 37.1361 108.062 37.2795 107.931 37.4502C107.801 37.621 107.706 37.8156 107.651 38.0232C107.596 38.2307 107.583 38.4471 107.611 38.6598C107.64 38.8726 107.71 39.0776 107.818 39.2632C107.926 39.4488 108.069 39.6113 108.24 39.7415C108.411 39.8717 108.605 39.9669 108.813 40.0219C109.02 40.0768 109.237 40.0903 109.45 40.0616C109.662 40.033 109.867 39.9627 110.053 39.8547L126.438 30.3331C126.803 30.1101 127.066 29.753 127.171 29.3385C127.276 28.924 127.214 28.4849 126.999 28.1154C126.784 27.7458 126.433 27.4751 126.021 27.3612C125.609 27.2473 125.169 27.2993 124.795 27.5061" fill="#2B2929"/>
</svg>
