<svg width="118" height="50" viewBox="0 0 118 50" fill="none" xmlns="http://www.w3.org/2000/svg">
<g clip-path="url(#clip0_2191_524)">
<path d="M28.161 24.315L44.575 33.791C44.761 33.8984 44.9664 33.968 45.1793 33.996C45.3922 34.024 45.6086 34.0098 45.8161 33.9542C46.0235 33.8985 46.218 33.8026 46.3883 33.6718C46.5587 33.5411 46.7016 33.378 46.809 33.192C46.9164 33.006 46.986 32.8006 47.014 32.5877C47.042 32.3748 47.0278 32.1584 46.9722 31.9509C46.9166 31.7435 46.8206 31.549 46.6898 31.3787C46.5591 31.2083 46.396 31.0654 46.21 30.958L29.797 21.482C29.4221 21.2781 28.9824 21.2288 28.5717 21.3445C28.161 21.4602 27.8117 21.7319 27.5984 22.1014C27.3851 22.471 27.3247 22.9093 27.43 23.3228C27.5353 23.7364 27.7979 24.0924 28.162 24.315" fill="#2B2929"/>
<path d="M90.276 38.008L68.443 25.4C68.3731 25.3616 68.3006 25.3281 68.226 25.3C67.9663 25.0925 67.6495 24.9691 67.3179 24.9463C66.9863 24.9234 66.6557 25.0021 66.37 25.172L45.58 37.555L24.931 25.633V1.63299C24.9364 1.41481 24.898 1.19775 24.8183 0.994606C24.7385 0.791459 24.6189 0.606325 24.4665 0.450105C24.3141 0.293886 24.132 0.169739 23.9309 0.0849746C23.7297 0.000210628 23.5137 -0.043457 23.2955 -0.043457C23.0772 -0.043457 22.8612 0.000210628 22.6601 0.0849746C22.4589 0.169739 22.2768 0.293886 22.1244 0.450105C21.972 0.606325 21.8524 0.791459 21.7726 0.994606C21.6929 1.19775 21.6546 1.41481 21.66 1.63299V25.648L0.799961 38.073C0.612266 38.1813 0.447967 38.3259 0.316606 38.4982C0.185244 38.6706 0.0894384 38.8674 0.0347528 39.0771C-0.0199329 39.2868 -0.0324086 39.5053 -0.00194992 39.7198C0.0285088 39.9344 0.101295 40.1408 0.212181 40.327C0.323067 40.5132 0.469844 40.6755 0.643986 40.8045C0.818128 40.9335 1.01617 41.0266 1.2266 41.0784C1.43703 41.1303 1.65566 41.1398 1.86979 41.1064C2.08392 41.073 2.28929 40.9974 2.47396 40.884L23.308 28.474L44.408 40.659C44.6663 40.9075 44.9991 41.0643 45.3553 41.1051C45.7114 41.1459 46.0711 41.0686 46.379 40.885L67.219 28.474L88.64 40.841C89.0148 41.0449 89.4545 41.0942 89.8652 40.9785C90.276 40.8627 90.6252 40.5911 90.8385 40.2215C91.0518 39.852 91.1123 39.4137 91.007 39.0001C90.9017 38.5866 90.639 38.2306 90.275 38.008" fill="#2B2929"/>
<path d="M99.869 40.2C97.637 39.526 97.0689 39.042 97.0689 38.136C97.0689 37.294 97.785 36.662 99.006 36.662C99.6159 36.6407 100.217 36.8124 100.724 37.1527C101.23 37.4929 101.617 37.9844 101.828 38.557L104.271 37.147C103.818 36.1376 103.077 35.2849 102.14 34.6966C101.203 34.1082 100.113 33.8105 99.007 33.841C96.48 33.841 94.1639 35.441 94.1639 38.221C94.1639 41.021 96.3539 41.969 98.6069 42.621C100.797 43.253 101.787 43.674 101.787 44.769C101.787 45.59 101.176 46.327 99.429 46.327C98.6935 46.3836 97.9603 46.1926 97.3459 45.7843C96.7316 45.376 96.2716 44.774 96.0389 44.074L93.554 45.527C94.354 47.717 96.3329 49.17 99.3439 49.17C102.481 49.17 104.692 47.486 104.692 44.727C104.692 41.716 102.207 40.937 99.8699 40.2" fill="#737374"/>
<path d="M114.861 34.136V39.99H109.386V34.136H106.48V48.875H109.386V42.769H114.861V48.875H117.745V34.136H114.861Z" fill="#737374"/>
</g>
<defs>
<clipPath id="clip0_2191_524">
<rect width="117.745" height="49.17" fill="white"/>
</clipPath>
</defs>
</svg>
