<svg width="276" height="77" viewBox="0 0 276 77" fill="none" xmlns="http://www.w3.org/2000/svg">
<path d="M114.263 45.9839C111.71 45.2129 111.063 44.6589 111.063 43.6229C111.063 42.6599 111.882 41.9369 113.279 41.9369C113.977 41.9123 114.664 42.1087 115.244 42.498C115.823 42.8873 116.265 43.4497 116.506 44.1049L119.3 42.4919C118.782 41.3375 117.933 40.3624 116.862 39.6894C115.791 39.0163 114.544 38.6755 113.279 38.7099C110.389 38.7099 107.74 40.5409 107.74 43.7199C107.74 46.9199 110.24 48.0069 112.822 48.7539C115.322 49.4769 116.459 49.9539 116.459 51.2109C116.459 52.1499 115.759 52.9929 113.759 52.9929C112.918 53.0576 112.079 52.8391 111.376 52.3721C110.673 51.9052 110.147 51.2165 109.881 50.4159L107.039 52.0779C107.954 54.5829 110.218 56.2449 113.663 56.2449C117.252 56.2449 119.781 54.3179 119.781 51.1629C119.781 47.7189 116.939 46.8279 114.266 45.9849" fill="#737374"/>
<path d="M162.484 21.6899C159.931 20.9189 159.284 20.3649 159.284 19.3289C159.284 18.3659 160.103 17.6429 161.499 17.6429C162.197 17.6183 162.885 17.8146 163.464 18.2039C164.044 18.5933 164.486 19.1557 164.727 19.8109L167.521 18.198C167.003 17.0435 166.154 16.0683 165.083 15.3953C164.011 14.7223 162.764 14.3815 161.499 14.4159C158.609 14.4159 155.96 16.2469 155.96 19.4259C155.96 22.6259 158.46 23.7129 161.041 24.4599C163.541 25.1829 164.678 25.6599 164.678 26.9169C164.678 27.8559 163.978 28.6989 161.978 28.6989C161.137 28.7637 160.298 28.5452 159.595 28.0782C158.893 27.6112 158.366 26.9226 158.1 26.122L155.259 27.7819C156.174 30.287 158.438 31.9489 161.883 31.9489C165.472 31.9489 168 30.0219 168 26.8669C168 23.4229 165.158 22.5319 162.484 21.6889" fill="#737374"/>
<path d="M32.2129 27.8129L50.9879 38.6529C51.2009 38.781 51.4372 38.8653 51.6831 38.901C51.929 38.9367 52.1795 38.923 52.4201 38.8609C52.6607 38.7987 52.8864 38.6892 53.0842 38.5388C53.282 38.3885 53.4479 38.2002 53.5722 37.985C53.6964 37.7699 53.7766 37.5321 53.8079 37.2856C53.8393 37.0391 53.8213 36.7889 53.7549 36.5494C53.6885 36.31 53.5751 36.0862 53.4212 35.8911C53.2674 35.6959 53.0763 35.5334 52.8589 35.4129L34.0839 24.5729C33.6549 24.3351 33.1497 24.2753 32.677 24.4064C32.2043 24.5375 31.802 24.8489 31.5567 25.2737C31.3114 25.6985 31.2427 26.2027 31.3654 26.6776C31.4882 27.1525 31.7925 27.5602 32.2129 27.8129" fill="#2B2929"/>
<path d="M242.949 47.73L224.174 36.89C223.961 36.762 223.725 36.6777 223.479 36.642C223.233 36.6063 222.982 36.6199 222.742 36.6821C222.501 36.7443 222.276 36.8537 222.078 37.0041C221.88 37.1545 221.714 37.3427 221.59 37.5579C221.465 37.7731 221.385 38.0108 221.354 38.2573C221.323 38.5038 221.341 38.7541 221.407 38.9935C221.473 39.2329 221.587 39.4568 221.741 39.6519C221.894 39.847 222.086 40.0095 222.303 40.13L241.078 50.97C241.507 51.2078 242.012 51.2676 242.485 51.1365C242.958 51.0054 243.36 50.694 243.605 50.2692C243.851 49.8444 243.919 49.3403 243.796 48.8654C243.674 48.3904 243.369 47.9827 242.949 47.73" fill="#2B2929"/>
<path d="M103.264 43.476L78.29 29.057C78.2096 29.0116 78.126 28.9722 78.04 28.939C77.7428 28.7019 77.3804 28.561 77.0011 28.5351C76.6218 28.5092 76.2436 28.5995 75.917 28.794L52.137 42.958L28.517 29.321V1.871C28.517 1.37478 28.3198 0.898884 27.969 0.548003C27.6181 0.197123 27.1422 0 26.646 0C26.1497 0 25.6738 0.197123 25.323 0.548003C24.9721 0.898884 24.775 1.37478 24.775 1.871V29.338L0.912954 43.551C0.486619 43.8049 0.178624 44.2178 0.0567254 44.6989C-0.0651732 45.1799 0.00900954 45.6897 0.262954 46.116C0.516899 46.5423 0.929804 46.8503 1.41083 46.9722C1.89187 47.0941 2.40162 47.0199 2.82795 46.766L26.661 32.566L50.8 46.508C51.0955 46.792 51.4762 46.971 51.8834 47.0176C52.2906 47.0642 52.7019 46.9758 53.054 46.766L76.89 32.57L101.39 46.717C101.819 46.9548 102.324 47.0146 102.797 46.8835C103.27 46.7525 103.672 46.441 103.917 46.0162C104.163 45.5914 104.231 45.0873 104.108 44.6124C103.986 44.1374 103.681 43.7297 103.261 43.477" fill="#2B2929"/>
<path d="M148.935 28.796L124.16 43.553C123.734 43.807 123.426 44.2199 123.304 44.7009C123.182 45.1819 123.256 45.6917 123.51 46.118C123.764 46.5444 124.177 46.8524 124.658 46.9743C125.139 47.0962 125.649 47.022 126.075 46.768L150.85 32.011C151.061 31.8853 151.245 31.7192 151.392 31.5223C151.539 31.3253 151.646 31.1013 151.706 30.8631C151.766 30.625 151.779 30.3772 151.744 30.1341C151.709 29.8909 151.626 29.6571 151.5 29.446C151.374 29.2349 151.208 29.0507 151.011 28.9038C150.814 28.7568 150.59 28.6502 150.352 28.5898C150.114 28.5294 149.866 28.5166 149.623 28.552C149.38 28.5874 149.146 28.6703 148.935 28.796Z" fill="#2B2929"/>
<path d="M275.002 29.51C274.879 29.2971 274.716 29.1105 274.521 28.9608C274.326 28.8111 274.103 28.7013 273.866 28.6377C273.629 28.5741 273.381 28.5579 273.137 28.59C272.894 28.6221 272.659 28.702 272.446 28.825L247.985 42.947L224.195 28.776C223.844 28.5674 223.434 28.4793 223.029 28.5251C222.623 28.571 222.243 28.7483 221.948 29.03L197.842 42.947L174.052 28.776C173.841 28.6503 173.607 28.5673 173.364 28.532C173.121 28.4966 172.873 28.5094 172.635 28.5698C172.397 28.6301 172.173 28.7368 171.976 28.8837C171.779 29.0306 171.613 29.2149 171.487 29.426C171.361 29.6371 171.278 29.8709 171.243 30.1141C171.208 30.3572 171.22 30.6049 171.281 30.8431C171.341 31.0813 171.448 31.3053 171.595 31.5022C171.742 31.6992 171.926 31.8653 172.137 31.991L196.912 46.749C197.258 46.9556 197.662 47.0444 198.063 47.0022C198.464 46.96 198.841 46.7891 199.137 46.515C199.157 46.504 199.178 46.497 199.198 46.485L223.275 32.585L246.108 46.185V74.414C246.108 74.919 246.309 75.4033 246.666 75.7603C247.023 76.1174 247.507 76.318 248.012 76.318C248.517 76.318 249.001 76.1174 249.358 75.7603C249.715 75.4033 249.916 74.919 249.916 74.414V46.152L274.316 32.066C274.529 31.9432 274.715 31.7796 274.865 31.5847C275.015 31.3897 275.124 31.1672 275.188 30.9299C275.251 30.6925 275.268 30.445 275.236 30.2014C275.204 29.9577 275.124 29.7228 275.001 29.51" fill="#2B2929"/>
</svg>
