<svg width="159" height="73" viewBox="0 0 159 73" fill="none" xmlns="http://www.w3.org/2000/svg">
<path d="M100.317 63.3612C98.0849 62.6872 97.5192 62.2029 97.5192 61.2972C97.5192 60.4553 98.2353 59.8232 99.4559 59.8232C100.066 59.8017 100.667 59.9733 101.174 60.3137C101.681 60.654 102.067 61.1457 102.278 61.7186L104.721 60.3084C104.268 59.2992 103.526 58.4467 102.589 57.8583C101.652 57.2699 100.562 56.972 99.4559 57.0021C96.929 57.0021 94.6129 58.6028 94.6129 61.382C94.6129 64.1795 96.7988 65.1298 99.0554 65.7829C101.241 66.4149 102.235 66.8319 102.235 67.9309C102.235 68.7518 101.623 69.4887 99.8747 69.4887C99.1392 69.5453 98.4058 69.3543 97.7914 68.9461C97.177 68.5378 96.7168 67.9358 96.484 67.2358L94 68.6871C94.8 70.877 96.7795 72.33 99.7916 72.33C102.93 72.33 105.14 70.6454 105.14 67.8871C105.14 64.8763 102.655 64.0973 100.317 63.3604" fill="#737374"/>
<path d="M90.2948 62.0484L68.4652 49.4402C68.3953 49.4006 68.3226 49.3661 68.2477 49.3371C67.9877 49.1292 67.6704 49.0056 67.3383 48.9829C67.0061 48.9601 66.6749 49.0393 66.389 49.2097L45.605 61.592L24.9586 49.6707V25.6748C24.9638 25.4568 24.9253 25.2399 24.8455 25.037C24.7656 24.834 24.646 24.6491 24.4937 24.493C24.3413 24.337 24.1593 24.2129 23.9583 24.1283C23.7573 24.0436 23.5414 24 23.3233 24C23.1052 24 22.8894 24.0436 22.6884 24.1283C22.4874 24.2129 22.3054 24.337 22.153 24.493C22.0006 24.6491 21.881 24.834 21.8012 25.037C21.7213 25.2399 21.6829 25.4568 21.6881 25.6748V49.6865L0.829749 62.1107C0.640232 62.218 0.474053 62.3621 0.34096 62.5345C0.207868 62.7069 0.110543 62.9041 0.0546949 63.1147C-0.00115371 63.3252 -0.0144013 63.5447 0.0157293 63.7605C0.0458598 63.9762 0.118762 64.1837 0.230159 64.3708C0.341555 64.558 0.489204 64.721 0.664442 64.8504C0.839681 64.9797 1.03898 65.0727 1.25065 65.124C1.46232 65.1753 1.6821 65.1838 1.89709 65.149C2.11209 65.1142 2.31796 65.0368 2.50265 64.9214L23.3349 52.5121L44.4377 64.6955C44.696 64.9439 45.0287 65.1005 45.3847 65.1413C45.7407 65.1821 46.1002 65.1049 46.408 64.9214L67.2403 52.5112L88.6581 64.8777C89.0331 65.0832 89.4736 65.1337 89.8853 65.0184C90.2971 64.9031 90.6473 64.6312 90.861 64.2608C91.0747 63.8904 91.1349 63.4511 91.0288 63.0369C90.9226 62.6227 90.6584 62.2665 90.2929 62.0447" fill="#2B2929"/>
<path d="M27.7871 49.0374L44.1977 58.511C44.3837 58.6184 44.5889 58.688 44.8018 58.716C45.0147 58.744 45.231 58.7298 45.4383 58.6743C45.6457 58.6187 45.8401 58.5228 46.0104 58.3922C46.1808 58.2615 46.3237 58.0985 46.431 57.9126C46.5383 57.7267 46.608 57.5214 46.636 57.3086C46.664 57.0958 46.6499 56.8795 46.5943 56.6722C46.5387 56.4648 46.4428 56.2704 46.3121 56.1001C46.1814 55.9298 46.0184 55.7869 45.8325 55.6796L29.4218 46.2013C29.0469 45.9958 28.6064 45.9453 28.1947 46.0606C27.7829 46.1758 27.4327 46.4477 27.219 46.818C27.0053 47.1883 26.9451 47.6275 27.0512 48.0416C27.1574 48.4558 27.4216 48.8118 27.7871 49.0336" fill="#2B2929"/>
<path d="M157.833 61.921L138.382 50.696C138.382 50.66 138.388 50.624 138.388 50.587V22.791C138.388 22.316 138.199 21.8605 137.863 21.5246C137.527 21.1887 137.072 21 136.597 21C136.122 21 135.666 21.1887 135.33 21.5246C134.994 21.8605 134.806 22.316 134.806 22.791V48.627L134.344 48.36C134.325 48.349 134.307 48.341 134.288 48.332C134.009 48.0745 133.655 47.914 133.277 47.8743C132.9 47.8347 132.52 47.9181 132.194 48.112L131.383 48.595V22.795C131.383 22.5598 131.336 22.3269 131.246 22.1096C131.156 21.8923 131.025 21.6949 130.858 21.5286C130.692 21.3623 130.494 21.2303 130.277 21.1403C130.06 21.0503 129.827 21.004 129.592 21.004C129.357 21.004 129.124 21.0503 128.906 21.1403C128.689 21.2303 128.492 21.3623 128.325 21.5286C128.159 21.6949 128.027 21.8923 127.937 22.1096C127.847 22.3269 127.801 22.5598 127.801 22.795V50.583C127.801 50.631 127.801 50.678 127.808 50.725L108.893 61.996C108.689 62.1115 108.51 62.2665 108.367 62.452C108.224 62.6375 108.119 62.8497 108.059 63.0762C107.999 63.3027 107.985 63.5389 108.017 63.771C108.049 64.0031 108.128 64.2264 108.248 64.4277C108.367 64.6291 108.526 64.8045 108.715 64.9436C108.903 65.0828 109.118 65.1829 109.346 65.2381C109.573 65.2932 109.81 65.3024 110.041 65.2649C110.273 65.2275 110.494 65.1442 110.693 65.02L133.069 51.692L156.069 64.973C156.472 65.1941 156.946 65.2485 157.389 65.1244C157.832 65.0004 158.209 64.7078 158.439 64.3093C158.669 63.9109 158.734 63.4382 158.62 62.9925C158.505 62.5469 158.221 62.1637 157.828 61.925" fill="#2B2929"/>
<path d="M133.222 16.48C134.307 16.4876 135.383 16.2795 136.387 15.8677C137.391 15.456 138.303 14.8489 139.07 14.0817C139.837 13.3145 140.444 12.4024 140.856 11.3986C141.268 10.3947 141.476 9.319 141.468 8.234C141.468 6.05021 140.601 3.95586 139.057 2.41168C137.513 0.867508 135.418 0 133.234 0C131.051 0 128.956 0.867508 127.412 2.41168C125.868 3.95586 125 6.05021 125 8.234C124.99 9.31775 125.196 10.3927 125.605 11.3962C126.015 12.3997 126.62 13.3117 127.385 14.0792C128.15 14.8466 129.06 15.4541 130.063 15.8663C131.065 16.2785 132.14 16.4871 133.223 16.48M133.223 3.024C133.907 3.01074 134.586 3.13714 135.219 3.39545C135.852 3.65376 136.426 4.03856 136.905 4.52628C137.384 5.01401 137.759 5.5944 138.006 6.23193C138.253 6.86946 138.368 7.55072 138.342 8.234C138.352 8.91232 138.226 9.58577 137.973 10.2152C137.72 10.8446 137.345 11.4175 136.868 11.9006C136.392 12.3836 135.825 12.7671 135.199 13.0289C134.573 13.2907 133.901 13.4256 133.223 13.4256C132.544 13.4256 131.873 13.2907 131.247 13.0289C130.621 12.7671 130.054 12.3836 129.577 11.9006C129.101 11.4175 128.725 10.8446 128.472 10.2152C128.219 9.58577 128.094 8.91232 128.103 8.234C128.078 7.55072 128.192 6.86946 128.44 6.23193C128.687 5.5944 129.061 5.01401 129.541 4.52628C130.02 4.03856 130.593 3.65376 131.227 3.39545C131.86 3.13714 132.539 3.01074 133.222 3.024" fill="#737374"/>
</svg>
