<svg width="230" height="57" viewBox="0 0 230 57" fill="none" xmlns="http://www.w3.org/2000/svg">
<path d="M116.264 45.9839C113.711 45.2129 113.064 44.6589 113.064 43.6229C113.064 42.6599 113.883 41.9369 115.28 41.9369C115.977 41.9123 116.665 42.1087 117.244 42.498C117.824 42.8873 118.266 43.4497 118.507 44.1049L121.301 42.4919C120.782 41.3375 119.934 40.3624 118.863 39.6894C117.791 39.0163 116.544 38.6755 115.28 38.7099C112.39 38.7099 109.741 40.5409 109.741 43.7199C109.741 46.9199 112.241 48.0069 114.823 48.7539C117.323 49.4769 118.46 49.9539 118.46 51.2109C118.46 52.1499 117.76 52.9929 115.76 52.9929C114.918 53.0576 114.08 52.8391 113.377 52.3721C112.674 51.9052 112.148 51.2165 111.882 50.4159L109.04 52.0779C109.955 54.5829 112.219 56.2449 115.664 56.2449C119.253 56.2449 121.782 54.3179 121.782 51.1629C121.782 47.7189 118.94 46.8279 116.267 45.9849" fill="#737374"/>
<path d="M197.114 27.5742L178.77 38.7249C178.562 38.8566 178.331 38.9433 178.091 38.98C177.85 39.0168 177.606 39.0027 177.371 38.9388C177.136 38.8748 176.915 38.7622 176.722 38.6075C176.528 38.4528 176.366 38.2592 176.245 38.0378C176.124 37.8165 176.045 37.5719 176.015 37.3184C175.984 37.0648 176.002 36.8074 176.066 36.5611C176.131 36.3148 176.242 36.0846 176.392 35.8838C176.543 35.6831 176.73 35.5159 176.942 35.392L195.286 24.2413C195.705 23.9967 196.199 23.9352 196.66 24.07C197.122 24.2048 197.515 24.5252 197.755 24.9622C197.995 25.3991 198.062 25.9177 197.942 26.4062C197.822 26.8948 197.525 27.3142 197.114 27.5742" fill="#2B2929"/>
<path d="M126.734 43.4485L151.708 29.0386C151.789 28.9933 151.872 28.9539 151.958 28.9207C152.256 28.6837 152.618 28.5429 152.997 28.517C153.377 28.4911 153.755 28.5814 154.081 28.7758L177.862 42.9308L201.482 29.3025V1.86982C201.482 1.37391 201.679 0.898315 202.03 0.547657C202.381 0.196998 202.857 0 203.353 0C203.849 0 204.325 0.196998 204.676 0.547657C205.027 0.898315 205.224 1.37391 205.224 1.86982V29.3194L229.086 43.5235C229.513 43.7772 229.821 44.1899 229.943 44.6706C230.065 45.1513 229.99 45.6608 229.736 46.0868C229.482 46.5129 229.07 46.8207 228.589 46.9425C228.107 47.0643 227.598 46.9902 227.171 46.7364L203.338 32.5454L179.199 46.4786C178.903 46.7624 178.523 46.9413 178.115 46.9879C177.708 47.0345 177.297 46.9461 176.945 46.7364L153.108 32.5494L128.608 46.6875C128.179 46.9251 127.674 46.9849 127.201 46.8539C126.728 46.7229 126.326 46.4116 126.081 45.9871C125.835 45.5626 125.767 45.0588 125.89 44.5842C126.012 44.1095 126.317 43.7021 126.737 43.4495" fill="#2B2929"/>
<path d="M103.265 43.476L78.2906 29.057C78.2102 29.0116 78.1267 28.9722 78.0406 28.939C77.7434 28.7019 77.381 28.561 77.0017 28.5351C76.6224 28.5092 76.2442 28.5995 75.9176 28.794L52.1376 42.958L28.5176 29.321V1.871C28.5176 1.37478 28.3204 0.898884 27.9696 0.548003C27.6187 0.197123 27.1428 0 26.6466 0C26.1503 0 25.6744 0.197123 25.3236 0.548003C24.9727 0.898884 24.7756 1.37478 24.7756 1.871V29.338L0.913565 43.551C0.487229 43.8049 0.179234 44.2178 0.0573358 44.6989C-0.0645629 45.1799 0.00961989 45.6897 0.263565 46.116C0.517509 46.5423 0.930414 46.8503 1.41145 46.9722C1.89248 47.0941 2.40223 47.0199 2.82856 46.766L26.6616 32.566L50.8006 46.508C51.0961 46.792 51.4768 46.971 51.884 47.0176C52.2912 47.0642 52.7025 46.9758 53.0546 46.766L76.8906 32.57L101.391 46.717C101.82 46.9548 102.325 47.0146 102.798 46.8835C103.27 46.7525 103.673 46.441 103.918 46.0162C104.163 45.5914 104.232 45.0873 104.109 44.6124C103.986 44.1374 103.682 43.7297 103.262 43.477" fill="#2B2929"/>
<path d="M32.907 28.4746L51.682 39.3146C51.895 39.4426 52.1313 39.5269 52.3772 39.5626C52.6231 39.5983 52.8736 39.5846 53.1142 39.5225C53.3548 39.4603 53.5805 39.3508 53.7783 39.2005C53.9761 39.0501 54.142 38.8618 54.2663 38.6466C54.3905 38.4315 54.4707 38.1937 54.502 37.9472C54.5334 37.7008 54.5154 37.4505 54.449 37.211C54.3826 36.9716 54.2692 36.7478 54.1153 36.5527C53.9615 36.3576 53.7704 36.195 53.553 36.0746L34.778 25.2346C34.349 24.9968 33.8437 24.937 33.3711 25.068C32.8984 25.1991 32.4961 25.5106 32.2508 25.9354C32.0055 26.3601 31.9368 26.8643 32.0595 27.3392C32.1823 27.8141 32.4866 28.2218 32.907 28.4746" fill="#2B2929"/>
</svg>
