<svg width="225" height="352" viewBox="0 0 225 352" fill="none" xmlns="http://www.w3.org/2000/svg">
<g clip-path="url(#clip0_2203_769)">
<g opacity="0.1">
<path d="M208.366 229.649C207.931 241.523 207.708 253.414 206.977 265.263C206.445 272.085 205.016 278.808 202.725 285.256C200.672 291.454 198.111 297.473 195.07 303.251C191.946 309.054 188.271 314.543 184.097 319.643C180.043 324.481 175.505 328.892 170.553 332.807C167.897 334.958 165.019 336.821 161.969 338.365C157.597 340.615 153.079 342.517 148.581 344.44C146.95 345.105 145.256 345.603 143.526 345.927C137.173 347.222 130.843 348.831 124.433 349.558C118.025 350.237 111.555 349.099 105.763 346.275C100.379 343.56 95.1396 340.568 90.0648 337.313C87.3362 335.629 84.7447 333.734 82.3142 331.643C81.0347 330.365 79.9368 328.917 79.0511 327.34C78.4986 326.447 78.2209 325.411 78.2527 324.361C78.2845 323.311 78.6243 322.294 79.2298 321.435C80.1765 319.872 81.8751 319.936 83.4035 320.404C84.7189 320.729 85.9844 321.23 87.1659 321.894C91.1603 324.441 94.9676 327.394 99.063 329.702C102.333 331.624 105.846 333.099 109.509 334.087C114.733 335.277 120.026 336.145 125.357 336.686C129.627 337.089 133.929 336.372 137.837 334.604C141.535 333.07 145.439 332.125 149.069 330.436C153.807 328.229 158.424 325.772 162.902 323.076C170.12 318.741 175.848 312.266 181.302 305.572C186.333 299.598 190.615 293.032 194.053 286.019C195.018 283.906 195.733 281.687 196.181 279.409C196.393 278.386 195.75 277.134 195.495 275.986C194.477 276.417 193.186 276.54 192.485 277.329C188 282.376 183.713 287.646 179.225 292.69C175.987 296.405 172.133 299.534 167.831 301.94C164.704 303.654 161.765 305.794 158.673 307.597C155.274 309.575 151.832 311.459 148.346 313.246C144.28 315.335 140.192 317.357 136.056 319.25C134.367 319.932 132.624 320.473 130.845 320.868C125.923 322.199 121.024 323.862 115.866 323.192C112.167 322.764 108.6 321.56 105.397 319.659C100.503 316.609 96.4252 312.411 93.5179 307.43C90.4489 302.048 87.7546 296.461 85.4544 290.709C83.4758 286.12 81.9265 281.3 80.2453 276.555C79.016 273.084 77.9256 269.55 76.6973 266.078C75.5352 262.797 74.2052 259.583 73.0758 256.285C71.838 252.669 70.7034 249.006 69.5988 245.341C68.1598 240.559 66.7648 235.76 65.4139 230.945C65.0104 229.508 64.8196 227.997 64.5145 226.525C63.3093 220.708 62.0872 214.896 60.8939 209.075C60.3878 206.604 59.4865 204.898 56.9283 204.282C56.1341 204.001 55.4075 203.556 54.7948 202.978C54.1821 202.399 53.6969 201.699 53.3702 200.922C51.8334 196.881 51.5264 192.475 52.4877 188.259C53.9366 181.62 55.9449 175.115 58.491 168.814C61.1851 161.888 63.5129 154.6 68.0092 148.837C71.1683 144.788 74.9377 141.335 78.4928 137.689C81.1561 134.958 83.938 132.374 86.6096 129.653C87.4532 128.795 86.9217 127.01 85.7406 127.024C83.8461 127.018 81.9628 127.316 80.163 127.908C78.0759 128.711 76.0708 129.713 74.1752 130.899C67.7798 134.76 62.7007 140.463 59.604 147.262C57.076 152.481 54.3036 157.565 52.04 162.925C50.6526 166.616 49.5089 170.394 48.6163 174.235C47.4721 178.423 46.1837 182.597 45.4533 186.885C44.1965 194.268 42.4971 201.633 43.3426 209.294C43.5768 211.938 44.5947 214.453 46.2661 216.515C51.8272 223.011 56.422 230.275 59.9086 238.084C62.6707 244.512 65.5669 250.891 67.9618 257.489C70.4417 264.326 71.582 271.622 72.4274 278.928C72.9061 282.653 73.9788 286.277 75.6048 289.663C77.2545 293.269 78.5201 297.103 79.8319 300.894C80.1864 302.088 80.3648 303.327 80.3615 304.572C80.4965 308.509 77.3081 310.661 74.1504 308.848C71.0715 307.081 69.4005 303.872 67.688 300.755C65.1457 296.131 62.9807 291.224 60.2203 286.778C57.0836 281.73 53.3348 277.159 50.1032 272.174C47.1242 267.575 44.352 262.785 41.7156 257.924C39.7921 254.318 38.0629 250.611 36.5354 246.82C35.7449 244.615 35.1275 242.351 34.6888 240.05C32.0571 228.877 32.0849 217.564 33.2131 206.199C33.7335 200.981 34.1075 195.737 34.8025 190.55C35.3357 186.606 36.2521 182.731 37.021 178.83C37.5368 176.221 37.9619 173.569 38.6577 171.016C39.9345 166.332 41.1433 161.595 42.8222 157.09C44.7258 151.975 46.9882 147.016 49.3207 142.124C52.1611 136.112 56.0621 130.661 60.8366 126.033C65.5374 121.309 71.5569 118.116 78.1049 116.874C84.1652 115.789 90.0713 116.866 95.9824 117.951C101.61 118.983 107.237 120.113 112.778 121.608C115.903 122.52 118.904 123.81 121.714 125.452C125.505 127.539 129.145 129.889 132.608 132.485C137.698 136.41 142.242 140.997 146.121 146.123C150.835 152.384 154.651 159.273 157.458 166.59C159.385 171.683 160.995 176.891 162.28 182.183C163.974 188.142 165.26 194.21 166.129 200.344C166.679 206.285 166.743 212.261 166.321 218.212C166.072 222.778 165.418 227.313 164.367 231.763C163.409 235.702 162.085 239.542 160.413 243.234C158.458 248.008 155.353 252.224 151.374 255.507C147.051 258.982 141.582 260.71 136.047 260.349C131.05 260.12 126.48 258.402 121.998 256.047C113.032 251.336 106.492 243.727 101.24 234.486C97.1664 227.317 95.0601 219.393 93.9616 211.081C93.503 207.645 93.1262 204.186 92.9252 200.724C92.9131 199.159 93.1069 197.6 93.5016 196.087C93.9101 194.169 95.1888 193.832 96.4467 195.279C97.1472 196.011 97.7123 196.861 98.1159 197.79C99.655 201.951 101.15 206.14 102.531 210.367C104.035 214.984 105.237 219.731 107.861 223.786C110.531 227.909 112.939 232.279 115.864 236.154C118.833 240.212 122.671 243.556 127.098 245.941C128.361 246.6 129.661 247.176 130.964 247.731C136.215 249.968 140.944 248.491 145.331 245.067C149.795 241.471 153.132 236.668 154.943 231.229C158.208 222.252 158.473 213.02 157.523 203.587C157.325 201.628 157.163 199.657 156.814 197.729C156.209 194.398 155.544 191.077 154.764 187.793C154.182 185.267 153.46 182.775 152.604 180.328C149.747 172.345 146.338 164.768 141.217 158.174C137.637 153.497 133.666 149.134 129.347 145.13C125.639 141.955 121.612 139.174 117.33 136.831C110.75 132.922 104.001 133.157 97.226 134.732C90.3566 136.304 84.3801 140.512 80.5853 146.45C78.5539 149.327 76.69 152.32 75.003 155.412C73.0925 159.499 71.6731 163.798 70.7744 168.219C68.9686 176.349 68.4071 184.706 69.1092 193.005C69.4445 198.018 70.4232 202.986 71.2298 207.95C71.8386 211.694 72.4577 215.457 73.3852 219.117C75.1004 225.866 77.0056 232.554 78.8959 239.245C80.3955 244.554 81.936 249.852 83.554 255.117C85.6621 261.976 88.3106 268.607 92.847 273.85C94.955 276.101 97.4746 277.928 100.27 279.232C105.503 281.886 111.004 283.867 116.226 286.549C122.785 289.919 129.122 293.847 135.661 297.274C139.798 299.348 144.57 299.765 149.003 298.44C154.944 296.902 160.432 294.044 165.813 290.923C169.5 288.901 172.76 286.184 175.414 282.922C179.548 277.639 183.696 272.356 187.592 266.852C190.806 262.313 192.743 256.934 194.266 251.413C197.33 240.302 197.985 228.902 197.288 217.331C196.707 207.131 194.961 197.032 192.085 187.23C189.344 177.973 186.304 168.822 183.102 159.755C181.021 153.873 178.645 148.099 175.981 142.456C172.717 135.59 168.673 129.123 163.929 123.182C158.973 116.747 153.058 111.112 146.39 106.475C142.264 103.684 137.931 101.28 133.655 98.771C125.743 94.1241 117.122 92.6262 108.411 91.5519C101.577 90.7078 94.7557 89.3944 87.9063 89.1317C80.2991 88.8389 72.5432 88.6797 65.0629 89.9702C56.7653 91.5208 48.9289 94.9377 42.1461 99.9625C36.5972 103.866 31.6134 108.516 27.3357 113.781C24.7644 116.985 22.3815 120.384 19.7378 123.507C18.6278 124.767 17.2711 125.787 15.7515 126.502C14.1552 127.274 12.7764 126.252 12.9555 124.314C13.1506 121.408 13.6973 118.537 14.5837 115.764C17.5991 107.202 23.3923 101.234 29.6911 95.701C34.4617 91.4745 39.847 87.9977 45.6625 85.3896C50.8372 83.1457 56.136 81.1998 61.533 79.5612C72.0986 76.2366 82.9285 76.6397 93.6564 78.0358C101.738 79.0877 109.71 81.2529 117.728 82.9391C120.418 83.5046 123.098 84.1362 125.785 84.7117C132.319 86.109 138.8 87.8024 144.821 91.063C148.245 92.9538 151.517 95.11 154.605 97.5116C162.888 103.856 169.645 111.989 175.545 121.049C180.575 128.734 184.87 136.877 188.371 145.37C190.907 151.554 193.284 157.826 195.592 164.123C197.519 169.392 199.384 174.704 201.005 180.1C202.366 184.629 203.432 189.279 204.452 193.924C205.557 198.496 206.426 203.122 207.053 207.784C207.634 212.919 207.649 218.133 207.873 223.315C207.964 225.414 207.954 227.52 207.99 229.623L208.369 229.647M103.449 292.127C100.867 292.11 100.028 292.921 100.549 294.498C101.264 297.018 102.267 299.448 103.537 301.738C106.037 305.823 110.053 308.752 114.706 309.885C115.94 310.292 117.256 310.391 118.537 310.173C119.819 309.955 121.028 309.427 122.059 308.636C125.013 306.268 125.887 303.839 122.453 300.874C118.398 297.374 113.59 295.688 108.881 293.802C106.866 292.996 104.746 292.519 103.451 292.127M61.5352 264.273C60.7366 261.486 60.0859 258.632 59.1038 255.935C58.0943 253.166 56.8998 250.468 55.5285 247.859C53.7351 244.45 51.7724 241.147 49.7516 237.901C48.9371 236.593 47.5818 235.828 46.2321 236.813C44.914 237.772 44.7025 239.39 45.2695 241.03C46.4267 244.375 47.5066 247.767 48.8602 251.012C51.1094 256.403 53.3742 261.82 57.1422 266.169C58.0206 267.182 59.0339 268.651 60.3691 267.7C61.0491 267.216 61.1122 265.634 61.5383 264.279" fill="#737374"/>
<path d="M176.761 220.14C177.136 210.721 175.251 200.924 173.196 191.224C171.787 185.293 170.029 179.451 167.93 173.728C166.18 168.267 164.13 162.907 161.791 157.671C158.831 151.254 155.508 145.011 151.838 138.972C147.542 131.998 141.725 126.636 135.444 121.989C130.716 118.325 125.466 115.39 119.867 113.283C114.714 111.47 109.595 109.233 104.306 108.3C97.0249 107.017 89.6325 105.827 82.208 107.22C77.391 108.122 72.4672 108.574 67.7781 109.997C61.5208 111.856 55.6409 114.805 50.4091 118.708C40.3635 126.254 32.3326 136.106 24.8917 146.597C22.0192 150.841 19.4917 155.309 17.3336 159.957C14.9033 164.926 12.9694 170.201 10.6808 175.262C9.74658 177.41 8.57322 179.447 7.18291 181.332C5.58792 183.419 4.2338 183.141 3.49587 180.569C3.01682 178.614 2.8282 176.599 2.93609 174.589C3.10147 167.679 4.84327 160.897 8.0286 154.762C11.4197 148.057 15.2838 141.601 19.5916 135.444C24.0692 129.257 28.9562 123.376 34.2197 117.842C37.7173 114.303 41.5346 111.094 45.6231 108.258C49.348 105.439 53.3026 102.938 57.4454 100.78C62.8719 97.919 68.7706 96.0627 74.8573 95.3002C83.2447 94.4114 91.6246 94.2059 99.946 96.089C104.677 97.1599 109.455 98.095 114.076 99.6179C118.296 101.142 122.422 102.914 126.434 104.924C129.955 106.518 133.393 108.289 136.736 110.23C139.768 112.037 142.595 114.264 145.491 116.345C150.435 119.807 154.838 123.983 158.558 128.736C162.067 133.146 165.032 137.962 167.389 143.08C169.49 147.834 171.787 152.499 173.584 157.395C175.671 163.085 177.412 168.946 179.11 174.806C180.571 179.849 181.918 184.95 183.02 190.103C183.959 194.499 184.449 199.013 185.188 203.462C186.571 211.027 187.081 218.726 186.709 226.407C186.347 233.86 185.443 241.277 184.003 248.599C181.613 259.762 176.825 269.736 169.411 277.778C165.014 282.547 160.183 286.937 154.337 289.173C149.925 290.86 145.55 292.963 140.706 293.091C137.58 293.174 135.501 290.966 137.226 287.084C138.177 284.851 139.917 283.047 142.113 282.014C145.586 280.355 149.222 279.097 152.636 277.309C156.05 275.52 159.288 273.336 162.559 271.232C163.703 270.452 164.774 269.57 165.76 268.596C166.237 268.195 166.552 267.634 166.647 267.018C166.741 266.402 166.608 265.772 166.273 265.247C165.508 263.945 164.429 264.462 163.468 264.971C157.274 268.256 151.131 271.667 144.88 274.81C142.409 276.052 139.656 276.572 137.119 277.674C132.811 279.547 128.328 279.336 123.854 279.384C119.954 279.425 116.684 277.343 113.356 275.434C108.1 272.286 103.454 268.216 99.6407 263.421C94.557 257.478 90.4882 250.737 87.5982 243.47C85.8129 238.778 84.0326 234.081 82.3962 229.323C81.7955 227.257 81.2985 225.162 80.9071 223.046C78.1746 211.35 76.3451 199.526 77.3002 187.392C77.6696 181.068 78.9402 174.83 81.0734 168.865C84.7356 159.286 89.462 150.402 97.2333 144.223C102.619 139.942 108.373 139.55 114.457 142.58C116.933 143.812 118.293 145.882 119.274 148.468C120.393 151.421 119.014 153.699 116.172 153.502C113.663 153.4 111.165 153.108 108.699 152.629C105.342 151.875 102.727 153.476 100.348 155.616C97.1024 158.622 94.6548 162.387 93.2249 166.574C92.1308 169.587 90.7504 172.466 89.6422 175.474C89.0179 177.115 88.5854 178.823 88.3533 180.563C87.463 187.975 86.4135 195.378 87.6938 202.904C88.6263 208.39 89.0299 214.008 90.2748 219.393C91.6487 224.793 93.3014 230.118 95.2263 235.347C97.2306 240.934 99.9896 246.221 103.427 251.06C106.617 255.852 110.661 260.018 115.357 263.347C118.132 265.31 121.134 266.93 124.298 268.172C126.93 269.217 129.767 269.646 132.591 269.424C135.415 269.203 138.15 268.338 140.588 266.895C145.995 263.896 151.207 260.451 156.58 257.368C159.314 255.8 162.236 254.651 165.035 253.217C167.652 251.872 170.63 251.095 172.359 248.2C173.3 246.708 174.021 245.087 174.498 243.388C176.371 235.786 177.136 227.954 176.769 220.134" fill="#737374"/>
<path d="M79.3873 49.441C71.0722 49.4013 62.9271 50.9442 54.7837 52.5891C51.9753 53.0966 49.1393 53.4368 46.2905 53.6077C45.0139 53.7104 43.3389 53.5638 43.1827 51.844C43.2154 50.5004 43.7361 49.2147 44.6476 48.227C47.5483 45.0408 51.2483 43.3915 55.1014 42.2697C67.4539 38.6757 80.0341 38.5949 92.6199 40.0134C97.3263 40.6769 101.953 41.8162 106.43 43.4137C112.855 45.5191 119.239 47.8553 125.504 50.5085C129.661 52.4454 133.715 54.5947 137.652 56.948C143.633 60.278 149.175 64.3414 154.15 69.0441C156.969 71.8688 159.509 74.9594 161.733 78.2729C165.091 82.712 168.836 86.8444 172.925 90.6212C177.152 94.7431 181.034 99.2046 184.531 103.961C188.239 109.227 191.668 114.684 194.804 120.309C197.759 125.399 200.622 130.592 203.108 135.983C205.996 142.248 208.492 148.748 211.037 155.203C214.078 163.187 216.635 171.347 218.695 179.639C220.686 187.254 222.449 194.897 222.325 202.802C222.242 208.07 221.196 213.324 220.47 218.561C220.256 219.631 219.835 220.65 219.232 221.559C218.334 223.063 216.835 223.186 216.14 221.591C215.08 219.252 214.324 216.787 213.89 214.257C212.933 207.983 212.51 201.603 211.441 195.356C210.321 188.804 208.874 182.303 207.238 175.885C205.922 170.736 204.33 165.661 202.469 160.682C200.512 155.435 198.256 150.311 195.876 145.29C193.47 140.209 190.89 135.234 188.136 130.364C185.514 125.717 182.639 121.246 179.789 116.767C177.454 113.095 175.07 109.455 172.569 105.926C169.078 101.159 164.719 97.0936 159.723 93.9405C155.05 90.8621 150.274 87.9524 145.405 85.2944C141.646 83.2427 137.67 81.6958 133.792 79.9232C130.127 78.248 126.523 76.3647 122.784 74.9388C115.492 71.9821 107.783 70.182 99.9359 69.6036C96.9703 69.443 94.0071 68.7151 91.0554 68.7863C86.231 68.9023 81.4026 69.3135 76.6028 69.8782C72.0935 70.409 67.596 71.1627 63.1363 72.0807C60.3418 72.7556 57.5869 73.5849 54.8842 74.5647C48.6121 76.7165 42.577 79.5052 36.8734 82.8872C35.4574 83.7462 33.9306 84.4079 32.3355 84.8539C31.8637 84.9381 31.3784 84.9064 30.9215 84.7615C30.4646 84.6167 30.0498 84.3629 29.7126 84.0222C29.4802 83.584 29.3465 83.1003 29.3208 82.605C29.2951 82.1097 29.3781 81.6148 29.5639 81.1549C30.9317 78.3393 32.5502 75.6527 34.3998 73.1274C39.9537 66.079 47.4408 63.0179 55.3121 60.7234C68.0108 57.0225 80.8645 57.0811 93.8164 58.3263C102.333 59.1448 110.573 61.3974 118.778 63.9858C121.58 64.8376 124.431 65.5203 127.315 66.0303C128.041 66.167 128.878 65.5216 129.664 65.2351C129.333 64.3295 129.226 63.0139 128.628 62.5919C126.575 60.9579 124.305 59.6188 121.881 58.6135C113.969 55.9312 106.041 53.1741 97.9706 51.2617C91.9124 49.8262 85.6256 49.647 79.4403 48.9089C79.4227 49.0893 79.405 49.2696 79.3874 49.45" fill="#737374"/>
<path d="M8.96564 237.597C9.62776 227.649 10.4281 217.71 10.9029 207.75C11.1713 201.158 12.2312 194.622 14.06 188.284C15.9231 181.959 18.0418 175.731 20.1224 169.491C21.5329 165.26 22.8927 160.989 24.5908 156.904C27.0345 151.023 30.0307 145.508 34.5205 141.247C35.0741 140.611 35.8203 140.173 36.6456 140C37.4708 139.827 38.3301 139.928 39.0926 140.288C39.8872 140.731 40.5173 141.419 40.8886 142.249C41.2599 143.08 41.3525 144.008 41.1525 144.896C40.8716 147.01 40.3505 149.086 39.5992 151.083C36.7694 158.323 33.6219 165.41 30.9212 172.709C27.882 180.53 25.9179 188.727 25.0826 197.076C24.5811 202.878 23.5424 208.619 23.0678 214.422C22.4204 222.351 22.1188 230.38 23.7647 238.174C24.8943 242.884 26.4592 247.478 28.4393 251.899C31.7388 259.813 37.1835 266.115 41.5724 273.215C45.3606 279.344 48.9036 285.694 52.1759 292.19C54.4886 296.78 56.0668 301.826 58.167 306.565C59.6721 309.96 61.5477 313.144 63.164 316.483C64.7802 319.823 66.3667 323.178 67.7588 326.632C67.9106 327.131 67.9559 327.657 67.8916 328.175C67.8274 328.693 67.655 329.192 67.3858 329.639C66.9823 330.146 65.6203 330.055 64.8417 329.736C60.0067 327.758 56.2536 323.994 52.7602 319.908C50.824 317.769 49.0964 315.451 47.601 312.984C46.1118 310.351 44.9416 307.55 44.1152 304.64C42.8433 300.139 42.1303 295.443 40.933 290.912C38.349 281.134 34.5669 272.13 26.9901 265.858C26.6924 265.611 26.3415 265.436 25.9648 265.346C25.5881 265.257 25.1959 265.256 24.8188 265.344C24.5217 265.587 24.2846 265.896 24.126 266.245C23.9673 266.595 23.8913 266.976 23.9038 267.36C23.9778 269.419 24.3151 271.459 24.9073 273.432C26.9526 279.064 29.3224 284.546 31.3935 290.166C32.0429 292.066 32.4358 294.044 32.5618 296.048C32.7161 297.946 31.8402 298.79 30.305 298.04C28.4826 297.112 26.8273 295.886 25.407 294.414C20.9428 289.889 18.4636 283.976 16.6437 277.658C15.4563 273.536 14.1327 269.462 13.0009 265.317C12.2308 262.499 11.5758 259.627 11.0695 256.735C9.96187 250.421 8.61346 244.124 8.96044 237.585" fill="#737374"/>
<path d="M152.942 211.594C152.555 215.342 152.281 219.737 151.613 224.055C150.689 230.073 144.998 235.547 139.607 236.471C134.183 237.399 129.84 235.152 125.798 231.456C118.908 225.153 113.764 217.279 109.307 208.722C105.766 202.206 103.028 195.284 101.154 188.108C99.6247 181.807 98.3983 175.277 100.331 168.685C100.992 166.242 102.573 164.149 104.743 162.847C108.182 160.844 112.03 160.3 115.488 162.593C117.732 164.218 119.661 166.237 121.182 168.553C123.38 171.951 125.013 175.682 126.017 179.602C127.912 186.072 129.86 192.541 132.205 198.813C133.68 202.758 135.902 206.352 137.839 210.073C138.156 210.527 138.567 210.905 139.045 211.183C140.744 212.446 141.513 212.132 141.744 209.913C142.401 203.588 141.839 197.352 139.246 191.667C136.109 184.791 132.599 178.128 129.146 171.44C127.808 168.847 126.062 166.52 124.741 163.913C124.006 162.557 123.653 161.026 123.72 159.486C124.134 155.895 127.211 154.568 129.933 156.579C134.983 160.4 138.919 165.502 141.333 171.356C143.232 175.708 145.505 179.852 147.443 184.185C149.787 189.498 151.253 195.158 151.782 200.942C152.109 204.269 152.504 207.589 152.943 211.591M111.435 171.974C109.726 171.988 108.639 173.238 108.492 175.372C107.984 182.64 110.662 189.118 112.778 195.665C114.092 199.21 115.707 202.636 117.605 205.906C122.002 214.273 127.625 221.302 135.351 225.938C136.564 226.666 138.058 227.472 138.983 226.048C139.943 224.571 138.727 223.252 137.728 222.193C135.139 219.452 132.435 216.835 129.958 213.973C124.861 208.021 121.411 200.837 119.951 193.137C118.806 187.535 117.275 182.029 115.828 176.509C115.204 174.125 112.961 171.956 111.433 171.971" fill="#737374"/>
<path d="M79.8509 20.813C89.2344 20.8585 98.4234 22.6449 107.556 24.8303C111.853 25.7887 116.084 27.0219 120.223 28.5221C125.066 30.2868 129.765 32.4263 134.276 34.9211C140.917 38.6602 147.352 42.7541 153.552 47.185C158.82 51.1486 163.85 55.4188 168.616 59.9737C174.205 65.1282 179.672 70.4629 184.967 75.9925C191.419 82.7288 197.794 89.6484 202.561 98.0438C206.327 104.535 209 111.602 210.471 118.961C210.877 121.074 211.322 123.188 211.548 125.328C211.621 126.01 211.124 127.323 210.752 127.388C210.344 127.438 209.929 127.397 209.539 127.266C209.149 127.136 208.793 126.92 208.496 126.634C203.972 121.71 200.867 115.606 197.512 109.701C195.131 105.511 192.718 101.328 190.069 97.3529C187.341 93.1423 184.374 89.0921 181.182 85.2225C176.152 79.2923 171.023 73.4387 165.064 68.6276C161.007 65.3486 157.12 61.7546 152.893 58.7786C148.254 55.4762 143.402 52.4844 138.368 49.8229C131.838 46.4159 125.167 43.2983 118.404 40.5365C113.99 38.734 109.322 37.708 104.738 36.4676C92.2171 33.0884 79.4778 32.5857 66.6894 32.5981C64.4794 32.5975 62.2909 32.1651 60.2469 31.3252C57.7041 30.2631 57.6913 27.6896 60.0348 26.0273C64.7977 22.6454 69.9312 20.6465 75.6516 20.8714C77.053 20.9266 78.4519 20.8358 79.8519 20.812" fill="#737374"/>
<path d="M95.7158 8.1798C103.167 8.6773 110.568 9.56279 117.777 11.937C121.801 13.262 125.888 14.3548 129.852 15.8699C133.906 17.4184 137.885 19.2473 141.822 21.152C146.149 23.246 150.46 25.4134 154.648 27.8359C157.692 29.5987 160.55 31.7838 163.442 33.8672C168.458 37.483 173.416 41.2308 177.515 46.1316C179.252 48.449 180.779 50.9166 182.077 53.5052C182.553 54.3652 182.799 55.3331 182.792 56.3158C182.754 57.5528 182.656 59.395 181.987 59.8405C181.444 60.0849 180.848 60.1882 180.255 60.1408C179.661 60.0933 179.089 59.8967 178.592 59.5692C175.337 57.2898 172.271 54.6702 169.105 52.2283C164.594 48.7499 160.214 45.0063 155.493 41.9386C149.78 38.2118 143.86 34.8131 137.762 31.759C132.387 29.1581 126.857 26.8916 121.203 24.9725C114.368 22.566 107.44 20.4771 100.506 18.4594C97.1885 17.4945 93.7559 17.0467 90.3881 16.2917C88.163 15.7934 85.9428 15.2359 83.7564 14.5429C83.436 14.4079 83.1501 14.2024 82.92 13.9417C82.6899 13.681 82.5216 13.3718 82.4275 13.037C82.4177 12.6851 82.485 12.3352 82.6246 12.0119C82.7643 11.6887 82.9729 11.3999 83.2359 11.1658C86.2166 8.97947 89.7051 8.77312 93.0971 8.24232C93.9685 8.16152 94.8444 8.14061 95.7187 8.17975" fill="#737374"/>
<path d="M132.347 1.57111C136.786 1.88757 141.127 3.03532 145.142 4.95463C152.687 8.64347 159.038 14.4572 165.824 19.4963C166.413 19.9458 166.944 20.4666 167.405 21.0469C168.866 22.8536 168.1 25.7225 165.974 25.9777C164.706 26.0983 163.43 25.8696 162.284 25.3162C154.15 21.4223 146.081 17.3523 137.94 13.4755C135.325 12.2296 132.518 11.5091 129.872 10.3337C128.236 9.60003 126.706 8.65041 125.323 7.5102C123.923 6.35766 124.053 4.70298 125.651 3.98061C128.098 2.8757 130.682 2.15157 132.351 1.56604" fill="#737374"/>
</g>
</g>
<defs>
<clipPath id="clip0_2203_769">
<rect width="224.948" height="351.672" fill="white"/>
</clipPath>
</defs>
</svg>
